<?xml version="1.0" encoding="UTF-8"?>
<!DOCTYPE svg PUBLIC "-//W3C//DTD SVG 1.1//EN" "http://www.w3.org/Graphics/SVG/1.1/DTD/svg11.dtd">
<!-- Creator: CorelDRAW (Versión de evaluación) -->
<svg xmlns="http://www.w3.org/2000/svg" xml:space="preserve" width="512px" height="512px" version="1.1" shape-rendering="geometricPrecision" text-rendering="geometricPrecision" image-rendering="optimizeQuality" fill-rule="evenodd" clip-rule="evenodd"
viewBox="0 0 510.32 510.32"
 xmlns:xlink="http://www.w3.org/1999/xlink"
 xmlns:xodm="http://www.corel.com/coreldraw/odm/2003">
 <g id="Capa_x0020_1">
  <metadata id="CorelCorpID_0Corel-Layer"/>
  <g id="_2369955582576">
   <circle fill="#AADFF3" cx="255.16" cy="255.16" r="255.16"/>
   <g>
    <path fill="black" d="M233.77 287.34c5.2,6.22 43.87,27.65 53.99,33.35 -0.24,5.47 -6.42,18.34 -8.9,23.97 -11.36,25.89 0.62,20.61 -49.74,20.92 -3.09,4.79 -5.9,14.2 -8.86,20.32 -5.12,10.57 -24.6,54.11 -24.58,60.28l125.59 -0.3 67.34 -159.92 -60.81 -36.83c-10.61,-6 -20.9,-12.56 -31.28,-18.68 -5.06,-2.98 -24.75,-16.16 -30.64,-17.53 -2.72,3.48 -29.84,66.48 -32.11,74.42z"/>
    <path fill="black" d="M122.02 220.87c4.27,4.93 38.37,24.22 47.74,29.73 9.11,5.35 42.9,27.45 49.03,28.13l16.72 -36.73c3.12,-7.09 14.94,-32.8 15.15,-39.08 -7.64,-4.88 -20,-10.97 -27.4,-16.67 0.32,-5.19 15.16,-39.77 17.69,-43.04l40.89 -0.47c5.41,-10.76 32.32,-75.82 32.24,-79.23l-125.75 -0.23c-0.2,0.27 -65.79,152.61 -66.31,157.59z"/>
    <path fill="black" d="M175.86 446.05c2.63,-3.38 35.04,-76.72 35.05,-80.32l-9.24 -0.44 -0.52 -35.46c-9.15,-6.72 -20.17,-12.01 -28.9,-17.91l-49.69 -29.41c-1.77,25.11 -0.23,56.61 -0.16,82.39 0.03,9.16 -1.67,76.81 1.31,79.84 5.19,3.94 42.69,1.83 52.15,1.31z"/>
    <path fill="black" d="M299.65 142.65l8.38 0.3 0.3 34.99c7.28,4.55 72.03,45.36 79.38,45.84l0.04 -159.59c-8.07,-1.29 -47.61,-1.3 -55.39,0.21 -4.47,11.32 -32.46,72.7 -32.71,78.25z"/>
   </g>
  </g>
 </g>
</svg>