<?xml version="1.0" encoding="UTF-8"?>
<!DOCTYPE svg PUBLIC "-//W3C//DTD SVG 1.1//EN" "http://www.w3.org/Graphics/SVG/1.1/DTD/svg11.dtd">
<!-- Creator: CorelDRAW (Versión de evaluación) -->
<svg xmlns="http://www.w3.org/2000/svg" xml:space="preserve" width="6.24999cm" height="0.84999cm" version="1.1" shape-rendering="geometricPrecision" text-rendering="geometricPrecision" image-rendering="optimizeQuality" fill-rule="evenodd" clip-rule="evenodd"
viewBox="0 0 6235.75 848.05"
 xmlns:xlink="http://www.w3.org/1999/xlink"
 xmlns:xodm="http://www.corel.com/coreldraw/odm/2003">
 <g id="Capa_x0020_1">
  <metadata id="CorelCorpID_0Corel-Layer"/>
  <path fill="white" fill-rule="nonzero" d="M339.69 848.05c-46.52,0 -91.12,-3.69 -133.78,-11.07 -42.66,-7.37 -81.43,-17.86 -116.33,-31.45 -34.9,-13.59 -64.77,-28.54 -89.58,-44.85l90.74 -172.41c27.92,17.08 56.8,31.65 86.67,43.68 29.86,12.04 60.3,21.16 91.32,27.38 31.03,6.22 62.05,9.32 93.08,9.32 29.47,0 54.67,-2.91 75.62,-8.74 20.94,-5.82 36.84,-14.17 47.7,-25.04 10.86,-10.87 16.27,-23.69 16.27,-38.44 0,-16.3 -7.16,-29.31 -21.51,-39.02 -14.35,-9.71 -33.15,-18.06 -56.42,-25.04 -23.27,-6.99 -49.06,-14.18 -77.36,-21.55 -28.32,-7.38 -56.63,-16.31 -84.94,-26.8 -28.32,-10.48 -54.1,-23.69 -77.36,-39.6 -23.27,-15.92 -42.08,-36.31 -56.43,-61.16 -14.35,-24.85 -21.52,-55.52 -21.52,-92.03 0,-59.02 15.9,-110.28 47.7,-153.77 31.81,-43.48 76.98,-77.26 135.54,-101.34 58.55,-24.08 127.77,-36.12 207.66,-36.12 58.17,0 112.46,6.02 162.88,18.06 50.41,12.03 93.86,29.31 130.3,51.84l-83.76 171.24c-31.81,-20.19 -66.91,-35.53 -105.3,-46.01 -38.39,-10.49 -77.74,-15.72 -118.08,-15.72 -31.02,0 -57.59,3.49 -79.69,10.48 -22.11,6.99 -38.78,16.5 -50.03,28.54 -11.25,12.03 -16.87,25.43 -16.87,40.19 0,15.53 6.98,28.35 20.94,38.44 13.96,10.1 32.77,18.64 56.42,25.63 23.66,6.98 49.64,14.17 77.95,21.55 28.31,7.37 56.42,15.91 84.35,25.62 27.92,9.71 53.91,22.53 77.95,38.44 24.03,15.92 43.04,35.92 57,59.99 13.96,24.08 20.93,53.98 20.93,89.7 0,58.25 -15.88,109.11 -47.69,152.6 -31.8,43.49 -77.17,77.27 -136.12,101.35 -58.95,24.08 -128.36,36.12 -208.25,36.12z"/>
  <polygon id="_1" fill="white" fill-rule="nonzero" points="788.77,831.74 951.65,16.31 1182,16.31 1056.35,648.85 1444.92,648.85 1407.7,831.74 "/>
  <path id="_2" fill="white" fill-rule="nonzero" d="M1809.06 332l378.11 0 -33.73 172.41 -378.11 0 33.73 -172.41zm-47.69 321.51l426.96 0 -37.23 178.23 -652.66 0 162.88 -815.43 637.53 0 -36.07 178.22 -410.67 0 -90.74 458.97z"/>
  <path id="_3" fill="white" fill-rule="nonzero" d="M2590.86 332l378.1 0 -33.73 172.41 -378.11 0 33.74 -172.41zm-47.7 321.51l426.96 0 -37.23 178.23 -652.66 0 162.88 -815.43 637.53 0 -36.06 178.22 -410.68 0 -90.74 458.97z"/>
  <path id="_4" fill="white" fill-rule="nonzero" d="M3062.03 831.74l162.88 -815.43 344.36 0c105.49,0 186.92,22.91 244.31,68.72 57.39,45.83 86.08,110.28 86.08,193.38 0,68.34 -16.28,128.14 -48.85,179.39 -32.59,51.26 -79.12,90.86 -139.61,118.82 -60.49,27.97 -131.85,41.94 -214.06,41.94l-264.1 0 122.16 -102.52 -62.83 315.69 -230.35 0zm287.36 -288.89l-80.28 -106.01 238.5 0c50.41,0 89.59,-12.04 117.5,-36.12 27.92,-24.08 41.88,-58.25 41.88,-102.51 0,-34.17 -11.24,-59.41 -33.74,-75.72 -22.49,-16.31 -53.9,-24.46 -94.23,-24.46l-221.05 0 122.16 -109.5 -90.74 454.31z"/>
  <polygon id="_5" fill="white" fill-rule="nonzero" points="4048.59,831.74 4175.39,199.2 3925.27,199.2 3962.49,16.31 4691.94,16.31 4654.71,199.2 4405.75,199.2 4278.94,831.74 "/>
  <path id="_6" fill="white" fill-rule="nonzero" d="M4925.78 332l378.11 0 -33.74 172.41 -378.11 0 33.74 -172.41zm-47.7 321.51l426.97 0 -37.23 178.23 -652.66 0 162.88 -815.43 637.53 0 -36.06 178.22 -410.68 0 -90.74 458.97z"/>
  <path id="_7" fill="white" fill-rule="nonzero" d="M5396.96 831.74l162.87 -815.43 347.86 0c104.71,0 185.57,22.91 242.58,68.72 57,45.83 85.49,109.5 85.49,191.04 0,68.34 -16.47,127.95 -49.44,178.81 -32.96,50.87 -79.7,90.28 -140.19,118.24 -60.49,27.96 -131.85,41.93 -214.06,41.93l-264.1 0 122.16 -99.01 -62.82 315.69 -230.35 0zm510.72 0l-166.36 -297.05 238.5 0 168.68 297.05 -240.82 0zm-223.37 -288.89l-80.27 -106.01 238.5 0c51.18,0 90.74,-12.04 118.66,-36.12 27.93,-24.08 41.88,-58.25 41.88,-102.51 0,-34.17 -11.25,-59.41 -33.74,-75.72 -22.49,-16.31 -53.91,-24.46 -94.23,-24.46l-222.21 0 123.33 -109.5 -91.91 454.31z"/>
 </g>
</svg>