<?xml version="1.0" encoding="UTF-8"?>
<!DOCTYPE svg PUBLIC "-//W3C//DTD SVG 1.1//EN" "http://www.w3.org/Graphics/SVG/1.1/DTD/svg11.dtd">
<!-- Creator: CorelDRAW (Versión de evaluación) -->
<svg xmlns="http://www.w3.org/2000/svg" xml:space="preserve" width="138px" height="23px" version="1.1" shape-rendering="geometricPrecision" text-rendering="geometricPrecision" image-rendering="optimizeQuality" fill-rule="evenodd" clip-rule="evenodd"
viewBox="0 0 6.36 1.07"
 xmlns:xlink="http://www.w3.org/1999/xlink"
 xmlns:xodm="http://www.corel.com/coreldraw/odm/2003">
 <g id="Capa_x0020_1">
  <metadata id="CorelCorpID_0Corel-Layer"/>
  <g id="_2237005397696">
   <polygon fill="white" points="0.08,0.75 0.07,0.75 0.07,0.76 0.06,0.76 0.06,0.84 0.07,0.84 0.07,0.9 0.08,0.9 0.08,0.93 0.08,0.93 0.08,0.95 0.1,0.95 0.1,0.95 0.15,0.95 0.15,0.96 0.52,0.96 0.52,0.95 0.65,0.95 0.65,0.95 0.77,0.95 0.77,0.74 0.08,0.74 "/>
   <polygon fill="white" points="0.15,0.51 0.09,0.51 0.09,0.52 0.08,0.52 0.08,0.54 0.08,0.54 0.08,0.57 0.07,0.57 0.07,0.63 0.06,0.63 0.06,0.69 0.07,0.69 0.07,0.72 0.08,0.72 0.08,0.72 0.77,0.72 0.77,0.53 0.76,0.53 0.76,0.52 0.6,0.52 0.6,0.51 0.5,0.51 0.5,0.51 0.15,0.51 "/>
   <polygon fill="white" points="0.01,1.03 0.77,1.03 0.77,0.96 0.65,0.96 0.65,0.97 0.57,0.97 0.57,0.98 0.13,0.98 0.13,0.97 0.08,0.97 0.08,0.96 0.08,0.96 0.08,0.96 0.07,0.96 0.07,0.95 0.06,0.95 0.06,0.93 0.06,0.93 0.06,0.9 0.05,0.9 0.05,0.87 0.05,0.87 0.05,0.76 0.05,0.76 0.05,0.74 0.06,0.74 0.06,0.73 0.05,0.73 0.05,0.71 0.05,0.71 0.05,0.61 0.05,0.61 0.05,0.57 0.06,0.57 0.06,0.53 0.06,0.53 0.06,0.51 0.07,0.51 0.07,0.51 0.08,0.51 0.08,0.5 0.08,0.5 0.08,0.5 0.13,0.5 0.13,0.49 0.51,0.49 0.51,0.5 0.67,0.5 0.67,0.5 0.77,0.5 0.77,0.44 0.01,0.44 "/>
   <path fill="white" d="M4.69 0.38l0 0 0 0.01 -0.01 0 0 0 -0.02 0 0 0.01 -0.08 0 0 -0.16 0.09 0 0 0 0.01 0 0 0.01 0.01 0 0 0 0 0 0 0.03 0.01 0 0 0.07 -0.01 0 0 0.03zm-0.27 -0.14l0.05 0 0 0.38 -0.05 0 0 0.03 0.22 0 0 -0.03 -0.06 0 0 -0.2 0.04 0 0 0.01 0.02 0 0 0 0.01 0 0 0.01 0.01 0 0 0 0.01 0 0 0.02 0 0 0 0.02 0.01 0 0 0.07 0 0 0 0.03 0.01 0 0 0.02 0 0 0 0.01 0.01 0 0 0.01 0.01 0 0 0 0 0 0 0.01 0.01 0 0 0 0 0 0 0.01 0.01 0 0 0.01 0.02 0 0 0 0.07 0 0 0 0.02 0 0 -0.01 0.02 0 0 -0.01 0.01 0 0 -0.01 -0.01 0 0 -0.01 -0.02 0 0 0.01 -0.02 0 0 -0.01 -0.01 0 0 0 -0.01 0 0 -0.02 0 0 0 -0.07 -0.01 0 0 -0.03 0 0 0 -0.01 -0.01 0 0 -0.01 -0.01 0 0 -0.01 0 0 0 0 -0.01 0 0 -0.01 0 0 0 -0.01 -0.01 0 0 0 0 0 0 -0.01 -0.02 0 0 0 -0.01 0 0 -0.01 -0.02 0 0 0 -0.03 0 0 -0.01 0.04 0 0 -0.01 0.02 0 0 0 0.02 0 0 -0.01 0.01 0 0 0 0.01 0 0 -0.01 0.01 0 0 0 0.01 0 0 -0.01 0 0 0 -0.01 0.01 0 0 0 0 0 0 -0.01 0.01 0 0 -0.02 0.01 0 0 -0.05 -0.01 0 0 -0.01 -0.01 0 0 -0.01 0 0 0 -0.01 -0.01 0 0 0 0 0 0 -0.01 -0.01 0 0 0 -0.01 0 0 -0.01 -0.01 0 0 0 -0.01 0 0 -0.01 -0.03 0 0 -0.01 -0.3 0 0 0.03z"/>
   <path fill="white" d="M2.45 0.38l0 0 0 0.01 -0.02 0 0 0 -0.01 0 0 0.01 -0.08 0 0 -0.16 0.08 0 0 0 0.02 0 0 0.01 0.01 0 0 0 0 0 0 0.03 0.01 0 0 0.07 -0.01 0 0 0.03zm-0.27 -0.14l0.05 0 0 0.38 -0.05 0 0 0.03 0.22 0 0 -0.03 -0.06 0 0 -0.2 0.04 0 0 0.01 0.02 0 0 0 0.01 0 0 0.01 0.01 0 0 0 0 0 0 0.02 0.01 0 0 0.02 0 0 0 0.07 0.01 0 0 0.03 0.01 0 0 0.02 0 0 0 0.01 0.01 0 0 0.01 0 0 0 0 0.01 0 0 0.01 0 0 0 0 0.01 0 0 0.01 0.01 0 0 0.01 0.02 0 0 0 0.07 0 0 0 0.02 0 0 -0.01 0.02 0 0 -0.01 0 0 0 -0.01 0 0 0 -0.01 -0.02 0 0 0.01 -0.03 0 0 -0.01 0 0 0 0 -0.01 0 0 -0.02 0 0 0 -0.07 -0.01 0 0 -0.03 -0.01 0 0 -0.01 0 0 0 -0.01 -0.01 0 0 -0.01 0 0 0 0 -0.01 0 0 -0.01 -0.01 0 0 -0.01 0 0 0 0 -0.01 0 0 -0.01 -0.01 0 0 0 -0.02 0 0 -0.01 -0.01 0 0 0 -0.03 0 0 -0.01 0.03 0 0 -0.01 0.03 0 0 0 0.02 0 0 -0.01 0.01 0 0 0 0.01 0 0 -0.01 0.01 0 0 0 0 0 0 -0.01 0.01 0 0 -0.01 0.01 0 0 0 0 0 0 -0.01 0.01 0 0 -0.02 0 0 0 -0.05 0 0 0 -0.01 -0.01 0 0 -0.01 0 0 0 -0.01 -0.01 0 0 0 -0.01 0 0 -0.01 0 0 0 0 -0.01 0 0 -0.01 -0.02 0 0 0 -0.01 0 0 -0.01 -0.03 0 0 -0.01 -0.29 0 0 0.03z"/>
   <path fill="white" d="M1.99 0.57l-0.01 0 0 0.01 0 0 0 0.01 -0.01 0 0 0.02 0 0 0 0 -0.02 0 0 0.01 -0.01 0 0 0 -0.02 0 0 0.01 -0.05 0 0 -0.01 -0.02 0 0 0 -0.01 0 0 -0.01 -0.01 0 0 0 0 0 0 -0.02 -0.01 0 0 0 0 0 0 -0.02 -0.01 0 0 -0.04 -0.01 0 0 -0.21 0.01 0 0 -0.04 0.01 0 0 -0.01 0 0 0 -0.01 0.01 0 0 -0.01 0 0 0 -0.01 0.01 0 0 0 0.01 0 0 -0.01 0.02 0 0 0 0.05 0 0 0 0.02 0 0 0.01 0.01 0 0 0 0.02 0 0 0.01 0 0 0 0.01 0.01 0 0 0.01 0 0 0 0.02 0.01 0 0 0.04 0 0 0 0.2 0 0 0 0.04zm-0.13 -0.36l-0.03 0 0 0 -0.01 0 0 0.01 -0.02 0 0 0.01 -0.01 0 0 0 0 0 0 0.01 -0.02 0 0 0 0 0 0 0.01 -0.01 0 0 0 0 0 0 0.01 -0.01 0 0 0.01 -0.01 0 0 0 -0.01 0 0 0.01 0 0 0 0.01 -0.01 0 0 0 0 0 0 0.02 -0.01 0 0 0 0 0 0 0.01 -0.01 0 0 0.01 -0.01 0 0 0.02 0 0 0 0.01 -0.01 0 0 0.03 0 0 0 0.08 0 0 0 0.02 0.01 0 0 0.02 0 0 0 0.01 0.01 0 0 0.01 0.01 0 0 0.01 0 0 0 0.01 0.01 0 0 0.01 0 0 0 0.01 0.01 0 0 0.01 0 0 0 0 0.01 0 0 0.01 0.01 0 0 0 0 0 0 0.01 0.01 0 0 0.01 0.01 0 0 0 0 0 0 0.01 0.02 0 0 0 0 0 0 0.01 0.01 0 0 0 0.02 0 0 0.01 0.01 0 0 0.01 0.03 0 0 0 0.08 0 0 0 0.03 0 0 -0.01 0.01 0 0 -0.01 0.01 0 0 0 0.02 0 0 -0.01 0 0 0 0 0.01 0 0 -0.01 0.01 0 0 0 0 0 0 -0.01 0.01 0 0 -0.01 0.01 0 0 0 0.01 0 0 -0.01 0 0 0 -0.01 0.01 0 0 0 0.01 0 0 -0.01 0 0 0 -0.01 0.01 0 0 -0.01 0 0 0 -0.01 0.01 0 0 -0.01 0 0 0 -0.01 0.01 0 0 -0.02 0.01 0 0 -0.02 0 0 0 -0.08 0 0 0 -0.03 -0.01 0 0 -0.01 -0.01 0 0 -0.02 0 0 0 -0.01 -0.01 0 0 -0.01 0 0 0 0 -0.01 0 0 -0.02 0 0 0 0 -0.01 0 0 -0.01 -0.01 0 0 0 0 0 0 -0.01 -0.01 0 0 0 0 0 0 -0.01 -0.01 0 0 -0.01 -0.01 0 0 0 0 0 0 -0.01 -0.01 0 0 0 -0.01 0 0 -0.01 -0.01 0 0 0 -0.01 0 0 -0.01 -0.01 0 0 -0.01 -0.01 0 0 0 -0.03 0 0 -0.01 -0.08 0 0 0.01z"/>
   <polygon fill="white" points="4.9,0.24 4.95,0.24 4.95,0.62 4.9,0.62 4.9,0.65 5.27,0.65 5.27,0.61 5.28,0.61 5.28,0.5 5.26,0.5 5.26,0.51 5.25,0.51 5.25,0.53 5.25,0.53 5.25,0.54 5.24,0.54 5.24,0.55 5.24,0.55 5.24,0.57 5.23,0.57 5.23,0.58 5.23,0.58 5.23,0.58 5.22,0.58 5.22,0.59 5.21,0.59 5.21,0.59 5.21,0.59 5.21,0.6 5.2,0.6 5.2,0.61 5.19,0.61 5.19,0.61 5.18,0.61 5.18,0.62 5.16,0.62 5.16,0.62 5.06,0.62 5.06,0.43 5.09,0.43 5.09,0.44 5.11,0.44 5.11,0.44 5.12,0.44 5.12,0.45 5.13,0.45 5.13,0.46 5.13,0.46 5.13,0.46 5.14,0.46 5.14,0.48 5.14,0.48 5.14,0.5 5.15,0.5 5.15,0.51 5.17,0.51 5.17,0.33 5.15,0.33 5.15,0.34 5.14,0.34 5.14,0.36 5.14,0.36 5.14,0.38 5.13,0.38 5.13,0.39 5.13,0.39 5.13,0.39 5.12,0.39 5.12,0.4 5.11,0.4 5.11,0.4 5.09,0.4 5.09,0.41 5.06,0.41 5.06,0.24 5.16,0.24 5.16,0.24 5.18,0.24 5.18,0.25 5.19,0.25 5.19,0.25 5.2,0.25 5.2,0.26 5.2,0.26 5.2,0.27 5.21,0.27 5.21,0.27 5.21,0.27 5.21,0.28 5.22,0.28 5.22,0.29 5.23,0.29 5.23,0.3 5.23,0.3 5.23,0.31 5.24,0.31 5.24,0.32 5.24,0.32 5.24,0.33 5.26,0.33 5.26,0.21 4.9,0.21 "/>
   <polygon fill="white" points="4.03,0.24 4.08,0.24 4.08,0.62 4.03,0.62 4.03,0.65 4.25,0.65 4.25,0.62 4.19,0.62 4.19,0.43 4.23,0.43 4.23,0.44 4.24,0.44 4.24,0.44 4.25,0.44 4.25,0.45 4.26,0.45 4.26,0.46 4.27,0.46 4.27,0.46 4.27,0.46 4.27,0.48 4.28,0.48 4.28,0.5 4.28,0.5 4.28,0.51 4.3,0.51 4.3,0.33 4.28,0.33 4.28,0.34 4.28,0.34 4.28,0.36 4.27,0.36 4.27,0.38 4.27,0.38 4.27,0.39 4.26,0.39 4.26,0.39 4.25,0.39 4.25,0.4 4.24,0.4 4.24,0.4 4.23,0.4 4.23,0.41 4.19,0.41 4.19,0.24 4.28,0.24 4.28,0.24 4.31,0.24 4.31,0.25 4.32,0.25 4.32,0.25 4.33,0.25 4.33,0.26 4.34,0.26 4.34,0.27 4.35,0.27 4.35,0.28 4.35,0.28 4.35,0.28 4.36,0.28 4.36,0.29 4.36,0.29 4.36,0.31 4.37,0.31 4.37,0.32 4.38,0.32 4.38,0.33 4.38,0.33 4.38,0.34 4.4,0.34 4.4,0.21 4.03,0.21 "/>
   <polygon fill="white" points="2.63,0.25 2.62,0.25 2.62,0.35 2.64,0.35 2.64,0.35 2.65,0.35 2.65,0.33 2.65,0.33 2.65,0.31 2.66,0.31 2.66,0.3 2.66,0.3 2.66,0.29 2.67,0.29 2.67,0.28 2.68,0.28 2.68,0.27 2.68,0.27 2.68,0.27 2.69,0.27 2.69,0.26 2.69,0.26 2.69,0.25 2.7,0.25 2.7,0.25 2.71,0.25 2.71,0.24 2.73,0.24 2.73,0.24 2.77,0.24 2.77,0.62 2.72,0.62 2.72,0.65 2.94,0.65 2.94,0.62 2.88,0.62 2.88,0.24 2.93,0.24 2.93,0.24 2.95,0.24 2.95,0.25 2.96,0.25 2.96,0.25 2.97,0.25 2.97,0.26 2.97,0.26 2.97,0.27 2.98,0.27 2.98,0.27 2.98,0.27 2.98,0.28 2.99,0.28 2.99,0.29 2.99,0.29 2.99,0.3 3,0.3 3,0.31 3.01,0.31 3.01,0.33 3.01,0.33 3.01,0.35 3.02,0.35 3.02,0.35 3.03,0.35 3.03,0.26 3.03,0.26 3.03,0.21 2.63,0.21 "/>
   <polygon fill="white" points="1.23,0.25 1.22,0.25 1.22,0.35 1.24,0.35 1.24,0.35 1.24,0.35 1.24,0.33 1.25,0.33 1.25,0.31 1.25,0.31 1.25,0.3 1.26,0.3 1.26,0.29 1.27,0.29 1.27,0.28 1.27,0.28 1.27,0.27 1.28,0.27 1.28,0.27 1.28,0.27 1.28,0.26 1.29,0.26 1.29,0.25 1.29,0.25 1.29,0.25 1.31,0.25 1.31,0.24 1.32,0.24 1.32,0.24 1.37,0.24 1.37,0.62 1.32,0.62 1.32,0.65 1.53,0.65 1.53,0.62 1.48,0.62 1.48,0.24 1.53,0.24 1.53,0.24 1.54,0.24 1.54,0.25 1.55,0.25 1.55,0.25 1.56,0.25 1.56,0.26 1.57,0.26 1.57,0.27 1.57,0.27 1.57,0.27 1.58,0.27 1.58,0.28 1.58,0.28 1.58,0.29 1.59,0.29 1.59,0.3 1.6,0.3 1.6,0.31 1.6,0.31 1.6,0.33 1.61,0.33 1.61,0.35 1.61,0.35 1.61,0.35 1.63,0.35 1.63,0.26 1.62,0.26 1.62,0.21 1.23,0.21 "/>
   <polygon fill="white" points="3.57,0.21 3.55,0.21 3.55,0.21 3.54,0.21 3.54,0.22 3.53,0.22 3.53,0.23 3.52,0.23 3.52,0.23 3.51,0.23 3.51,0.24 3.51,0.24 3.51,0.24 3.5,0.24 3.5,0.25 3.5,0.25 3.5,0.25 3.49,0.25 3.49,0.26 3.49,0.26 3.49,0.27 3.48,0.27 3.48,0.28 3.47,0.28 3.47,0.3 3.47,0.3 3.47,0.38 3.47,0.38 3.47,0.39 3.48,0.39 3.48,0.4 3.49,0.4 3.49,0.42 3.49,0.42 3.49,0.42 3.5,0.42 3.5,0.43 3.5,0.43 3.5,0.43 3.51,0.43 3.51,0.44 3.52,0.44 3.52,0.44 3.53,0.44 3.53,0.45 3.54,0.45 3.54,0.46 3.55,0.46 3.55,0.46 3.57,0.46 3.57,0.47 3.58,0.47 3.58,0.47 3.61,0.47 3.61,0.48 3.64,0.48 3.64,0.48 3.65,0.48 3.65,0.49 3.67,0.49 3.67,0.5 3.69,0.5 3.69,0.5 3.69,0.5 3.69,0.51 3.7,0.51 3.7,0.51 3.71,0.51 3.71,0.52 3.71,0.52 3.71,0.54 3.72,0.54 3.72,0.57 3.71,0.57 3.71,0.58 3.71,0.58 3.71,0.59 3.7,0.59 3.7,0.6 3.69,0.6 3.69,0.61 3.68,0.61 3.68,0.61 3.68,0.61 3.68,0.62 3.66,0.62 3.66,0.62 3.64,0.62 3.64,0.63 3.6,0.63 3.6,0.62 3.57,0.62 3.57,0.62 3.56,0.62 3.56,0.61 3.54,0.61 3.54,0.61 3.54,0.61 3.54,0.6 3.53,0.6 3.53,0.59 3.53,0.59 3.53,0.59 3.52,0.59 3.52,0.58 3.51,0.58 3.51,0.58 3.51,0.58 3.51,0.57 3.5,0.57 3.5,0.56 3.5,0.56 3.5,0.54 3.49,0.54 3.49,0.53 3.49,0.53 3.49,0.53 3.47,0.53 3.47,0.65 3.49,0.65 3.49,0.65 3.5,0.65 3.5,0.64 3.5,0.64 3.5,0.63 3.51,0.63 3.51,0.63 3.51,0.63 3.51,0.62 3.53,0.62 3.53,0.63 3.54,0.63 3.54,0.63 3.55,0.63 3.55,0.64 3.56,0.64 3.56,0.65 3.58,0.65 3.58,0.65 3.66,0.65 3.66,0.65 3.68,0.65 3.68,0.64 3.69,0.64 3.69,0.63 3.7,0.63 3.7,0.63 3.71,0.63 3.71,0.62 3.72,0.62 3.72,0.62 3.72,0.62 3.72,0.61 3.73,0.61 3.73,0.61 3.73,0.61 3.73,0.6 3.74,0.6 3.74,0.59 3.75,0.59 3.75,0.58 3.75,0.58 3.75,0.57 3.76,0.57 3.76,0.56 3.76,0.56 3.76,0.54 3.77,0.54 3.77,0.46 3.76,0.46 3.76,0.44 3.76,0.44 3.76,0.43 3.75,0.43 3.75,0.42 3.75,0.42 3.75,0.4 3.74,0.4 3.74,0.4 3.73,0.4 3.73,0.39 3.73,0.39 3.73,0.39 3.72,0.39 3.72,0.38 3.71,0.38 3.71,0.38 3.7,0.38 3.7,0.37 3.69,0.37 3.69,0.36 3.67,0.36 3.67,0.36 3.66,0.36 3.66,0.35 3.64,0.35 3.64,0.35 3.61,0.35 3.61,0.34 3.59,0.34 3.59,0.33 3.57,0.33 3.57,0.33 3.56,0.33 3.56,0.32 3.54,0.32 3.54,0.32 3.54,0.32 3.54,0.31 3.53,0.31 3.53,0.31 3.53,0.31 3.53,0.29 3.52,0.29 3.52,0.27 3.53,0.27 3.53,0.26 3.53,0.26 3.53,0.25 3.54,0.25 3.54,0.25 3.54,0.25 3.54,0.24 3.55,0.24 3.55,0.24 3.56,0.24 3.56,0.23 3.58,0.23 3.58,0.23 3.63,0.23 3.63,0.23 3.65,0.23 3.65,0.24 3.66,0.24 3.66,0.24 3.67,0.24 3.67,0.25 3.68,0.25 3.68,0.25 3.69,0.25 3.69,0.26 3.69,0.26 3.69,0.27 3.7,0.27 3.7,0.28 3.71,0.28 3.71,0.29 3.71,0.29 3.71,0.3 3.72,0.3 3.72,0.32 3.72,0.32 3.72,0.32 3.74,0.32 3.74,0.21 3.71,0.21 3.71,0.22 3.71,0.22 3.71,0.23 3.7,0.23 3.7,0.23 3.69,0.23 3.69,0.23 3.68,0.23 3.68,0.22 3.68,0.22 3.68,0.21 3.66,0.21 3.66,0.21 3.64,0.21 3.64,0.2 3.57,0.2 "/>
   <polygon fill="white" points="5.44,0.21 5.42,0.21 5.42,0.21 5.41,0.21 5.41,0.22 5.4,0.22 5.4,0.23 5.39,0.23 5.39,0.23 5.39,0.23 5.39,0.24 5.38,0.24 5.38,0.24 5.38,0.24 5.38,0.25 5.37,0.25 5.37,0.25 5.36,0.25 5.36,0.26 5.36,0.26 5.36,0.27 5.35,0.27 5.35,0.28 5.35,0.28 5.35,0.3 5.34,0.3 5.34,0.38 5.35,0.38 5.35,0.39 5.35,0.39 5.35,0.4 5.36,0.4 5.36,0.42 5.36,0.42 5.36,0.42 5.37,0.42 5.37,0.43 5.38,0.43 5.38,0.43 5.38,0.43 5.38,0.44 5.39,0.44 5.39,0.44 5.4,0.44 5.4,0.45 5.41,0.45 5.41,0.46 5.42,0.46 5.42,0.46 5.44,0.46 5.44,0.47 5.46,0.47 5.46,0.47 5.48,0.47 5.48,0.48 5.51,0.48 5.51,0.48 5.53,0.48 5.53,0.49 5.54,0.49 5.54,0.5 5.56,0.5 5.56,0.5 5.57,0.5 5.57,0.51 5.57,0.51 5.57,0.51 5.58,0.51 5.58,0.52 5.58,0.52 5.58,0.54 5.59,0.54 5.59,0.57 5.58,0.57 5.58,0.58 5.58,0.58 5.58,0.59 5.57,0.59 5.57,0.6 5.57,0.6 5.57,0.61 5.56,0.61 5.56,0.61 5.55,0.61 5.55,0.62 5.54,0.62 5.54,0.62 5.51,0.62 5.51,0.63 5.47,0.63 5.47,0.62 5.45,0.62 5.45,0.62 5.43,0.62 5.43,0.61 5.42,0.61 5.42,0.61 5.41,0.61 5.41,0.6 5.41,0.6 5.41,0.59 5.4,0.59 5.4,0.59 5.39,0.59 5.39,0.58 5.39,0.58 5.39,0.58 5.38,0.58 5.38,0.57 5.38,0.57 5.38,0.56 5.37,0.56 5.37,0.54 5.36,0.54 5.36,0.53 5.36,0.53 5.36,0.53 5.34,0.53 5.34,0.65 5.36,0.65 5.36,0.65 5.37,0.65 5.37,0.64 5.38,0.64 5.38,0.63 5.38,0.63 5.38,0.63 5.39,0.63 5.39,0.62 5.41,0.62 5.41,0.63 5.41,0.63 5.41,0.63 5.42,0.63 5.42,0.64 5.43,0.64 5.43,0.65 5.46,0.65 5.46,0.65 5.53,0.65 5.53,0.65 5.55,0.65 5.55,0.64 5.57,0.64 5.57,0.63 5.57,0.63 5.57,0.63 5.58,0.63 5.58,0.62 5.59,0.62 5.59,0.62 5.6,0.62 5.6,0.61 5.6,0.61 5.6,0.61 5.61,0.61 5.61,0.6 5.61,0.6 5.61,0.59 5.62,0.59 5.62,0.58 5.62,0.58 5.62,0.57 5.63,0.57 5.63,0.56 5.64,0.56 5.64,0.54 5.64,0.54 5.64,0.46 5.64,0.46 5.64,0.44 5.63,0.44 5.63,0.43 5.62,0.43 5.62,0.42 5.62,0.42 5.62,0.4 5.61,0.4 5.61,0.4 5.61,0.4 5.61,0.39 5.6,0.39 5.6,0.39 5.59,0.39 5.59,0.38 5.58,0.38 5.58,0.38 5.57,0.38 5.57,0.37 5.56,0.37 5.56,0.36 5.54,0.36 5.54,0.36 5.53,0.36 5.53,0.35 5.51,0.35 5.51,0.35 5.49,0.35 5.49,0.34 5.46,0.34 5.46,0.33 5.44,0.33 5.44,0.33 5.43,0.33 5.43,0.32 5.42,0.32 5.42,0.32 5.41,0.32 5.41,0.31 5.41,0.31 5.41,0.31 5.4,0.31 5.4,0.29 5.39,0.29 5.39,0.27 5.4,0.27 5.4,0.26 5.41,0.26 5.41,0.25 5.41,0.25 5.41,0.25 5.42,0.25 5.42,0.24 5.42,0.24 5.42,0.24 5.43,0.24 5.43,0.23 5.46,0.23 5.46,0.23 5.5,0.23 5.5,0.23 5.52,0.23 5.52,0.24 5.54,0.24 5.54,0.24 5.54,0.24 5.54,0.25 5.56,0.25 5.56,0.25 5.56,0.25 5.56,0.26 5.57,0.26 5.57,0.27 5.57,0.27 5.57,0.28 5.58,0.28 5.58,0.29 5.58,0.29 5.58,0.3 5.59,0.3 5.59,0.32 5.6,0.32 5.6,0.32 5.61,0.32 5.61,0.21 5.58,0.21 5.58,0.22 5.58,0.22 5.58,0.23 5.57,0.23 5.57,0.23 5.57,0.23 5.57,0.23 5.56,0.23 5.56,0.22 5.55,0.22 5.55,0.21 5.53,0.21 5.53,0.21 5.51,0.21 5.51,0.2 5.44,0.2 "/>
   <path fill="white" d="M3.12 0.5l0.01 0 0 -0.02 0 0 0 -0.01 0.01 0 0 -0.02 0 0 0 -0.01 0.01 0 0 -0.02 0.01 0 0 -0.01 0 0 0 -0.02 0.01 0 0 -0.01 0 0 0 -0.02 0.01 0 0 0 0.01 0 0 0.02 0 0 0 0.01 0.01 0 0 0.01 0 0 0 0.02 0.01 0 0 0.01 0 0 0 0.02 0.01 0 0 0.02 0.01 0 0 0.01 0 0 0 0.02 0.01 0 0 0 -0.12 0 0 0zm0.09 -0.28l-0.01 0 0 0.02 0 0 0 0.01 -0.01 0 0 0.02 0 0 0 0.01 -0.01 0 0 0.01 -0.01 0 0 0.02 0 0 0 0.01 -0.01 0 0 0.02 0 0 0 0.02 -0.01 0 0 0.01 -0.01 0 0 0.02 0 0 0 0.01 -0.01 0 0 0.02 0 0 0 0.01 -0.01 0 0 0.01 0 0 0 0.02 -0.01 0 0 0.02 -0.01 0 0 0.01 0 0 0 0.02 -0.01 0 0 0.02 0 0 0 0.01 -0.01 0 0 0.01 0 0 0 0.02 -0.01 0 0 0.01 -0.01 0 0 0.02 0 0 0 0.01 -0.01 0 0 0.01 -0.01 0 0 0 -0.03 0 0 0.03 0.13 0 0 -0.03 -0.05 0 0 0 0 0 0 -0.01 -0.01 0 0 0 0.01 0 0 -0.02 0 0 0 -0.02 0.01 0 0 -0.01 0 0 0 -0.02 0.01 0 0 -0.01 0.01 0 0 0 0.12 0 0 0 0.01 0 0 0.02 0 0 0 0.01 0.01 0 0 0.02 0.01 0 0 0.01 0 0 0 0.02 0.01 0 0 0.01 -0.05 0 0 0.03 0.21 0 0 -0.03 -0.04 0 0 -0.01 -0.01 0 0 -0.02 0 0 0 -0.01 -0.01 0 0 -0.02 0 0 0 -0.01 -0.01 0 0 -0.02 -0.01 0 0 -0.01 0 0 0 -0.02 -0.01 0 0 -0.02 0 0 0 -0.01 -0.01 0 0 -0.01 0 0 0 -0.02 -0.01 0 0 -0.01 -0.01 0 0 -0.02 0 0 0 -0.01 -0.01 0 0 -0.02 0 0 0 -0.02 -0.01 0 0 -0.01 0 0 0 -0.02 -0.01 0 0 -0.01 -0.01 0 0 -0.01 0 0 0 -0.02 -0.01 0 0 -0.01 0 0 0 -0.02 -0.01 0 0 -0.01 -0.01 0 0 -0.02 0 0 0 -0.02 -0.01 0 0 -0.01 -0.03 0 0 0.02z"/>
   <path fill="white" d="M6.04 0.5l0.01 0 0 -0.02 0 0 0 -0.01 0.01 0 0 -0.02 0 0 0 -0.01 0.01 0 0 -0.02 0.01 0 0 -0.01 0 0 0 -0.02 0.01 0 0 -0.01 0 0 0 -0.02 0.01 0 0 0 0 0 0 0.02 0.01 0 0 0.01 0.01 0 0 0.01 0 0 0 0.02 0.01 0 0 0.01 0 0 0 0.02 0.01 0 0 0.02 0 0 0 0.01 0.01 0 0 0.02 0.01 0 0 0 -0.12 0 0 0zm0.09 -0.28l-0.01 0 0 0.02 0 0 0 0.01 -0.01 0 0 0.02 -0.01 0 0 0.01 0 0 0 0.01 -0.01 0 0 0.02 0 0 0 0.01 -0.01 0 0 0.02 0 0 0 0.02 -0.01 0 0 0.01 -0.01 0 0 0.02 0 0 0 0.01 -0.01 0 0 0.02 0 0 0 0.01 -0.01 0 0 0.01 0 0 0 0.02 -0.01 0 0 0.02 -0.01 0 0 0.01 0 0 0 0.02 -0.01 0 0 0.02 0 0 0 0.01 -0.01 0 0 0.01 -0.01 0 0 0.02 0 0 0 0.01 -0.01 0 0 0.02 0 0 0 0.01 -0.01 0 0 0.01 -0.01 0 0 0 -0.03 0 0 0.03 0.13 0 0 -0.03 -0.05 0 0 0 0 0 0 -0.01 -0.01 0 0 0 0.01 0 0 -0.02 0 0 0 -0.02 0.01 0 0 -0.01 0 0 0 -0.02 0.01 0 0 -0.01 0.01 0 0 0 0.12 0 0 0 0.01 0 0 0.02 0 0 0 0.01 0.01 0 0 0.02 0.01 0 0 0.01 0 0 0 0.02 0.01 0 0 0.01 -0.05 0 0 0.03 0.21 0 0 -0.03 -0.04 0 0 -0.01 -0.01 0 0 -0.02 0 0 0 -0.01 -0.01 0 0 -0.02 0 0 0 -0.01 -0.01 0 0 -0.02 -0.01 0 0 -0.01 0 0 0 -0.02 -0.01 0 0 -0.02 0 0 0 -0.01 -0.01 0 0 -0.01 -0.01 0 0 -0.02 0 0 0 -0.01 -0.01 0 0 -0.02 0 0 0 -0.01 -0.01 0 0 -0.02 0 0 0 -0.02 -0.01 0 0 -0.01 -0.01 0 0 -0.02 0 0 0 -0.01 -0.01 0 0 -0.01 0 0 0 -0.02 -0.01 0 0 -0.01 0 0 0 -0.02 -0.01 0 0 -0.01 -0.01 0 0 -0.02 0 0 0 -0.02 -0.01 0 0 -0.01 -0.03 0 0 0.02z"/>
   <path fill="white" d="M0.23 0.23l0 -0.01 0.01 0 0 0.01 -0.01 0zm0.02 -0.02l0 0 0 0.01 0 0 0 -0.01zm-0.02 0.02l0 0 -0.02 0 0 0.01 -0.03 0 0 0 -0.04 0 0 0 -0.03 0 0 -0.01 -0.02 0 0 0 -0.01 0 0 -0.01 -0.01 0 0 -0.01 -0.01 0 0 0 -0.01 0 0 -0.01 0 0 0 0 0.01 0 0 0 0.01 0 0 0.01 0.02 0 0 0 0.02 0 0 0.01 0.02 0 0 0.01 0.1 0zm-0.2 -0.04l0.01 0 0 0.01 -0.01 0 0 -0.01zm0.02 -0.02l0.02 0 0 0 0.02 0 0 0.01 0.05 0 0 0 0.06 0 0 0 0.05 0 0 -0.01 0.02 0 0 0 0.02 0 0 0 -0.01 0 0 0.01 -0.01 0 0 0 -0.02 0 0 0.01 -0.02 0 0 0.01 -0.02 0 0 0 -0.03 0 0 0.01 -0.05 0 0 -0.01 -0.02 0 0 0 -0.02 0 0 -0.01 -0.01 0 0 -0.01 -0.01 0 0 0 -0.01 0 0 -0.01 -0.01 0 0 0zm0.24 -0.01l0.01 0 0 0.01 -0.01 0 0 -0.01zm-0.24 0.01l-0.01 0 0 -0.01 0.01 0 0 0.01zm-0.02 -0.01l0 0 0 0 0 0 0 0zm-0.01 -0.03l0.01 0 0 -0.01 0.02 0 0 0 0.01 0 0 -0.01 0.03 0 0 -0.01 0.03 0 0 0 0.12 0 0 0 0.03 0 0 0.01 0.02 0 0 0.01 0.02 0 0 0 0.01 0 0 0.01 0.01 0 0 0 -0.01 0 0 0.01 -0.01 0 0 0 -0.02 0 0 0.01 -0.02 0 0 0.01 -0.03 0 0 0 -0.04 0 0 0.01 -0.06 0 0 -0.01 -0.04 0 0 0 -0.02 0 0 -0.01 -0.02 0 0 -0.01 -0.02 0 0 0 -0.01 0 0 -0.01 -0.01 0 0 0zm0.28 -0.04l0.01 0 0 0.01 -0.01 0 0 -0.01zm-0.25 0l0 0.01 -0.02 0 0 -0.01 0.02 0zm0 0l0 0 0.01 0 0 -0.01 0 0 0 0 0.02 0 0 -0.01 0.01 0 0 -0.01 0.01 0 0 0 0.03 0 0 -0.01 0.07 0 0 0.01 0.02 0 0 0 0.02 0 0 0.01 0.01 0 0 0.01 0.02 0 0 0 0.01 0 0 0.01 0.01 0 0 0 -0.01 0 0 0 -0.03 0 0 -0.01 -0.03 0 0 0 -0.1 0 0 0 -0.03 0 0 0.01 -0.03 0 0 0 -0.01 0zm-0.02 -0.02l0 0.01 0 0 0 -0.01 0 0zm0 0l0 -0.01 0.01 0 0 0.01 -0.01 0zm0.22 -0.03l0 0 0 0.01 0 0 0 -0.01zm-0.11 0l-0.03 0 0 0.01 -0.02 0 0 0 -0.02 0 0 0.01 -0.01 0 0 0 -0.01 0 0 0 0 0 0 -0.01 0.01 0 0 0 0.01 0 0 -0.01 0.01 0 0 -0.01 0.01 0 0 0 0.02 0 0 -0.01 0.03 0 0 0 0.04 0 0 0 0.03 0 0 0.01 0.02 0 0 0 0.01 0 0 0.01 -0.02 0 0 -0.01 -0.08 0 0 0.01zm0.33 0.12l0 -0.08 -0.05 0 0 0.01 -0.02 0 0 0 -0.02 0 0 0 -0.02 0 0 -0.01 0 0 0 0 -0.01 0 0 -0.01 -0.01 0 0 -0.01 -0.01 0 0 0 -0.01 0 0 -0.01 -0.01 0 0 0 -0.02 0 0 -0.01 0 0 0 -0.01 -0.01 0 0 0 -0.01 0 0 -0.01 -0.02 0 0 0 -0.01 0 0 -0.01 -0.02 0 0 0 -0.02 0 0 -0.01 -0.1 0 0 0.01 -0.02 0 0 0 -0.02 0 0 0.01 -0.01 0 0 0 -0.01 0 0 0.01 -0.01 0 0 0 0 0 0 0.01 -0.01 0 0 0.01 0 0 0 0.01 -0.01 0 0 0.01 0 0 0 0.01 -0.01 0 0 0.09 0.01 0 0 0.02 0 0 0 0.01 0.01 0 0 0.01 0 0 0 0 0.01 0 0 0.01 0 0 0 0.01 0.01 0 0 0 0.01 0 0 0.01 0.01 0 0 0 0.02 0 0 0.01 0.02 0 0 0 0.03 0 0 0.01 0.07 0 0 -0.01 0.02 0 0 0 0.02 0 0 -0.01 0.01 0 0 0 0.01 0 0 -0.01 0.01 0 0 0 0.01 0 0 -0.01 0.01 0 0 -0.01 0.02 0 0 0 0.01 0 0 -0.01 0 0 0 0 0.02 0 0 -0.01 0.01 0 0 -0.01 0.01 0 0 0 0.01 0 0 -0.01 0.01 0 0 0 0.01 0 0 -0.01 0.08 0z"/>
   <polygon fill="white" points="5.7,0.24 5.75,0.24 5.75,0.62 5.7,0.62 5.7,0.65 5.91,0.65 5.91,0.62 5.86,0.62 5.86,0.24 5.91,0.24 5.91,0.21 5.7,0.21 "/>
   <polygon fill="white" points="1.02,1.07 1.04,1.07 1.04,0 1.02,0 "/>
   <path fill="white" d="M4.57 0.89l-0.01 0 0 0.01 -0.04 0 0 -0.07 0.04 0 0 0 0.01 0 0 0.01 0.01 0 0 0.04 -0.01 0 0 0.01zm-0.12 -0.06l0.02 0 0 0.17 -0.02 0 0 0.02 0.09 0 0 -0.02 -0.02 0 0 -0.09 0.02 0 0 0.01 0.02 0 0 0 0.01 0 0 0.02 0 0 0 0.05 0.01 0 0 0.01 0 0 0 0 0.01 0 0 0.01 0.01 0 0 0.01 0.05 0 0 -0.01 0 0 0 -0.01 -0.02 0 0 0 -0.01 0 0 -0.05 0 0 0 -0.01 -0.01 0 0 -0.02 -0.01 0 0 0 0 0 0 -0.01 -0.02 0 0 0 0.02 0 0 -0.01 0.01 0 0 -0.01 0 0 0 0 0.01 0 0 -0.01 0.01 0 0 -0.04 -0.01 0 0 -0.01 0 0 0 0 -0.01 0 0 -0.01 -0.01 0 0 -0.01 -0.15 0 0 0.02z"/>
   <polygon fill="white" points="0.53,0.08 0.53,0.16 0.75,0.16 0.75,0.16 0.76,0.16 0.76,0.15 0.76,0.15 0.76,0.14 0.77,0.14 0.77,0.13 0.77,0.13 0.77,0.12 0.77,0.12 0.77,0.1 0.76,0.1 0.76,0.09 0.76,0.09 0.76,0.09 0.74,0.09 0.74,0.08 "/>
   <polygon fill="white" points="0.18,0.28 0.17,0.28 0.17,0.29 0.16,0.29 0.16,0.29 0.15,0.29 0.15,0.31 0.14,0.31 0.14,0.31 0.14,0.31 0.14,0.32 0.13,0.32 0.13,0.38 0.14,0.38 0.14,0.39 0.14,0.39 0.14,0.4 0.15,0.4 0.15,0.4 0.16,0.4 0.16,0.41 0.16,0.41 0.16,0.42 0.17,0.42 0.17,0.42 0.18,0.42 0.18,0.43 0.24,0.43 0.24,0.42 0.25,0.42 0.25,0.42 0.25,0.42 0.25,0.41 0.26,0.41 0.26,0.4 0.27,0.4 0.27,0.4 0.27,0.4 0.27,0.39 0.28,0.39 0.28,0.38 0.28,0.38 0.28,0.32 0.28,0.32 0.28,0.31 0.27,0.31 0.27,0.31 0.27,0.31 0.27,0.29 0.25,0.29 0.25,0.29 0.25,0.29 0.25,0.28 0.24,0.28 0.24,0.28 0.18,0.28 "/>
   <polygon fill="white" points="3.53,0.83 3.55,0.83 3.55,1 3.53,1 3.53,1.02 3.71,1.02 3.71,0.95 3.69,0.95 3.69,0.95 3.69,0.95 3.69,0.97 3.68,0.97 3.68,0.98 3.68,0.98 3.68,0.99 3.67,0.99 3.67,0.99 3.66,0.99 3.66,1 3.65,1 3.65,1 3.6,1 3.6,0.92 3.62,0.92 3.62,0.92 3.64,0.92 3.64,0.93 3.64,0.93 3.64,0.95 3.65,0.95 3.65,0.96 3.66,0.96 3.66,0.87 3.65,0.87 3.65,0.88 3.64,0.88 3.64,0.89 3.64,0.89 3.64,0.9 3.62,0.9 3.62,0.91 3.6,0.91 3.6,0.83 3.65,0.83 3.65,0.83 3.66,0.83 3.66,0.84 3.67,0.84 3.67,0.84 3.68,0.84 3.68,0.85 3.68,0.85 3.68,0.86 3.69,0.86 3.69,0.87 3.7,0.87 3.7,0.81 3.53,0.81 "/>
   <polygon fill="white" points="4.13,0.83 4.16,0.83 4.16,1 4.13,1 4.13,1.02 4.31,1.02 4.31,0.95 4.3,0.95 4.3,0.95 4.3,0.95 4.3,0.97 4.29,0.97 4.29,0.98 4.28,0.98 4.28,0.99 4.28,0.99 4.28,0.99 4.27,0.99 4.27,1 4.26,1 4.26,1 4.21,1 4.21,0.92 4.23,0.92 4.23,0.92 4.24,0.92 4.24,0.93 4.25,0.93 4.25,0.95 4.25,0.95 4.25,0.96 4.27,0.96 4.27,0.87 4.25,0.87 4.25,0.88 4.25,0.88 4.25,0.89 4.24,0.89 4.24,0.9 4.23,0.9 4.23,0.91 4.21,0.91 4.21,0.83 4.26,0.83 4.26,0.83 4.27,0.83 4.27,0.84 4.28,0.84 4.28,0.84 4.28,0.84 4.28,0.85 4.29,0.85 4.29,0.86 4.3,0.86 4.3,0.87 4.31,0.87 4.31,0.81 4.13,0.81 "/>
   <path fill="white" d="M2.47 0.91l-0.02 0 0 0 -0.04 0 0 -0.08 0.04 0 0 0 0.02 0 0 0.02 0 0 0 0.04 0 0 0 0.02zm-0.13 -0.08l0.02 0 0 0.17 -0.02 0 0 0.02 0.09 0 0 -0.02 -0.02 0 0 -0.08 0.06 0 0 0 0.02 0 0 -0.01 0.01 0 0 0 0.01 0 0 -0.01 0.01 0 0 -0.01 0.01 0 0 -0.04 -0.01 0 0 -0.01 -0.01 0 0 -0.01 0 0 0 0 -0.01 0 0 -0.01 -0.02 0 0 -0.01 -0.14 0 0 0.02z"/>
   <polygon fill="white" points="3.21,0.88 3.22,0.88 3.22,0.87 3.23,0.87 3.23,0.85 3.23,0.85 3.23,0.84 3.24,0.84 3.24,0.84 3.24,0.84 3.24,0.83 3.25,0.83 3.25,0.83 3.28,0.83 3.28,1 3.25,1 3.25,1.02 3.35,1.02 3.35,1 3.33,1 3.33,0.83 3.35,0.83 3.35,0.83 3.36,0.83 3.36,0.84 3.37,0.84 3.37,0.84 3.38,0.84 3.38,0.85 3.38,0.85 3.38,0.87 3.39,0.87 3.39,0.88 3.4,0.88 3.4,0.81 3.21,0.81 "/>
   <polygon fill="white" points="2.98,0.81 2.97,0.81 2.97,0.82 2.96,0.82 2.96,0.83 2.95,0.83 2.95,0.83 2.95,0.83 2.95,0.84 2.94,0.84 2.94,0.85 2.94,0.85 2.94,0.89 2.94,0.89 2.94,0.91 2.95,0.91 2.95,0.91 2.95,0.91 2.95,0.92 2.96,0.92 2.96,0.92 2.97,0.92 2.97,0.93 2.99,0.93 2.99,0.94 3.01,0.94 3.01,0.94 3.03,0.94 3.03,0.95 3.05,0.95 3.05,0.95 3.05,0.95 3.05,0.96 3.06,0.96 3.06,0.98 3.05,0.98 3.05,0.99 3.05,0.99 3.05,0.99 3.04,0.99 3.04,1 3.03,1 3.03,1 2.99,1 2.99,1 2.98,1 2.98,0.99 2.97,0.99 2.97,0.99 2.97,0.99 2.97,0.98 2.96,0.98 2.96,0.98 2.95,0.98 2.95,0.96 2.95,0.96 2.95,0.96 2.94,0.96 2.94,1.02 2.95,1.02 2.95,1 2.97,1 2.97,1.01 2.98,1.01 2.98,1.02 3.03,1.02 3.03,1.01 3.05,1.01 3.05,1 3.06,1 3.06,1 3.06,1 3.06,0.99 3.07,0.99 3.07,0.98 3.08,0.98 3.08,0.97 3.08,0.97 3.08,0.92 3.08,0.92 3.08,0.91 3.07,0.91 3.07,0.9 3.06,0.9 3.06,0.89 3.05,0.89 3.05,0.89 3.04,0.89 3.04,0.88 3.03,0.88 3.03,0.88 3.01,0.88 3.01,0.87 2.98,0.87 2.98,0.87 2.97,0.87 2.97,0.86 2.97,0.86 2.97,0.85 2.96,0.85 2.96,0.84 2.97,0.84 2.97,0.83 2.97,0.83 2.97,0.83 2.99,0.83 2.99,0.82 3.02,0.82 3.02,0.83 3.03,0.83 3.03,0.83 3.04,0.83 3.04,0.84 3.05,0.84 3.05,0.85 3.05,0.85 3.05,0.86 3.06,0.86 3.06,0.87 3.07,0.87 3.07,0.81 3.05,0.81 3.05,0.82 3.04,0.82 3.04,0.81 3.03,0.81 3.03,0.81 2.98,0.81 "/>
   <path fill="white" d="M2.66 0.94l0.01 0 0 -0.02 0.01 0 0 -0.01 0 0 0 -0.02 0.01 0 0 -0.01 0 0 0 0.01 0.01 0 0 0.02 0.01 0 0 0.01 0 0 0 0.02 0.01 0 0 0.01 -0.06 0 0 -0.01zm0.05 -0.13l-0.01 0 0 0.02 -0.01 0 0 0.01 0 0 0 0.02 -0.01 0 0 0.01 0 0 0 0.02 -0.01 0 0 0.02 -0.01 0 0 0.01 0 0 0 0.02 -0.01 0 0 0.01 0 0 0 0.01 -0.01 0 0 0.02 0 0 0 0.01 -0.01 0 0 0.01 -0.01 0 0 0 -0.01 0 0 0.02 0.06 0 0 -0.02 -0.02 0 0 -0.02 0 0 0 -0.01 0.01 0 0 -0.01 0.06 0 0 0.01 0.01 0 0 0.02 0 0 0 0.01 0.01 0 0 0 -0.03 0 0 0.02 0.11 0 0 -0.02 -0.02 0 0 0 -0.01 0 0 -0.02 0 0 0 -0.01 -0.01 0 0 -0.02 -0.01 0 0 -0.01 0 0 0 -0.02 -0.01 0 0 -0.01 0 0 0 -0.02 -0.01 0 0 -0.01 0 0 0 -0.01 -0.01 0 0 -0.02 -0.01 0 0 -0.01 0 0 0 -0.02 -0.01 0 0 -0.01 -0.01 0 0 0z"/>
   <path fill="white" d="M5.05 0.94l0.01 0 0 -0.02 0 0 0 -0.01 0.01 0 0 -0.02 0.01 0 0 -0.01 0 0 0 0.01 0.01 0 0 0.02 0 0 0 0.01 0.01 0 0 0.02 0 0 0 0.01 -0.05 0 0 -0.01zm0.04 -0.13l0 0 0 0.02 -0.01 0 0 0.01 0 0 0 0.02 -0.01 0 0 0.01 -0.01 0 0 0.02 0 0 0 0.02 -0.01 0 0 0.01 0 0 0 0.02 -0.01 0 0 0.01 0 0 0 0.01 -0.01 0 0 0.02 -0.01 0 0 0.01 0 0 0 0.01 -0.01 0 0 0 -0.02 0 0 0.02 0.07 0 0 -0.02 -0.02 0 0 -0.02 0 0 0 -0.01 0.01 0 0 -0.01 0.06 0 0 0.01 0.01 0 0 0.02 0 0 0 0.01 0.01 0 0 0 -0.03 0 0 0.02 0.1 0 0 -0.02 -0.01 0 0 0 -0.01 0 0 -0.02 -0.01 0 0 -0.01 0 0 0 -0.02 -0.01 0 0 -0.01 0 0 0 -0.02 -0.01 0 0 -0.01 -0.01 0 0 -0.02 0 0 0 -0.01 -0.01 0 0 -0.01 0 0 0 -0.02 -0.01 0 0 -0.01 0 0 0 -0.02 -0.01 0 0 -0.01 -0.02 0 0 0z"/>
   <polygon fill="white" points="3.84,0.83 3.86,0.83 3.86,1 3.84,1 3.84,1.02 4.02,1.02 4.02,0.95 4.01,0.95 4.01,0.95 4,0.95 4,0.97 3.99,0.97 3.99,0.98 3.99,0.98 3.99,0.99 3.98,0.99 3.98,0.99 3.97,0.99 3.97,1 3.95,1 3.95,1 3.91,1 3.91,0.83 3.94,0.83 3.94,0.81 3.84,0.81 "/>
   <polygon fill="white" points="4.77,0.83 4.8,0.83 4.8,1 4.77,1 4.77,1.02 4.87,1.02 4.87,1 4.85,1 4.85,0.83 4.87,0.83 4.87,0.81 4.77,0.81 "/>
   <polygon fill="white" points="0.29,0.39 0.28,0.39 0.28,0.4 0.28,0.4 0.28,0.41 0.27,0.41 0.27,0.42 0.27,0.42 0.27,0.42 0.26,0.42 0.26,0.43 0.63,0.43 0.63,0.42 0.61,0.42 0.61,0.42 0.54,0.42 0.54,0.41 0.51,0.41 0.51,0.4 0.46,0.4 0.46,0.4 0.4,0.4 0.4,0.39 0.36,0.39 0.36,0.39 0.32,0.39 0.32,0.38 0.29,0.38 "/>
   <polygon fill="white" points="0.12,0.38 0.11,0.38 0.11,0.39 0.1,0.39 0.1,0.39 0.09,0.39 0.09,0.4 0.08,0.4 0.08,0.4 0.06,0.4 0.06,0.41 0.05,0.41 0.05,0.42 0.04,0.42 0.04,0.42 0.03,0.42 0.03,0.43 0.16,0.43 0.16,0.42 0.15,0.42 0.15,0.42 0.14,0.42 0.14,0.41 0.14,0.41 0.14,0.4 0.13,0.4 0.13,0.39 0.13,0.39 0.13,0.38 0.12,0.38 "/>
   <polygon fill="white" points="4.84,0.74 4.84,0.74 4.84,0.74 4.83,0.74 4.83,0.75 4.83,0.75 4.83,0.76 4.82,0.76 4.82,0.76 4.82,0.76 4.82,0.77 4.81,0.77 4.81,0.77 4.8,0.77 4.8,0.78 4.8,0.78 4.8,0.79 4.79,0.79 4.79,0.79 4.82,0.79 4.82,0.79 4.83,0.79 4.83,0.78 4.84,0.78 4.84,0.77 4.85,0.77 4.85,0.77 4.86,0.77 4.86,0.76 4.87,0.76 4.87,0.76 4.87,0.76 4.87,0.74 4.87,0.74 4.87,0.73 4.84,0.73 "/>
  </g>
 </g>
</svg>
