<?xml version="1.0" encoding="UTF-8"?>
<!DOCTYPE svg PUBLIC "-//W3C//DTD SVG 1.1//EN" "http://www.w3.org/Graphics/SVG/1.1/DTD/svg11.dtd">
<!-- Creator: CorelDRAW (Versión de evaluación) -->
<svg xmlns="http://www.w3.org/2000/svg" xml:space="preserve" width="125px" height="32px" version="1.1" shape-rendering="geometricPrecision" text-rendering="geometricPrecision" image-rendering="optimizeQuality" fill-rule="evenodd" clip-rule="evenodd"
viewBox="0 0 5.48 1.4"
 xmlns:xlink="http://www.w3.org/1999/xlink"
 xmlns:xodm="http://www.corel.com/coreldraw/odm/2003">
 <g id="Capa_x0020_1">
  <metadata id="CorelCorpID_0Corel-Layer"/>
  <g id="_2235975594448">
   <path fill="black" d="M1.47 0.95l-0.04 -0.01c-0.02,-0.08 0.05,-0.15 0.11,-0.18 0.02,-0.01 0.01,-0.02 0.03,-0.02 0.01,0.04 0.01,0.02 0.01,0.08 0,0.06 -0.05,0.13 -0.11,0.13zm4.01 -0.55l0 0.07c-0.01,0.08 -0.06,0.19 -0.16,0.28 -0.09,0.08 -0.27,0.17 -0.38,0.07 -0.03,-0.02 -0.03,-0.06 -0.05,-0.09 -0.01,0 -0.01,0.01 -0.02,0.01 -0.05,0.05 -0.14,0.12 -0.22,0.08 -0.06,-0.03 -0.05,-0.06 -0.06,-0.1l-0.09 0.08c-0.1,0.09 -0.22,0.04 -0.22,-0.08 -0.02,0.01 -0.03,0.01 -0.04,0.02l-0.11 0.06c-0.04,0.03 -0.1,0.06 -0.17,0.06 -0.08,0 -0.14,-0.05 -0.15,-0.12 -0.03,0.01 -0.06,0.04 -0.09,0.06 -0.06,0.04 -0.14,0.07 -0.2,0.01 -0.02,-0.02 -0.03,-0.04 -0.03,-0.08 -0.02,0.01 -0.01,0.01 -0.03,0.02l-0.05 0.04c-0.06,0.04 -0.14,0.09 -0.22,0.05 -0.04,-0.02 -0.07,-0.06 -0.07,-0.12 -0.08,0.05 -0.09,0.08 -0.19,0.11 -0.05,0.02 -0.08,0.02 -0.12,0.02 -0.08,-0.01 -0.07,-0.04 -0.11,-0.05 0,0.02 -0.02,0.03 -0.04,0.04 -0.04,0.03 -0.12,0.02 -0.14,-0.03 -0.04,-0.11 0.08,-0.24 0.02,-0.33 -0.04,0 -0.07,0.06 -0.09,0.09 -0.03,0.06 -0.14,0.28 -0.22,0.28 -0.07,0 -0.05,-0.09 -0.05,-0.13 -0.04,0.02 -0.05,0.04 -0.12,0.09 -0.14,0.08 -0.27,0.03 -0.27,-0.13 -0.03,0 -0.12,0.02 -0.15,0.03 0.01,0.02 0.02,0.03 0.02,0.05 0.03,0.12 -0.06,0.27 -0.2,0.27 -0.06,0 -0.12,-0.05 -0.12,-0.11 0,-0.08 0.05,-0.15 0.11,-0.19 0.01,-0.01 0.02,-0.02 0.02,-0.03 0.02,-0.01 0.01,-0.01 0.03,-0.01 0,-0.02 0,-0.01 -0.02,-0.02 -0.03,0.01 -0.04,0.04 -0.07,0.06 -0.08,0.07 -0.17,0.12 -0.28,0.12 -0.01,0 -0.04,-0.01 -0.05,-0.01 -0.06,-0.02 -0.06,-0.05 -0.09,-0.1 -0.06,0.04 -0.12,0.12 -0.22,0.08 -0.02,-0.01 -0.04,-0.03 -0.05,-0.06 -0.01,-0.02 -0.01,-0.02 -0.02,-0.04 -0.05,0.04 -0.1,0.13 -0.18,0.13 -0.07,0 -0.12,-0.06 -0.13,-0.12 -0.08,0.03 -0.2,0.01 -0.28,-0.02 -0.03,-0.01 -0.11,-0.02 -0.11,-0.07 0,-0.1 0.13,0.03 0.29,0.03 0.13,0 0.12,-0.06 0.17,-0.14 0.14,-0.2 0.32,-0.12 0.33,-0.01 0.03,0 0.02,0.01 0.04,0.02l-0.01 0.07c-0.02,0.06 -0.05,0.09 -0.01,0.14 0.12,-0.01 0.14,-0.11 0.21,-0.16 0.03,-0.02 0.1,-0.18 0.21,-0.18 0.14,0 0.17,0.1 0.11,0.19 -0.01,0.02 -0.02,0.03 -0.04,0.04 -0.06,0.04 -0.13,0.06 -0.19,0.04 -0.05,-0.01 -0.03,0.03 -0.03,0.06 0.04,0.04 0.07,0.04 0.15,0.01l0.07 -0.04c0.05,-0.03 0.08,-0.07 0.12,-0.1 -0.02,-0.08 -0.02,-0.12 0.05,-0.19 0.11,-0.11 0.2,-0.03 0.2,0.04 0,0.11 -0.07,0.12 -0.1,0.16 0.01,0.01 0.01,0.02 0.02,0.02l0.13 -0.03c0.09,-0.02 0.09,0 0.1,-0.05 0.02,-0.08 0.04,-0.17 0.08,-0.24 -0.02,0.01 -0.02,0.01 -0.03,0.01 -0.31,0 -0.28,-0.17 -0.2,-0.17 0.05,0 0.05,0.03 0.09,0.05 0.05,0.03 0.12,0.03 0.17,0.03 0.04,-0.07 0.11,-0.19 0.21,-0.19 0.03,0 0.06,0.01 0.08,0.03 0,0 0,0 0,0 0.05,0.05 0.03,0.11 0.01,0.17 0.02,0 0.02,0 0.03,0 0.02,0 0.01,0 0.03,0 0,-0.02 0.01,-0.04 0.02,-0.06 0,-0.02 0.01,-0.03 0.01,-0.04 0.02,-0.04 0.03,-0.06 0.05,-0.08 0.03,-0.03 0.07,-0.04 0.11,-0.02 0.11,0.07 -0.02,0.32 -0.07,0.4 -0.03,0.04 -0.05,0.09 -0.09,0.13 -0.01,0.01 -0.01,0.01 -0.02,0.02 -0.04,0.06 -0.02,0.05 -0.04,0.12 0.02,-0.01 0.05,-0.07 0.06,-0.09 0.02,-0.03 0.04,-0.06 0.06,-0.09 0.02,-0.04 0.06,-0.1 0.1,-0.12 0.08,-0.05 0.16,0.01 0.16,0.1 0,0.1 -0.05,0.17 -0.05,0.26 0.04,0 0.04,-0.01 0.06,-0.03 0.03,-0.04 0.04,-0.08 0.06,-0.13 0.02,-0.05 0.06,-0.11 0.1,-0.15 0.04,-0.04 0.08,-0.06 0.14,-0.06 0.09,0 0.14,0.09 0.1,0.17 -0.02,0.05 -0.1,0.11 -0.18,0.11 -0.04,0 -0.1,-0.02 -0.1,0 0,0.05 0,0.08 0.06,0.08 0.11,0 0.19,-0.07 0.27,-0.15 0.05,-0.05 0.04,-0.05 0.06,-0.14 0.01,-0.05 0.05,-0.11 0.05,-0.15 -0.33,0 -0.29,-0.17 -0.21,-0.17 0.07,0 0.06,0.08 0.21,0.08 0.03,0 0.04,0.01 0.05,-0.02 0.03,-0.04 0.05,-0.07 0.08,-0.11 0.06,-0.05 0.13,-0.09 0.2,-0.03 0.07,0.06 0.01,0.2 -0.02,0.26 -0.04,0.07 -0.09,0.12 -0.14,0.18l-0.06 0.05c-0.02,0.02 -0.08,0.08 -0.12,0.08 0,0.03 -0.01,0.08 0.01,0.1 0.06,0.06 0.16,-0.03 0.21,-0.06l0.07 -0.07c0.05,-0.08 0.02,-0.01 0.06,-0.12 0.01,-0.02 0.02,-0.05 0.03,-0.06 0.01,-0.01 0.02,-0.01 0.04,-0.01 0.01,0.01 0.01,0.01 0.02,0.02 0,0.05 -0.02,0.09 -0.04,0.14 -0.01,0.05 -0.03,0.09 -0.03,0.15 0,0.05 0.08,0.01 0.09,0l0.05 -0.03c0.02,-0.01 0.02,-0.01 0.03,-0.02 0.03,-0.03 0.08,-0.07 0.1,-0.11 0.03,-0.06 0.07,-0.11 0.12,-0.14 0.01,-0.01 0.02,-0.01 0.03,-0.02 0.05,-0.03 0.13,-0.05 0.18,0 0.03,0.04 0.04,0.09 0.01,0.13 -0.01,0.01 -0.03,0.02 -0.05,0.02 -0.04,0 -0.04,-0.02 -0.04,-0.06 0.01,-0.01 0,-0.01 0.03,-0.01l0 -0.02c-0.03,-0.01 -0.03,-0.01 -0.06,0 -0.14,0.05 -0.26,0.3 -0.1,0.3 0.09,0 0.15,-0.05 0.21,-0.09 0.05,-0.03 0.08,-0.06 0.12,-0.09 0.03,-0.02 0.02,-0.02 0.04,-0.05 0.06,-0.09 0.18,-0.21 0.29,-0.11 0.03,0.02 0.04,0.05 0.05,0.08 0.03,0 0.02,0.01 0.04,0.02 0,0.05 -0.02,0.08 -0.03,0.12 0,0.02 -0.01,0.04 -0.01,0.05 0,0.03 0.01,0.03 0.03,0.04 0.04,-0.01 0.07,-0.02 0.1,-0.05l0.06 -0.06c0.01,-0.01 0.01,-0.01 0.02,-0.02 0.02,-0.03 0.02,-0.02 0.02,-0.06 0.01,-0.09 0.05,-0.21 0.09,-0.3l0.07 -0.14c0.03,-0.05 0.08,-0.12 0.15,-0.12l0 0c0.04,0 0.07,0.01 0.09,0.04 0.09,0.09 -0.01,0.24 -0.06,0.33 -0.04,0.05 -0.06,0.07 -0.1,0.12 0,0.01 -0.01,0.02 -0.02,0.03 -0.02,0.02 -0.06,0.06 -0.08,0.08l-0.06 0.04 0 0.07c0,0.16 0.3,0.03 0.39,-0.14 0.03,-0.07 0.04,-0.12 0.04,-0.2 0.01,-0.01 0.01,-0.01 0.03,-0.01 0.02,0 0.04,0.01 0.04,0.04zm-1.09 0.37c-0.03,-0.02 -0.03,-0.02 -0.03,-0.07 0,-0.04 0.06,-0.15 0.09,-0.18 0.03,-0.02 0.06,-0.03 0.09,-0.03 0.03,0 0.03,0.01 0.05,0.02 0,0.05 0.01,0.08 -0.01,0.1 -0.04,0.04 -0.14,0.15 -0.19,0.16zm-3.88 0c-0.03,0 -0.03,-0.03 -0.03,-0.06 0,-0.04 0.03,-0.11 0.05,-0.14l0.04 -0.05c0.03,-0.03 0.14,-0.08 0.14,0.04 0,0.05 -0.01,0.04 -0.04,0.08 -0.03,0.02 -0.13,0.13 -0.16,0.13zm2.36 -0.16c-0.06,0 -0.07,0 -0.03,-0.05 0.1,-0.12 0.15,-0.06 0.15,-0.04 0,0.02 -0.02,0.03 -0.02,0.04l-0.01 0.01c-0.02,0.02 -0.06,0.04 -0.09,0.04zm2.13 -0.09l0 0.01 -0.01 0 0.01 -0.01zm-3.82 0.09c-0.07,0 -0.09,0.01 0,-0.09 0.07,-0.06 0.11,-0.01 0.11,0 0,0.03 -0.06,0.09 -0.11,0.09zm0.31 -0.04c0,-0.04 0,-0.05 0.02,-0.08 0.06,-0.07 0.11,-0.04 0.06,0.01 -0.02,0.03 -0.05,0.05 -0.08,0.07zm1.74 -0.03c0.02,-0.09 0.07,-0.2 0.07,-0.22 0.03,0 0.03,0.01 0.06,0.01 0.02,0 0.04,0 0.06,0 -0.01,0.02 -0.07,0.09 -0.09,0.11 -0.03,0.03 -0.06,0.07 -0.1,0.1zm-1.02 0.04c-0.03,0.01 -0.04,0.04 -0.06,0.06l-0.09 0.07c-0.02,0.01 -0.02,0.02 -0.04,0.03 -0.11,0.07 -0.15,0 -0.15,-0.04l0.01 -0.05c0.03,0 0.11,-0.07 0.14,-0.1 0.04,-0.04 0.16,-0.16 0.17,-0.22l0.07 0c-0.02,0.07 -0.05,0.18 -0.05,0.25zm-0.3 -0.04c0.01,-0.08 0.06,-0.18 0.07,-0.21l0.12 0c-0.01,0.04 -0.13,0.16 -0.16,0.19 -0.02,0.01 -0.02,0.01 -0.03,0.02zm0.41 -0.1c0,-0.03 0.03,-0.14 0.04,-0.17l0.05 -0.12c0.01,-0.01 0.01,-0.01 0.01,-0.02 0.01,-0.01 0.01,0 0.02,-0.01 0,0.1 -0.08,0.29 -0.12,0.32zm1.15 -0.19l-0.12 0c0.01,-0.04 0.07,-0.12 0.11,-0.12 0.02,0 0.02,0 0.03,0.01 0.01,0.08 -0.01,0.05 -0.02,0.11zm-1.32 0l-0.13 0c0.01,-0.02 0.01,-0.03 0.02,-0.04 0.01,-0.01 0.02,-0.02 0.03,-0.04 0.01,-0.01 0.02,-0.01 0.03,-0.02 0.02,-0.02 0.03,-0.02 0.06,-0.02 0.03,0.05 0,0.06 -0.01,0.12zm2.85 0.27c0,-0.05 0.03,-0.14 0.05,-0.19l0.08 -0.18c0.02,-0.02 0.02,-0.03 0.04,-0.04 0.03,-0.03 0.03,-0.03 0.07,-0.03l0.01 0.02c0,0.07 -0.01,0.09 -0.03,0.13 0,0.02 -0.01,0.02 -0.01,0.03 -0.02,0.02 -0.03,0.05 -0.05,0.08l-0.08 0.1c-0.02,0.03 -0.04,0.06 -0.08,0.08z"/>
   <path fill="black" d="M4.41 1.27c-0.04,-0.02 -0.04,0 -0.04,-0.06 0.03,-0.02 0.02,-0.02 0.06,-0.02 0.04,0.06 0.01,0.07 -0.02,0.08zm-0.04 -0.11l0 -0.02 -0.06 0 0 0.26 0.06 0 0 -0.1c0.11,0.07 0.16,-0.06 0.12,-0.12 -0.01,-0.02 -0.02,-0.03 -0.03,-0.03 -0.04,-0.02 -0.06,-0.01 -0.09,0.01z"/>
   <path fill="black" d="M2.11 1.25c0,-0.02 0,-0.02 0.01,-0.03l0.05 0.05c-0.01,0 -0.06,0.01 -0.06,-0.02zm-0.03 -0.1c0,0.01 0.01,0.03 0.02,0.04 -0.08,0.02 -0.06,0.16 0.07,0.13 0.02,-0.01 0.02,-0.01 0.04,-0.02 0.02,0.02 0.01,0.02 0.08,0.02l-0.05 -0.05c0.01,-0.02 0.03,-0.04 0.03,-0.07l-0.05 0c-0.01,0.01 -0.01,0.01 -0.01,0.03 -0.06,-0.04 -0.1,-0.11 -0.05,-0.09 0.02,0.01 -0.03,0.01 0.06,0.01 0,-0.09 -0.14,-0.07 -0.14,0z"/>
   <path fill="black" d="M2.36 1.21c0,0.05 0.05,0.11 0.1,0.11 0.05,0 0.08,0 0.11,-0.05 0,-0.01 0.01,-0.01 0.01,-0.03l-0.06 0c-0.02,0.05 -0.1,0.03 -0.1,-0.02 0,-0.06 0.01,-0.04 0.03,-0.07 0.03,0 0.06,-0.01 0.07,0.02l0.06 0c0,-0.1 -0.22,-0.12 -0.22,0.04z"/>
   <path fill="black" d="M0.98 1.21c0,0.05 0.05,0.11 0.1,0.11 0.04,0 0.06,0 0.09,-0.03 0.01,0 0.01,-0.01 0.02,-0.02 0,-0.01 0.01,-0.01 0.01,-0.03l-0.06 0c-0.02,0.05 -0.1,0.03 -0.1,-0.02 0,-0.06 0.01,-0.04 0.03,-0.07 0.03,0 0.06,-0.01 0.07,0.02l0.06 0c0,-0.03 -0.02,-0.03 -0.04,-0.05 -0.06,-0.06 -0.18,-0.02 -0.18,0.09z"/>
   <path fill="black" d="M1.31 1.27c-0.03,-0.01 -0.04,-0.01 -0.03,-0.07l0.05 -0.01c0.04,0.06 0,0.07 -0.02,0.08zm-0.09 -0.04c0,0.06 0.04,0.1 0.08,0.09 0.02,0 0.03,-0.01 0.05,-0.02l0 0.02 0.05 0 0 -0.18 -0.05 0 0 0.02c-0.02,-0.01 -0.05,-0.03 -0.09,-0.01 -0.02,0.01 -0.04,0.04 -0.04,0.08z"/>
   <path fill="black" d="M3.71 1.15c0,0.06 0.04,0.07 0.08,0.08 0.03,0.01 0.02,0.01 0.03,0.03 -0.01,0.02 -0.04,0.02 -0.05,-0.01l-0.06 0c0,0.04 0.03,0.06 0.05,0.06 0.07,0.02 0.12,-0.01 0.12,-0.05l0 -0.04c-0.02,-0.01 -0.01,-0.01 -0.05,-0.03 -0.02,-0.01 -0.06,-0.01 -0.06,-0.03 0,-0.02 0.04,-0.03 0.05,0l0.06 0c0,-0.1 -0.17,-0.08 -0.17,-0.01z"/>
   <path fill="black" d="M3 1.32l0.06 0 0 -0.06c0.02,0.01 0.04,0.04 0.05,0.06l0.07 0c-0.01,-0.01 -0.01,-0.02 -0.02,-0.03l-0.05 -0.06 0.05 -0.06c0.01,-0.01 0.01,-0.02 0.02,-0.03l-0.07 0c-0.01,0.02 -0.03,0.05 -0.05,0.06l0 -0.11 -0.06 0 0 0.23z"/>
   <path fill="black" d="M3.91 1.32l0.05 0c0,-0.06 -0.01,-0.13 0.04,-0.13 0.04,0 0.03,0.07 0.03,0.13l0.06 0c0,-0.05 0,-0.13 -0.02,-0.15 -0.02,-0.04 -0.07,-0.03 -0.11,-0.01l0 -0.07 -0.05 0 0 0.23z"/>
   <path fill="black" d="M3.59 0.26c0,0.05 0.02,0.13 0.06,0.13 0.02,0 0.18,-0.05 0.12,-0.14 -0.07,0 -0.05,0.01 -0.09,0.02 -0.01,-0.01 -0.01,-0.02 -0.02,-0.04 -0.03,-0.05 -0.07,-0.01 -0.07,0.03z"/>
   <path fill="black" d="M1.44 1.32l0.06 0 0 -0.07c0,0 0,0 0,0l0.05 0.07 0.06 0c-0.01,-0.03 -0.06,-0.08 -0.06,-0.09 0,-0.01 0.04,-0.06 0.06,-0.09l-0.06 0 -0.05 0.06 0 -0.11 -0.06 0 0 0.23z"/>
   <path fill="black" d="M3.36 1.19c0.03,0 0.04,0 0.04,0.02l-0.06 0c0,0 -0.01,-0.02 0.02,-0.02zm-0.08 0.04c0,0.11 0.15,0.12 0.17,0.03 -0.11,0 -0.03,0.01 -0.09,0.01 -0.02,0 -0.02,-0.01 -0.02,-0.02 0.04,0 0.12,0 0.12,-0.02 0,-0.05 -0.03,-0.09 -0.09,-0.09 -0.06,0 -0.09,0.04 -0.09,0.09z"/>
   <path fill="black" d="M4.17 1.23l0 -0.03c0.04,-0.01 0.02,-0.01 0.06,0 0.01,0.06 0,0.06 -0.03,0.07 -0.02,-0.01 -0.03,0 -0.03,-0.04zm-0.06 0c0,0.14 0.23,0.11 0.18,-0.04 -0.03,-0.07 -0.14,-0.07 -0.17,0 -0.01,0.01 -0.01,0.03 -0.01,0.04z"/>
   <path fill="black" d="M2.86 1.23l0 -0.03c0.04,-0.01 0.02,-0.01 0.06,0 0.02,0.1 -0.06,0.08 -0.06,0.03zm-0.06 0c0,0.02 0.01,0.05 0.02,0.07 0.04,0.03 0.11,0.03 0.14,-0.02 0.04,-0.05 0.01,-0.12 -0.03,-0.13 -0.07,-0.03 -0.13,0.02 -0.13,0.08z"/>
   <path fill="black" d="M1.69 1.19l0.04 0c0,0.01 0.01,0.01 0.01,0.02l-0.06 0c0,-0.02 0,-0.01 0.01,-0.02zm-0.07 0.03c0,0.04 0.01,0.05 0.03,0.08 0.01,0.01 0.01,0.01 0.02,0.01 0.08,0.03 0.12,-0.02 0.12,-0.05l-0.06 0c0,0 0.01,0.01 -0.03,0.01 -0.01,0 -0.02,-0.01 -0.02,-0.02l0.12 0 0 -0.03c0,-0.11 -0.18,-0.11 -0.18,0z"/>
   <path fill="black" d="M2.66 1.23c0,-0.02 0,-0.02 0.01,-0.04l0.04 0c0.02,0.02 0.02,0.02 0.02,0.06 -0.01,0.01 -0.03,0.02 -0.04,0.02 -0.02,0 -0.03,-0.01 -0.03,-0.04zm-0.06 0c0,0.02 0.01,0.05 0.02,0.06 0.05,0.05 0.13,0.03 0.15,-0.02 0.07,-0.14 -0.17,-0.19 -0.17,-0.04z"/>
   <path fill="black" d="M1.82 1.2c0,0.04 0.05,0.05 0.09,0.06 0,0.04 -0.04,0.02 -0.04,0l-0.06 0c0.01,0.09 0.16,0.07 0.16,0.01 0,-0.05 -0.06,-0.06 -0.1,-0.07 0.01,-0.04 0.04,-0.02 0.04,0l0.06 0c-0.03,-0.1 -0.15,-0.07 -0.15,0z"/>
   <path fill="black" d="M3.48 1.19l0 0.03c0.08,0.05 0.08,0.01 0.09,0.05 -0.02,0.01 -0.03,0.02 -0.04,-0.01l-0.06 0c0.01,0.09 0.18,0.08 0.15,-0.01 -0.01,-0.05 -0.08,-0.02 -0.09,-0.06 0.01,-0.01 0.03,-0.02 0.04,0.01l0.05 0c0,-0.08 -0.14,-0.08 -0.14,-0.01z"/>
   <path fill="black" d="M3.19 1.16l0 0.16 0.06 0 0 -0.18 -0.04 0c-0.01,0 -0.02,0.01 -0.02,0.02z"/>
   <path fill="black" d="M3.19 1.08l0 0.03c0.03,0.02 0.02,0.02 0.05,0.02 0.01,-0.01 0.02,-0.03 0.02,-0.03 0,-0.02 -0.02,-0.03 -0.04,-0.03 -0.01,0 -0.01,0 -0.03,0.01z"/>
  </g>
 </g>
</svg>
