<?xml version="1.0" encoding="UTF-8"?>
<!DOCTYPE svg PUBLIC "-//W3C//DTD SVG 1.1//EN" "http://www.w3.org/Graphics/SVG/1.1/DTD/svg11.dtd">
<!-- Creator: CorelDRAW (Versión de evaluación) -->
<svg xmlns="http://www.w3.org/2000/svg" xml:space="preserve" width="116px" height="32px" version="1.1" shape-rendering="geometricPrecision" text-rendering="geometricPrecision" image-rendering="optimizeQuality" fill-rule="evenodd" clip-rule="evenodd"
viewBox="0 0 4.53 1.25"
 xmlns:xlink="http://www.w3.org/1999/xlink"
 xmlns:xodm="http://www.corel.com/coreldraw/odm/2003">
 <g id="Capa_x0020_1">
  <metadata id="CorelCorpID_0Corel-Layer"/>
  <g id="_2238006179792">
   <polygon fill="black" fill-rule="nonzero" points="0,1.25 0,0.84 0.26,0.84 0.26,0.93 0.16,0.93 0.16,0.98 0.26,0.98 0.26,1.07 0.16,1.07 0.16,1.25 "/>
   <path id="_1" fill="black" fill-rule="nonzero" d="M0.45 0.96l0 0.17c0,0.01 0,0.02 0.01,0.02 0,0.01 0.01,0.01 0.01,0.01 0.01,0 0.02,0 0.02,-0.01 0,0 0,-0.01 0,-0.02l0 -0.17c0,-0.01 0,-0.02 0,-0.02 0,-0.01 -0.01,-0.01 -0.02,-0.01 0,0 -0.01,0 -0.01,0.01 -0.01,0 -0.01,0.01 -0.01,0.02zm-0.06 0.29c-0.04,0 -0.06,0 -0.08,-0.02 -0.01,-0.01 -0.02,-0.04 -0.02,-0.08l0 -0.23c0,-0.03 0.01,-0.05 0.02,-0.06 0.02,-0.02 0.04,-0.02 0.08,-0.02l0.16 0c0.04,0 0.07,0 0.08,0.02 0.02,0.01 0.03,0.03 0.03,0.06l0 0.23c0,0.04 -0.01,0.07 -0.03,0.08 -0.01,0.02 -0.04,0.02 -0.08,0.02l-0.16 0z"/>
   <polygon id="_2" fill="black" fill-rule="nonzero" points="0.76,1.25 0.76,0.93 0.68,0.93 0.68,0.84 1,0.84 1,0.93 0.92,0.93 0.92,1.25 "/>
   <path id="_3" fill="black" fill-rule="nonzero" d="M1.18 0.96l0 0.17c0,0.01 0.01,0.02 0.01,0.02 0,0.01 0.01,0.01 0.01,0.01 0.01,0 0.02,0 0.02,-0.01 0,0 0.01,-0.01 0.01,-0.02l0 -0.17c0,-0.01 -0.01,-0.02 -0.01,-0.02 0,-0.01 -0.01,-0.01 -0.02,-0.01 0,0 -0.01,0 -0.01,0.01 0,0 -0.01,0.01 -0.01,0.02zm-0.06 0.29c-0.04,0 -0.06,0 -0.08,-0.02 -0.01,-0.01 -0.02,-0.04 -0.02,-0.08l0 -0.23c0,-0.03 0.01,-0.05 0.03,-0.06 0.01,-0.02 0.04,-0.02 0.07,-0.02l0.17 0c0.03,0 0.06,0 0.07,0.02 0.02,0.01 0.03,0.03 0.03,0.06l0 0.23c0,0.04 -0.01,0.07 -0.02,0.08 -0.02,0.02 -0.05,0.02 -0.08,0.02l-0.17 0z"/>
   <polygon id="_4" fill="black" fill-rule="nonzero" points="1.63,1.25 1.63,0.84 1.79,0.84 1.79,1.25 "/>
   <polygon id="_5" fill="black" fill-rule="nonzero" points="2.03,1.25 1.97,1.02 1.97,1.25 1.82,1.25 1.82,0.84 2.03,0.84 2.07,1.01 2.12,0.84 2.32,0.84 2.32,1.25 2.18,1.25 2.18,1.02 2.12,1.25 "/>
   <path id="_6" fill="black" fill-rule="nonzero" d="M2.54 0.93l-0.02 0 0 0.12 0.02 0c0.01,0 0.01,-0.01 0.01,-0.01 0.01,0 0.01,-0.01 0.01,-0.02l0 -0.06c0,-0.01 0,-0.02 -0.01,-0.02 0,-0.01 0,-0.01 -0.01,-0.01zm-0.18 0.32l0 -0.41 0.26 0c0.03,0 0.06,0.01 0.08,0.02 0.01,0.01 0.02,0.04 0.02,0.07l0 0.11c0,0.04 -0.01,0.06 -0.02,0.08 -0.02,0.01 -0.04,0.02 -0.08,0.02l-0.1 0 0 0.11 -0.16 0z"/>
   <path id="_7" fill="black" fill-rule="nonzero" d="M2.91 0.93l0 0.06 0.02 0c0.01,0 0.02,0 0.02,-0.01 0,0 0.01,-0.01 0.01,-0.02 0,-0.01 -0.01,-0.02 -0.01,-0.02 0,0 -0.01,-0.01 -0.02,-0.01l-0.02 0zm0.05 0.32l0 -0.14c0,-0.01 -0.01,-0.02 -0.01,-0.02 0,-0.01 -0.01,-0.01 -0.02,-0.01l-0.02 0 0 0.17 -0.16 0 0 -0.41 0.26 0c0.04,0 0.07,0.01 0.08,0.02 0.02,0.02 0.03,0.04 0.03,0.08 0,0.02 -0.01,0.05 -0.02,0.06 -0.01,0.01 -0.02,0.02 -0.05,0.03 0.03,0.01 0.04,0.02 0.05,0.04 0.01,0.01 0.02,0.04 0.02,0.07l0 0.11 -0.16 0z"/>
   <polygon id="_8" fill="black" fill-rule="nonzero" points="3.15,1.25 3.15,0.84 3.41,0.84 3.41,0.93 3.31,0.93 3.31,0.98 3.41,0.98 3.41,1.07 3.31,1.07 3.31,1.16 3.41,1.16 3.41,1.25 "/>
   <polygon id="_9" fill="black" fill-rule="nonzero" points="3.45,1.25 3.45,0.84 3.61,0.84 3.67,1.01 3.67,0.84 3.82,0.84 3.82,1.25 3.66,1.25 3.59,1.06 3.59,1.25 "/>
   <polygon id="_10" fill="black" fill-rule="nonzero" points="3.92,1.25 3.92,0.93 3.84,0.93 3.84,0.84 4.16,0.84 4.16,0.93 4.08,0.93 4.08,1.25 "/>
   <path id="_11" fill="black" fill-rule="nonzero" d="M4.32 1.07l0.03 0 -0.02 -0.14 -0.01 0.14zm-0.18 0.18l0.07 -0.41 0.25 0 0.07 0.41 -0.16 0 -0.01 -0.09 -0.05 0 -0.01 0.09 -0.16 0z"/>
   <g>
    <path fill="black" d="M0.24 0.27l0 -0.1c0,-0.03 0.02,-0.05 0.04,-0.05l0.04 0c0.01,0 0.02,0 0.03,0.01 0,0 0,0 0,0 0.02,0 0.03,0.01 0.04,0.02 0,0.01 0.01,0.02 0.01,0.04l0 0c0,0.01 0.01,0.02 0.01,0.03 0,0.02 -0.01,0.03 -0.01,0.04l0 0 0 0c0,0.01 -0.01,0.02 -0.01,0.03 0,0 0,0 0,0 -0.01,0.01 -0.03,0.02 -0.04,0.03l0 0c-0.01,0 -0.02,0 -0.03,0l-0.04 0c-0.02,0 -0.04,-0.02 -0.04,-0.05zm0.04 -0.1l0 0.1 0.04 0c0.01,0 0.02,0 0.03,-0.01 0,-0.01 0.01,-0.02 0.01,-0.04 0,-0.02 -0.01,-0.03 -0.01,-0.04 -0.01,-0.01 -0.02,-0.01 -0.03,-0.01l-0.04 0zm0.25 0.17c0.04,0.01 0.07,0.03 0.09,0.07 0.02,0.03 0.03,0.07 0.03,0.14l0 0.18 -0.29 0 0 -0.25c0,-0.02 -0.01,-0.03 -0.01,-0.04 -0.01,0 -0.02,-0.01 -0.03,-0.01l-0.04 0 0 0.3 -0.28 0 0 -0.73 0.46 0c0.07,0 0.11,0.02 0.14,0.04 0.03,0.03 0.04,0.08 0.04,0.14 0,0.05 0,0.08 -0.02,0.11 -0.02,0.02 -0.05,0.04 -0.09,0.05zm-0.12 0.14l0 0.2 0.19 0 0 -0.13c0,-0.03 -0.01,-0.06 -0.01,-0.08 0,-0.02 -0.01,-0.03 -0.01,-0.04 -0.01,-0.01 -0.02,-0.02 -0.02,-0.02 0,0 -0.01,0 -0.01,0 -0.01,-0.01 -0.02,-0.02 -0.03,-0.02l0 0c-0.02,0 -0.04,-0.02 -0.04,-0.04 -0.01,-0.02 0.01,-0.05 0.04,-0.05 0.01,-0.01 0.03,-0.01 0.04,-0.02 0.01,-0.01 0.01,-0.01 0.02,-0.02l0 0c0,0 0,0 0,0 0,-0.01 0.01,-0.02 0.01,-0.03l0 0c0,-0.01 0.01,-0.03 0.01,-0.05 0,-0.03 -0.01,-0.05 -0.01,-0.07 -0.01,-0.01 -0.01,-0.02 -0.02,-0.03 -0.01,-0.01 -0.02,-0.01 -0.04,-0.02 -0.02,0 -0.04,-0.01 -0.07,-0.01l-0.41 0 0 0.63 0.19 0 0 -0.25c0,-0.02 0.02,-0.05 0.04,-0.05l0.04 0c0.01,0 0.02,0.01 0.03,0.01 0.02,0 0.03,0.01 0.04,0.02l0 0c0,0.01 0.01,0.03 0.01,0.04l0 0c0,0.01 0.01,0.02 0.01,0.03z"/>
   </g>
   <g>
    <path id="_1_24" fill="black" d="M0.71 0.73l0 -0.73 0.28 0 0 0.73 -0.28 0zm0.05 -0.68l0 0.63 0.19 0 0 -0.63 -0.19 0z"/>
   </g>
   <g>
    <path id="_2_25" fill="black" d="M1.71 0.44l0 0.14c0,0.06 -0.02,0.1 -0.05,0.12 -0.02,0.03 -0.07,0.04 -0.13,0.04l-0.3 0c-0.06,0 -0.1,-0.01 -0.13,-0.04 -0.03,-0.03 -0.04,-0.06 -0.04,-0.12l0 -0.41c0,-0.06 0.01,-0.1 0.03,-0.13 0.03,-0.03 0.08,-0.04 0.14,-0.04l0.3 0c0.06,0 0.11,0.01 0.14,0.04 0.02,0.02 0.04,0.07 0.04,0.13l0 0.1 -0.29 0 0 -0.05c0,-0.02 -0.01,-0.04 -0.01,-0.04 -0.01,-0.01 -0.02,-0.02 -0.03,-0.02 -0.01,0 -0.02,0.01 -0.03,0.02 0,0 -0.01,0.02 -0.01,0.04l0 0.3c0,0.02 0.01,0.03 0.01,0.04 0.01,0.01 0.02,0.01 0.03,0.01 0.01,0 0.02,0 0.03,-0.01 0,-0.01 0.01,-0.02 0.01,-0.04l0 -0.08 0.29 0zm-0.05 0.14l0 -0.1 -0.19 0 0 0.04c0,0.01 0,0.02 -0.01,0.03 0,0 0,0 0,0 0,0.02 0,0.03 -0.01,0.04 -0.01,0.01 -0.02,0.02 -0.03,0.02 0,0 0,0 0,0 -0.01,0.01 -0.03,0.01 -0.04,0.01 -0.01,0 -0.02,0 -0.03,0 0,0 0,-0.01 -0.01,-0.01 -0.01,0 -0.02,-0.01 -0.02,-0.02 0,0 -0.01,0 -0.01,0 0,-0.01 -0.01,-0.02 -0.01,-0.04 0,-0.01 0,-0.02 0,-0.03l0 -0.3c0,-0.02 0,-0.03 0,-0.04l0 0c0,-0.01 0.01,-0.02 0.01,-0.03 0.01,-0.01 0.02,-0.02 0.03,-0.03l0 0c0.02,0 0.03,0 0.04,0 0.01,0 0.02,0 0.03,0 0,0 0.01,0 0.01,0 0.01,0.01 0.02,0.02 0.03,0.03l0 0c0,0 0,0 0,0 0.01,0.01 0.01,0.02 0.01,0.03 0.01,0.01 0.01,0.02 0.01,0.04l0 0 0.19 0 0 -0.05c0,-0.02 -0.01,-0.05 -0.01,-0.06 0,-0.02 -0.01,-0.03 -0.02,-0.04 0,0 -0.01,-0.01 -0.03,-0.01 0,0 0,0 0,0 -0.02,-0.01 -0.04,-0.01 -0.07,-0.01l-0.3 0c-0.03,0 -0.05,0 -0.07,0.01l0 0c0,0 0,0 0,0 -0.01,0 -0.02,0.01 -0.03,0.01 -0.01,0.01 -0.01,0.02 -0.02,0.04l0 0 0 0c0,0.01 0,0.04 0,0.06l0 0.41c0,0.02 0,0.04 0,0.06 0.01,0.01 0.01,0.02 0.02,0.02 0.01,0.01 0.02,0.02 0.03,0.02 0.02,0.01 0.04,0.01 0.07,0.01l0.3 0c0.02,0 0.05,0 0.07,-0.01 0.01,0 0.02,-0.01 0.03,-0.02 0.01,0 0.02,-0.01 0.02,-0.02 0,-0.02 0.01,-0.04 0.01,-0.06z"/>
   </g>
   <g>
    <path id="_3_26" fill="black" d="M1.77 0.73l0 -0.73 0.28 0 0 0.25 0.07 0 0 -0.25 0.29 0 0 0.73 -0.29 0 0 -0.31 -0.07 0 0 0.31 -0.28 0zm0.05 -0.68l0 0.63 0.18 0 0 -0.26c0,-0.03 0.03,-0.05 0.05,-0.05l0.07 0c0.03,0 0.05,0.02 0.05,0.05l0 0.26 0.19 0 0 -0.63 -0.19 0 0 0.2c0,0.03 -0.02,0.05 -0.05,0.05l-0.07 0c-0.02,0 -0.05,-0.02 -0.05,-0.05l0 -0.2 -0.18 0z"/>
   </g>
   <g>
    <path id="_4_27" fill="black" d="M2.82 0.46l-0.06 0c0,0 0,0 0,0 -0.03,0 -0.05,-0.02 -0.05,-0.05l0.03 -0.25 0 0c0.01,-0.02 0.02,-0.04 0.05,-0.04 0.02,0 0.05,0.01 0.05,0.04l0.03 0.25c0,0 0,0 0,0 0,0.03 -0.02,0.05 -0.05,0.05zm-0.06 -0.05l0.06 0 -0.03 -0.24 -0.03 0.24zm-0.32 0.32l0.13 -0.73 0.44 0 0.13 0.73 -0.29 0 -0.02 -0.16 -0.08 0 -0.01 0.16 -0.3 0zm0.17 -0.68l-0.11 0.63 0.19 0 0.01 -0.11c0,-0.02 0.03,-0.04 0.05,-0.04l0.08 0 0 0c0.03,0 0.05,0.01 0.05,0.04l0.01 0.11 0.2 0 -0.12 -0.63 -0.36 0z"/>
   </g>
   <g>
    <path id="_5_28" fill="black" d="M3.41 0.27l0 -0.1c0,-0.03 0.02,-0.05 0.05,-0.05l0.03 0c0.01,0 0.03,0 0.04,0.01 0,0 0,0 0,0 0.01,0 0.02,0.01 0.03,0.02 0.01,0.01 0.02,0.02 0.02,0.04l0 0c0,0.01 0,0.02 0,0.03 0,0.02 0,0.03 0,0.04l0 0 0 0c0,0.01 -0.01,0.02 -0.01,0.03 -0.01,0 -0.01,0 -0.01,0 -0.01,0.01 -0.02,0.02 -0.03,0.03l0 0c-0.01,0 -0.03,0 -0.04,0l-0.03 0c-0.03,0 -0.05,-0.02 -0.05,-0.05zm0.05 -0.1l0 0.1 0.03 0c0.02,0 0.03,0 0.03,-0.01 0.01,-0.01 0.01,-0.02 0.01,-0.04 0,-0.02 0,-0.03 -0.01,-0.04 0,-0.01 -0.01,-0.01 -0.03,-0.01l-0.03 0zm0.24 0.17c0.05,0.01 0.08,0.03 0.09,0.07 0.02,0.03 0.03,0.07 0.03,0.14l0 0.18 -0.29 0 0 -0.25c0,-0.02 0,-0.03 -0.01,-0.04 0,0 -0.01,-0.01 -0.03,-0.01l-0.03 0 0 0.3 -0.28 0 0 -0.73 0.46 0c0.06,0 0.11,0.02 0.14,0.04 0.03,0.03 0.04,0.08 0.04,0.14 0,0.05 -0.01,0.08 -0.03,0.11 -0.01,0.02 -0.04,0.04 -0.09,0.05zm-0.12 0.14l0 0.2 0.19 0 0 -0.13c0,-0.03 0,-0.06 0,-0.08 -0.01,-0.02 -0.01,-0.03 -0.02,-0.04 0,-0.01 -0.01,-0.02 -0.02,-0.02 0,0 0,0 0,0 -0.01,-0.01 -0.02,-0.02 -0.04,-0.02l0 0c-0.01,0 -0.03,-0.02 -0.03,-0.04 -0.01,-0.02 0.01,-0.05 0.03,-0.05 0.02,-0.01 0.03,-0.01 0.04,-0.02 0.01,-0.01 0.02,-0.01 0.02,-0.02l0 0c0,0 0,0 0,0 0.01,-0.01 0.01,-0.02 0.02,-0.03l0 0c0,-0.01 0,-0.03 0,-0.05 0,-0.03 0,-0.05 -0.01,-0.07 0,-0.01 -0.01,-0.02 -0.01,-0.03 -0.01,-0.01 -0.03,-0.01 -0.04,-0.02 -0.02,0 -0.04,-0.01 -0.07,-0.01l-0.41 0 0 0.63 0.18 0 0 -0.25c0,-0.02 0.02,-0.05 0.05,-0.05l0.03 0c0.02,0 0.03,0.01 0.04,0.01 0.01,0 0.02,0.01 0.03,0.02l0 0c0.01,0.01 0.02,0.03 0.02,0.04l0 0c0,0.01 0,0.02 0,0.03z"/>
   </g>
   <g>
    <path id="_6_29" fill="black" d="M4.2 0.61l-0.03 0c-0.03,0 -0.05,-0.02 -0.05,-0.04l0 -0.4c0,-0.03 0.02,-0.05 0.05,-0.05l0.03 0c0.01,0 0.03,0 0.04,0.01 0,0 0,0 0,0 0.01,0 0.02,0.01 0.03,0.02 0.01,0.01 0.02,0.02 0.02,0.04l0 0c0,0.01 0,0.02 0,0.03l0 0.29c0,0.02 0,0.03 0,0.04l0 0c0,0 0,0 0,0 0,0.01 -0.01,0.03 -0.02,0.04 -0.01,0.01 -0.02,0.01 -0.03,0.02l0 0c-0.01,0 -0.02,0 -0.04,0zm-0.03 -0.04l0.03 0c0.02,0 0.03,-0.01 0.03,-0.02 0.01,0 0.01,-0.02 0.01,-0.04l0 -0.29c0,-0.02 0,-0.03 -0.01,-0.04 0,-0.01 -0.01,-0.01 -0.03,-0.01l-0.03 0 0 0.4zm-0.28 0.16l0 -0.73 0.46 0c0.07,0 0.11,0.02 0.14,0.04 0.03,0.03 0.04,0.07 0.04,0.12l0 0.4c0,0.06 -0.01,0.11 -0.04,0.13 -0.02,0.03 -0.07,0.04 -0.14,0.04l-0.46 0zm0.05 -0.68l0 0.63 0.41 0c0.03,0 0.06,0 0.07,0 0.02,-0.01 0.03,-0.01 0.04,-0.02 0.01,-0.01 0.01,-0.02 0.02,-0.03 0,-0.02 0,-0.04 0,-0.07l0 -0.4c0,-0.02 0,-0.04 0,-0.05 -0.01,-0.02 -0.01,-0.03 -0.02,-0.03 -0.02,-0.02 -0.06,-0.03 -0.11,-0.03l-0.41 0z"/>
   </g>
  </g>
 </g>
</svg>
