<?xml version="1.0" encoding="UTF-8"?>
<!DOCTYPE svg PUBLIC "-//W3C//DTD SVG 1.1//EN" "http://www.w3.org/Graphics/SVG/1.1/DTD/svg11.dtd">
<!-- Creator: CorelDRAW (Versión de evaluación) -->
<svg xmlns="http://www.w3.org/2000/svg" xml:space="preserve" width="114px" height="32px" version="1.1" shape-rendering="geometricPrecision" text-rendering="geometricPrecision" image-rendering="optimizeQuality" fill-rule="evenodd" clip-rule="evenodd"
viewBox="0 0 4.5 1.27"
 xmlns:xlink="http://www.w3.org/1999/xlink"
 xmlns:xodm="http://www.corel.com/coreldraw/odm/2003">
 <g id="Capa_x0020_1">
  <metadata id="CorelCorpID_0Corel-Layer"/>
  <g id="_2237722463056">
   <path fill="black" fill-rule="nonzero" d="M0.22 0.65c0.02,-0.01 0.04,-0.03 0.04,-0.04 0,-0.01 0,-0.01 -0.01,-0.02 0,-0.01 0,-0.03 0,-0.05 0,-0.02 0,-0.05 0,-0.08 0,-0.01 0,-0.02 0,-0.03 0,0 -0.02,0.01 -0.02,0.01 -0.06,0.04 -0.07,0.05 -0.07,0.08 0.01,-0.01 0.02,-0.01 0.02,-0.02 0.01,0 0.01,0.01 0.01,0.02 0.01,0.03 0,0.06 0,0.09 -0.02,0.02 -0.03,0.03 -0.04,0.04 -0.04,0.02 -0.06,0 -0.07,-0.05 -0.01,-0.04 -0.01,-0.1 0,-0.15 0.01,-0.06 0.03,-0.11 0.06,-0.13 0.03,-0.02 0.06,-0.01 0.07,0.02 0.03,-0.03 0.04,-0.05 0.03,-0.07 0,-0.03 -0.04,-0.03 -0.09,0 -0.05,0.03 -0.09,0.1 -0.12,0.17 -0.02,0.07 -0.03,0.15 -0.02,0.22 0.01,0.04 0.03,0.06 0.05,0.07 0.02,0.01 0.05,0 0.07,-0.02 0.03,-0.02 0.06,-0.04 0.07,-0.07 0.01,0.01 0.01,0.01 0.02,0.01zm0.25 -0.21c-0.01,0.02 -0.02,0.03 -0.02,0.03 -0.01,0 -0.01,-0.01 -0.01,-0.02 0,-0.02 0,-0.04 0,-0.07 0,-0.04 0.01,-0.08 0,-0.11 -0.01,-0.03 -0.04,-0.01 -0.05,0 -0.11,0.08 -0.09,0.03 -0.09,0.02 -0.02,0.01 -0.05,0.09 0,0.08 0,0.04 0,0.06 -0.02,0.1 0.02,0 0.03,-0.01 0.04,-0.02 0.01,-0.02 0.01,-0.04 0.02,-0.06 0,-0.02 0,-0.03 0.01,-0.04 0.01,-0.01 0.03,-0.02 0.03,-0.03 0.01,0 0.01,0.01 0.01,0.02 0,0.01 -0.01,0.08 -0.01,0.1 0,0.02 0,0.05 0,0.07 0,0.03 0.02,0.04 0.05,0.02 0.02,-0.01 0.05,-0.05 0.06,-0.09 0.01,-0.05 0,-0.05 -0.02,0zm0.27 -0.09c0,0.01 -0.01,0.02 -0.01,0.03 -0.01,0 -0.01,-0.01 -0.01,-0.02 -0.01,-0.02 -0.01,-0.06 -0.01,-0.1 0,-0.04 0.01,-0.08 0.01,-0.09 -0.01,0 -0.03,-0.01 -0.04,0 -0.01,0 -0.02,0.01 -0.03,0.02 -0.01,-0.01 -0.03,-0.01 -0.04,0 -0.04,0.01 -0.07,0.05 -0.09,0.09 -0.02,0.05 -0.03,0.11 -0.02,0.15 0.01,0.04 0.03,0.06 0.07,0.05 0,0 0,0 0,0 0.03,-0.02 0.06,-0.06 0.08,-0.12 0,0.01 0,0.02 0.01,0.04 0,0.03 0.02,0.04 0.05,0.03 0.03,-0.01 0.07,-0.07 0.06,-0.1 0,-0.01 0,-0.01 0,-0.01 -0.01,0 -0.01,0.01 -0.03,0.03 0,0 0,0 0,0zm-0.12 0.01c-0.01,0.03 -0.02,0.05 -0.03,0.06 -0.01,0 -0.02,0 -0.02,-0.02 -0.01,-0.03 -0.01,-0.07 0,-0.11 0.01,-0.03 0.02,-0.06 0.04,-0.07 0.01,0 0.03,0 0.04,0.02 0,0.03 -0.01,0.08 -0.03,0.12 0,0 0,0 0,0zm-0.04 -0.21c0,0.01 0.01,0.01 0.02,0.01 0.03,-0.02 0.06,-0.04 0.07,-0.05 0.02,-0.02 0.03,-0.03 0.03,-0.04 -0.01,-0.01 -0.03,-0.02 -0.06,-0.01 -0.02,0.03 -0.03,0.06 -0.06,0.09 0,0 0,0 0,0zm0.28 0.05c0.01,-0.01 0.02,-0.01 0.03,-0.01 0.01,0 0.03,-0.01 0.05,-0.01 0.01,-0.01 0.01,-0.01 0.01,-0.01 0,0.01 0.01,0.02 0.01,0.02 0,0.02 0,0.04 0,0.07 -0.01,0.03 0,0.06 0,0.07 0.01,0.03 0.03,0.05 0.05,0.04 0.03,0 0.06,-0.03 0.07,-0.06 0,-0.02 0,-0.03 0,-0.03 -0.01,0 -0.01,0.01 -0.03,0.02 0,0.01 -0.01,0.02 -0.02,0.02 0,0 0,-0.01 -0.01,-0.02 0,-0.01 0,-0.04 0,-0.06 0,-0.01 0,-0.03 0,-0.06 0,0 0,-0.01 0,-0.02 0,-0.01 0,-0.02 -0.01,-0.02 -0.01,-0.01 -0.02,-0.01 -0.02,-0.01 -0.01,0 -0.01,0 -0.01,0 -0.01,0 -0.04,0.01 -0.05,0.01 -0.02,0.01 -0.03,0.01 -0.05,0.01 0,0.01 -0.01,0.01 -0.02,0.01 0,-0.04 0.01,-0.06 0.01,-0.08 0.01,-0.02 0.03,-0.03 0.05,-0.03 0.03,0 0.04,0.01 0.06,0.03 0.03,-0.02 0.04,-0.03 0.04,-0.05 -0.01,-0.02 -0.03,-0.03 -0.07,-0.03 -0.06,0.01 -0.09,0.03 -0.12,0.05 -0.02,0.03 -0.03,0.06 -0.03,0.1 0,0 0,0.01 0,0.02 -0.03,0.01 -0.04,0.01 -0.04,0.04 0,0 0,0 0,0 0,0 0.02,0 0.03,0 0,0 0,0 0.01,0 0,0.01 0,0.05 0,0.09 0,0.04 0,0.08 0,0.09 0,0.03 -0.01,0.06 -0.03,0.09 0,0 0,0 0,0.01 0,0 0,0 0.01,0 0,0 0,0 0,0 0.04,-0.03 0.07,-0.07 0.08,-0.12 0,-0.03 0,-0.06 0,-0.09 0,-0.03 0,-0.06 0,-0.08zm0.42 0.09c-0.01,0.02 -0.05,0.04 -0.08,0.04 -0.03,0 -0.04,-0.03 -0.05,-0.06 -0.01,-0.04 -0.01,-0.07 0,-0.1 0.01,-0.02 0.02,-0.03 0.04,-0.03 0.02,0 0.03,0.01 0.05,0.04 0.02,-0.01 0.04,-0.02 0.03,-0.04 0,-0.02 -0.02,-0.03 -0.06,-0.03 -0.05,0 -0.09,0.02 -0.11,0.05 -0.02,0.04 -0.03,0.08 -0.02,0.13 0.01,0.05 0.04,0.08 0.1,0.08 0.04,0 0.12,-0.02 0.11,-0.06 0,-0.01 0,-0.01 -0.01,-0.02zm0.29 0.08c-0.01,0 -0.01,0.01 -0.02,0 -0.01,0 -0.01,-0.01 -0.01,-0.02 0,-0.02 -0.01,-0.05 0,-0.08 0,-0.04 0,-0.07 0.01,-0.08 -0.01,-0.01 -0.03,-0.02 -0.05,-0.02 -0.01,-0.01 -0.02,-0.01 -0.03,0 -0.01,-0.02 -0.03,-0.02 -0.05,-0.03 -0.04,-0.01 -0.08,0.01 -0.1,0.04 -0.02,0.04 -0.03,0.08 -0.02,0.13 0.01,0.03 0.03,0.06 0.07,0.07 0,0 0,0 0,0 0.04,0 0.07,-0.02 0.09,-0.07 0.01,0.01 0.01,0.03 0.01,0.04 0.01,0.03 0.03,0.05 0.06,0.06 0.03,0.01 0.08,-0.02 0.07,-0.05 0,0 0,0 0,-0.01 -0.01,0 -0.02,0.01 -0.03,0.02 0,0 0,0 0,0zm-0.14 -0.07c-0.01,0.02 -0.03,0.04 -0.04,0.04 -0.01,-0.01 -0.01,-0.01 -0.02,-0.03 0,-0.03 0,-0.07 0.01,-0.09 0,-0.03 0.02,-0.05 0.04,-0.05 0.02,0.01 0.04,0.02 0.05,0.04 -0.01,0.03 -0.02,0.06 -0.04,0.09 0,0 0,0 0,0z"/>
   <path fill="black" fill-rule="nonzero" d="M0.73 1.26l0.01 -0.05 0.09 -0.04c0.01,0 0.01,-0.01 0.02,-0.01 0,0 0.01,-0.01 0.01,-0.02l0.13 -0.59c0,-0.01 0,-0.01 0,-0.02 -0.01,0 -0.01,0 -0.01,-0.01l-0.1 -0.03 0.02 -0.05 0.37 0c0.07,0 0.12,0.01 0.16,0.02 0.04,0.02 0.07,0.04 0.09,0.06 0.01,0.02 0.02,0.05 0.02,0.08 0,0.06 -0.02,0.1 -0.06,0.14 -0.04,0.04 -0.09,0.07 -0.15,0.08l0 0.01c0.06,0 0.1,0.02 0.14,0.05 0.04,0.02 0.06,0.06 0.06,0.11 0,0.05 -0.01,0.1 -0.03,0.13 -0.03,0.03 -0.05,0.06 -0.09,0.08 -0.04,0.02 -0.08,0.03 -0.12,0.04 -0.04,0.01 -0.09,0.02 -0.13,0.02l-0.43 0zm0.44 -0.1c0.06,0 0.11,-0.01 0.13,-0.04 0.03,-0.03 0.05,-0.07 0.05,-0.13 0,-0.03 -0.01,-0.05 -0.02,-0.07 -0.01,-0.02 -0.03,-0.03 -0.06,-0.03 -0.02,-0.01 -0.05,-0.01 -0.08,-0.01l-0.12 0 0.02 -0.09 0.07 0c0.05,0 0.09,0 0.11,-0.01 0.03,-0.01 0.05,-0.03 0.07,-0.06 0.01,-0.02 0.02,-0.05 0.02,-0.09 0,-0.02 -0.01,-0.04 -0.02,-0.06 -0.01,-0.01 -0.02,-0.02 -0.04,-0.03 -0.02,-0.01 -0.04,-0.01 -0.07,-0.01l-0.07 0 -0.14 0.63 0.15 0z"/>
   <path id="_1" fill="black" fill-rule="nonzero" d="M2.07 0.88l-0.01 0.06c-0.05,0 -0.1,0 -0.14,0.01 -0.04,0.01 -0.07,0.02 -0.1,0.04 -0.02,0.02 -0.03,0.05 -0.03,0.09 0,0.03 0.01,0.06 0.02,0.07 0.02,0.01 0.04,0.02 0.06,0.02 0.03,0 0.05,-0.01 0.08,-0.02 0.02,-0.01 0.04,-0.02 0.06,-0.05l0.06 -0.23c0,-0.01 0,-0.02 0,-0.03 0,-0.01 0,-0.02 0,-0.03 0.01,-0.01 0.01,-0.02 0.01,-0.03 0,-0.03 -0.01,-0.05 -0.03,-0.06 -0.02,-0.02 -0.05,-0.02 -0.08,-0.02 -0.02,0 -0.04,0 -0.07,0.02 -0.03,0.01 -0.05,0.02 -0.08,0.04 -0.02,0.02 -0.04,0.03 -0.06,0.04l-0.04 0 0 -0.13 0.03 -0.01c0.03,-0.01 0.07,-0.02 0.11,-0.03 0.04,-0.01 0.09,-0.01 0.14,-0.01 0.02,0 0.05,0 0.08,0 0.03,0.01 0.05,0.02 0.08,0.03 0.02,0.01 0.04,0.03 0.05,0.05 0.02,0.02 0.02,0.04 0.02,0.07 0,0.01 0,0.03 0,0.05 0,0.02 0,0.03 -0.01,0.04l-0.03 0.15c0,0.01 -0.01,0.02 -0.01,0.04 0,0.02 -0.01,0.03 -0.01,0.05 0,0.01 0,0.02 0,0.02 0,0.02 0,0.03 0.01,0.04 0.01,0.01 0.02,0.02 0.05,0.02 0,0 0.01,-0.01 0.02,-0.01 0.01,0 0.02,0 0.04,-0.01l0.02 0 0 0.06c-0.03,0.02 -0.07,0.03 -0.1,0.04 -0.04,0 -0.06,0 -0.09,0 -0.02,0 -0.04,0 -0.06,-0.01 -0.01,-0.01 -0.03,-0.02 -0.03,-0.04 -0.01,-0.02 -0.02,-0.03 -0.02,-0.05l-0.01 0c-0.02,0.03 -0.05,0.06 -0.08,0.07 -0.02,0.02 -0.05,0.03 -0.07,0.03 -0.03,0 -0.05,0.01 -0.07,0.01 -0.03,0 -0.06,-0.01 -0.09,-0.03 -0.02,-0.01 -0.04,-0.03 -0.05,-0.06 -0.01,-0.02 -0.02,-0.05 -0.02,-0.07 0,-0.05 0.01,-0.09 0.03,-0.12 0.03,-0.03 0.05,-0.06 0.09,-0.07 0.03,-0.02 0.07,-0.03 0.11,-0.04 0.03,-0.01 0.07,-0.01 0.1,-0.01 0.01,0 0.02,0 0.03,0 0.01,0 0.02,0 0.03,0 0.01,0 0.02,0 0.03,0 0.01,0 0.02,0 0.03,0.01z"/>
   <path id="_2" fill="black" fill-rule="nonzero" d="M2.66 1.27c-0.06,0 -0.1,-0.01 -0.14,-0.04 -0.04,-0.02 -0.08,-0.05 -0.1,-0.09 -0.02,-0.04 -0.03,-0.09 -0.03,-0.14 0,-0.06 0.01,-0.11 0.03,-0.16 0.02,-0.04 0.05,-0.08 0.09,-0.12 0.04,-0.03 0.08,-0.06 0.12,-0.08 0.05,-0.02 0.1,-0.02 0.15,-0.02 0.04,0 0.08,0 0.1,0.01 0.03,0.02 0.05,0.03 0.07,0.03l0 0.15 -0.04 0c-0.02,-0.02 -0.04,-0.03 -0.06,-0.04 -0.03,-0.02 -0.05,-0.03 -0.08,-0.04 -0.02,-0.01 -0.04,-0.02 -0.07,-0.02 -0.01,0 -0.02,0 -0.03,0.01 -0.01,0 -0.02,0.01 -0.03,0.01 -0.02,0.02 -0.03,0.04 -0.05,0.07 -0.01,0.03 -0.02,0.06 -0.02,0.09 -0.01,0.03 -0.01,0.06 -0.01,0.08 0,0.04 0,0.08 0.02,0.11 0.01,0.02 0.02,0.05 0.05,0.06 0.02,0.02 0.05,0.02 0.09,0.02 0.03,0 0.06,0 0.08,-0.02 0.03,-0.01 0.06,-0.02 0.08,-0.04l0.01 -0.01 0.03 0 0 0.09c-0.02,0.01 -0.05,0.03 -0.07,0.04 -0.03,0.01 -0.06,0.03 -0.09,0.03 -0.03,0.01 -0.07,0.02 -0.1,0.02z"/>
   <path id="_3" fill="black" fill-rule="nonzero" d="M3.46 0.88l-0.01 0.06c-0.06,0 -0.1,0 -0.14,0.01 -0.04,0.01 -0.08,0.02 -0.1,0.04 -0.02,0.02 -0.04,0.05 -0.04,0.09 0,0.03 0.01,0.06 0.03,0.07 0.02,0.01 0.04,0.02 0.06,0.02 0.02,0 0.04,-0.01 0.07,-0.02 0.03,-0.01 0.05,-0.02 0.07,-0.05l0.05 -0.23c0,-0.01 0,-0.02 0.01,-0.03 0,-0.01 0,-0.02 0,-0.03 0,-0.01 0,-0.02 0,-0.03 0,-0.03 -0.01,-0.05 -0.03,-0.06 -0.02,-0.02 -0.04,-0.02 -0.07,-0.02 -0.03,0 -0.05,0 -0.08,0.02 -0.02,0.01 -0.05,0.02 -0.07,0.04 -0.03,0.02 -0.05,0.03 -0.06,0.04l-0.04 0 0 -0.13 0.02 -0.01c0.04,-0.01 0.08,-0.02 0.12,-0.03 0.03,-0.01 0.08,-0.01 0.13,-0.01 0.03,0 0.05,0 0.08,0 0.03,0.01 0.06,0.02 0.08,0.03 0.02,0.01 0.04,0.03 0.06,0.05 0.01,0.02 0.02,0.04 0.02,0.07 0,0.01 0,0.03 -0.01,0.05 0,0.02 0,0.03 0,0.04l-0.04 0.15c0,0.01 0,0.02 0,0.04 -0.01,0.02 -0.01,0.03 -0.01,0.05 -0.01,0.01 -0.01,0.02 -0.01,0.02 0,0.02 0.01,0.03 0.01,0.04 0.01,0.01 0.03,0.02 0.05,0.02 0.01,0 0.02,-0.01 0.03,-0.01 0.01,0 0.02,0 0.03,-0.01l0.02 0 0 0.06c-0.03,0.02 -0.06,0.03 -0.1,0.04 -0.03,0 -0.06,0 -0.08,0 -0.03,0 -0.05,0 -0.06,-0.01 -0.02,-0.01 -0.03,-0.02 -0.04,-0.04 -0.01,-0.02 -0.01,-0.03 -0.01,-0.05l-0.01 0c-0.03,0.03 -0.06,0.06 -0.08,0.07 -0.03,0.02 -0.05,0.03 -0.08,0.03 -0.02,0 -0.04,0.01 -0.06,0.01 -0.04,0 -0.07,-0.01 -0.09,-0.03 -0.03,-0.01 -0.04,-0.03 -0.06,-0.06 -0.01,-0.02 -0.02,-0.05 -0.02,-0.07 0,-0.05 0.02,-0.09 0.04,-0.12 0.02,-0.03 0.05,-0.06 0.08,-0.07 0.04,-0.02 0.07,-0.03 0.11,-0.04 0.04,-0.01 0.07,-0.01 0.11,-0.01 0,0 0.01,0 0.02,0 0.01,0 0.02,0 0.03,0 0.02,0 0.03,0 0.04,0 0.01,0 0.02,0 0.03,0.01zm0.04 -0.44l-0.19 0.13 -0.04 -0.03 0.12 -0.17c0.02,-0.02 0.03,-0.04 0.05,-0.04 0.01,-0.01 0.03,-0.01 0.05,-0.01 0.02,0 0.03,0 0.04,0.01 0.01,0.01 0.02,0.03 0.02,0.04 0,0.02 0,0.03 -0.01,0.04 -0.01,0.01 -0.02,0.02 -0.04,0.03z"/>
   <path id="_4" fill="black" fill-rule="nonzero" d="M4.31 1.26c-0.02,0 -0.04,0 -0.06,-0.01 -0.01,-0.01 -0.03,-0.02 -0.04,-0.04 0,-0.01 -0.01,-0.03 -0.01,-0.05 0,-0.01 0,-0.02 0,-0.03 0.01,-0.02 0.01,-0.04 0.01,-0.05l0.05 -0.21c0.01,-0.01 0.01,-0.03 0.01,-0.04 0,-0.01 0,-0.02 0,-0.03 0,-0.02 0,-0.04 -0.02,-0.06 -0.01,-0.01 -0.03,-0.02 -0.07,-0.02 -0.02,0 -0.04,0.01 -0.07,0.01 -0.02,0.01 -0.04,0.02 -0.06,0.05l-0.08 0.36c0,0.02 0,0.04 0,0.06 0,0.01 0,0.03 0,0.06l-0.18 0 0.11 -0.5c0,-0.01 0,-0.01 -0.01,-0.02 0,0 0,0 -0.01,-0.01l-0.07 -0.03 0 -0.05 0.26 -0.03 -0.01 0.1 0 0c0.03,-0.03 0.06,-0.05 0.09,-0.07 0.02,-0.01 0.04,-0.02 0.07,-0.03 0.02,0 0.04,0 0.06,0 0.04,0 0.08,0.01 0.11,0.03 0.03,0.03 0.04,0.06 0.04,0.11 0,0.01 0,0.02 0,0.03 0,0.02 0,0.03 0,0.04l-0.04 0.18c-0.01,0.02 -0.01,0.04 -0.02,0.07 0,0.02 -0.01,0.04 -0.01,0.04 0,0.02 0.01,0.03 0.01,0.04 0.01,0.01 0.03,0.02 0.05,0.02 0.01,0 0.02,-0.01 0.03,-0.01 0.01,0 0.02,0 0.03,-0.01l0.02 0 0 0.06c-0.02,0.02 -0.04,0.02 -0.06,0.03 -0.03,0.01 -0.05,0.01 -0.07,0.01 -0.02,0 -0.04,0 -0.06,0z"/>
  </g>
 </g>
</svg>
