<?xml version="1.0" encoding="UTF-8"?>
<!DOCTYPE svg PUBLIC "-//W3C//DTD SVG 1.1//EN" "http://www.w3.org/Graphics/SVG/1.1/DTD/svg11.dtd">
<!-- Creator: CorelDRAW (Versión de evaluación) -->
<svg xmlns="http://www.w3.org/2000/svg" xml:space="preserve" width="114px" height="32px" version="1.1" shape-rendering="geometricPrecision" text-rendering="geometricPrecision" image-rendering="optimizeQuality" fill-rule="evenodd" clip-rule="evenodd"
viewBox="0 0 3.46 0.97"
 xmlns:xlink="http://www.w3.org/1999/xlink"
 xmlns:xodm="http://www.corel.com/coreldraw/odm/2003">
 <g id="Capa_x0020_1">
  <metadata id="CorelCorpID_0Corel-Layer"/>
  <g id="_2238559546672">
   <path fill="black" d="M1.72 0.45l0 0 0 -0.01 0.01 0 0 0 0 0 0 0.01 0 0 0 0 0 0 0 0 0 0 0 0.01 0 0 0 0 0.01 0 0 0.01 0 0 0 0 0 0 0 0 0 0 0 0.01 0 0 0 0 0.01 0 0 0.01 0 0 0 0.01 0 0 0 0.01 0 0 0 0.01 0 0 0 0.03 0 0 0 0.01 0 0 0 0 0 0 0 0.01 0 0 0 0 -0.01 0 0 0 0 0 0 0 -0.01 0 0 0 0 0 0 0 0 0 0 -0.01 0 0 0 0 0 0 0 -0.01 0 0 0 0 -0.01 0 0 -0.02 0 0 0 -0.08zm-0.28 0.01l0 0 0 0.01 0 0 0 0 0 0 0 0.01 -0.01 0 0 0 0 0 0 0.01 0 0 0 0.01 0 0 0 0 0 0 0 0 0 0 0 0.01 -0.01 0 0 0 0 0 0 0.01 0 0 0 0 0 0 0 0 0 0 0 0.01 0 0 0 0 -0.01 0 0 0 0 0 0 0 0 0 0 0.01 0 0 0 0 0 0 0 0 -0.01 0 0 0 0 0 0 0 0 0 0 0 -0.01 0 0 0 0 0 0 0 -0.01 0 0 0 0 0 0 0 0 0 0 -0.01 0 0 0 0 0 0 0 -0.01 0 0 0 -0.04 0 0 0 -0.01 0 0 0 -0.01 0 0 0 -0.01 0 0 0 -0.01 0 0 0 0 0.01 0 0 -0.01 0 0 0 0 0 0 0 0 0 0 0 -0.01 0 0 0 0 0 0 0 0 0.01 0 0 0 0 0 0 -0.01 0 0 0 0 0 0 0 0 0 0 0 0 0.01 0 0 0 0.01 0 0 0 0 0 0 0 0 0 0 0 0.01 0 0 0 0 0 0 0 0 0 0 0.01 0 0 0 0 0.01 0 0 0 0 0 0 0 0 0 0 0 0 0 0 0 0 0 0 0.03 0 0 0 0.01zm1.9 -0.04l-0.01 0 0 0.01 0 0 0 0 0 0 0 0 0 0 0 0 0 0 0 0.01 0 0 0 0 -0.01 0 0 0 0 0 0 0 0 0 0 0 -0.01 0 0 0 0 0 0 0 -0.01 0 0 0 0 0 0 -0.02 0 0 0 0 0.01 0 0 0 0 0 0 -0.01 0 0 0 0 0 0 0 0 0 0 0 0 0 0 0 0 0.01 0 0 0 0 0 0 0 0 0 0 -0.01 0 0 0 0 0 0 0 0 0.01 0 0 0 0 0 0 0 0.01 0 0 0.01 0 0 0 0.01 0 0 0 0zm-0.65 -0.03l0 0 0 -0.01 0.01 0 0 -0.01 0 0 0 -0.01 0 0 0 0 0 0 0 0.01 0 0 0 0 0 0 0 0 0.01 0 0 0.01 0 0 0 0 0 0 0 0 0 0 0 0 0 0 0 0.01 0 0 0 0 0.01 0 0 0 0 0 0 0 0 0 0 0 0 0 0 0 0 0 0 0.01 0 0 0 0 0.01 0 0 0 0 0 0 0 0 0 0 0 0 0 0 0 0.01 0 0 0 0 0 0 0.01 0 0 0 0 0 0 0 0 0 0 0 0 0 0 0 0 0 0 0 0.01 0 0 0 0 0 0 0 0 0 0 0 0 0 0 0 0.01 -0.01 0 0 0 0 0 0 0 0 0 0 0 0 0 0 0 -0.01 0 0 0 0 0 0 0 0 0 0 0.01 -0.01 0 0 -0.01 -0.01 0 0 0 0 0 0 0 0 0 0 0 0 0 0 0 0 0 0 -0.01 0 0 0 0 -0.01 0 0 -0.01 0 0 0 -0.02zm-0.46 -0.04l0 0 0 0.01 0 0 0 0 0 0 0 0.01 -0.01 0 0 0 0 0 0 0.01 0 0 0 0 0 0 0 0 0 0 0 0.01 0 0 0 0 -0.01 0 0 0.01 0 0 0 0 0 0 0 0 0 0 0 0.01 0 0 0 0 0 0 0 0 -0.01 0 0 0.01 0 0 0 0 0 0 0 0 0 0 0 0 0 0 0 0.01 0 0 0 0 -0.01 0 0 0 0 0 0 0 0 0 0 0.01 0 0 0 0 0 0 0 0 0 0 0 0 -0.01 0 0 0 0 0 0 0.01 0 0 0 0 0 0 0 0 0 0 0 0 -0.01 0 0 0 0 0 0 0 -0.01 0 0 0 0 0 0 0 0 0 0 0 0 0 0 -0.01 0 0 0 -0.03 0 0 0 -0.01 0 0 0 -0.01 0 0 0 0 0 0 0 -0.01 0.01 0 0 0 0 0 0 -0.01 0 0 0 0 0 0 0 -0.01 0 0 0 0 0 0 0 0 0.01 0 0 -0.01 0 0 0 0 0 0 0 0 0 0 0 0 0 0 0 -0.01 0.01 0 0 0 0 0 0 0 0 0 0 0 0 0 0 -0.01 0 0 0 0 0 0 0 0 0.01 0 0 0 0 0 0 0 0 0 0 0 0 0 0 0 0.01 0 0 -0.01 0.01 0 0 0.01 0 0 0 0 0 0 0 0 0.01 0 0 0 0 0 0 0 0 0 0 0 0 0 0 0.01 0 0 0 0.01 0 0 0 0zm0.54 0l0 0 0 0.01 0 0 0 0 -0.01 0 0 0.01 0 0 0 0.01 0 0 0 0 0 0 0 0 0 0 0 0.01 0 0 0 0 -0.01 0 0 0 0 0 0 0 0 0 0 0 0 0 0 0 -0.01 0 0 0 0 0 0 0 0 0 0 -0.01 0 0 0 0 0 0 0 0 0 0 0 0 -0.01 0 0 0 0 0 0 -0.01 0 0 0 0 0 0 0 0 0 0 0 -0.01 -0.01 0 0 -0.01 0 0 0 -0.02 0 0 0 -0.01 0.01 0 0 0 0 0 0 -0.01 0 0 0 0 0 0 0 0 0 0 0 -0.01 0.01 0 0 0 0 0 0 0 0 0 0 0 0 0 0 0 0 0 0 0 0.01 0 0 0 0 0 0 -0.01 0.01 0 0 0.01 0 0 0 0 0 0 0 0 0.01 0 0 0 0 0 0 0 0 0 0 0.01 0 0 0 0.03 0 0 0 0.01zm0.43 -0.03l0 0 0 0.01 0 0 0 0 0 0 0 0 0 0 0 0 -0.01 0 0 0.01 0 0 0 0 0 0 0 0 0 0 0 0 0 0 0 0 0 0 0 0.01 -0.01 0 0 0 0 0 0 0 0 0 0 0 0 0 0 0 0 0 0 0 0 0 0 0.01 -0.01 0 0 0 0 0 0 0 0 0 0 0 0 0 0 0 0 0 0 0 -0.01 0 0 0.01 0 0 0 0 0 0 0 0 0 0 0 0 0 0 0 0 -0.01 0 0 0 0 0 0 0 0 0 0 0 0 0 0 0.01 -0.01 0 0 0 0 0 0 0 0 0 0 -0.01 0 0 0 0 0 0 0 -0.01 0 0 0 0 0 0 0 -0.01 0 0 0 0 0.01 0 0 0 0 0 0 -0.01 0 0 0 0 0 0 0 -0.01 0 0 0 0 0 0 0 0 0.01 0 0 0 0 0 0 -0.01 0 0 0 0 0 0 0 0 0 0 0 0 0 0 0 0 0.01 0 0 -0.01 0 0 0 0 0 0 0 0 0 0 0 0 0 0 0 0 0.01 0 0 0 0 0 0 0 0 0 0 -0.01 0 0 0 0 0 0 0 0 0.01 0 0 0 0.01 0 0 0 0 0 0 0 0 0 0 0.02 0 0 0 0zm-1.5 -0.07l0 0 0 0.04 -0.01 0 0 0.01 0 0 0 0.01 0 0 0 0.01 0 0 0 0.01 0 0 0 0.02 0 0 0 0.01 -0.01 0 0 0.01 0 0 0 0.01 0 0 0 0.01 0 0 0 0.02 0 0 0 0.02 -0.01 0 0 0.01 0 0 0 0 0 0 0 0 0 0 0 0.01 0 0 0 0 0 0 0 0.01 -0.01 0 0 0 0 0 0 0 0 0 0 0.01 0 0 0 0 0 0 0 0 0 0 0 0.01 -0.01 0 0 0 0 0 0 0 0 0 0 0.01 0 0 0 0 0 0 0 0 0 0 0 0 -0.01 0 0 0 0 0 0 0.01 0 0 0 0 0 0 0 0 0 0 0 0 -0.01 0 0 0.01 0 0 0 0 0 0 0 0 0 0 0 0 -0.01 0 0 0 0 0 0 0 -0.01 0 0 0 0 0 0 0 0 0 0 -0.01 0 0 0 -0.01 0 0 0 -0.04 0 0 0 -0.02 0 0 0 -0.01 0 0 0 -0.01 0 0 0 0 0.01 0 0 -0.01 0 0 0 -0.01 0 0 0 -0.01 0 0 0 0 0 0 0 -0.01 0 0 0 0 0 0 0 0 0 0 0 0 -0.01 0 0 0 -0.01 0 0 -0.01 -0.01 0 0 0 -0.02 0 0 0 -0.01 0 0 0.01 0 0 0 0.01 0 0 0 0.01 0 0 0 0 0 0 0 0.02 0 0 0 0.02 -0.01 0 0 0.02 0 0 0 0 0 0 0 0.01 0 0 0 0.01 0 0 0 0 0 0 0 0 -0.01 0 0 0.01 0 0 0 0 0 0 0 0.01 0 0 0 0 0 0 0 0 0 0 0 0.01 -0.01 0 0 0 0 0 0 0 0 0 0 0.01 0 0 0 0 0 0 0 0 0 0 0 0 -0.01 0 0 0.01 0 0 0 0 0 0 0 0 0 0 0 0 0 0 0 0 -0.01 0 0 0 0 0 0 0.01 0 0 0 0 -0.01 0 0 0 0 0 0 -0.01 0 0 0 0 0 0 0 0 -0.01 0 0 -0.01 0 0 0 -0.01 0 0 0 -0.06 0 0 0 -0.02 0 0 0 -0.01 0.01 0 0 -0.02 0 0 0 0 0 0 0 0 0 0 0 -0.01 0 0 0 -0.01 0 0 0 0 0.01 0 0 -0.01 0 0 0 0 0 0 0 -0.01 0 0 0 0 0 0 0 -0.01 0 0 0 -0.02 0.01 0 0 -0.01 0 0 0 0 0 0 0 -0.02 0 0 0 -0.02 0 0 0 0 -0.01 0 0 0 -0.02 0 0 0 0 0 0 0 -0.01 0 0 0 0 0 0 0 0 0 0 0 -0.01 0 0 0.01 0 0 0 0 0 0 0 0 0 0 0 0 0 0 0 0 0 0 0 0.01 -0.01 0 0 0 0 0 0 0 0 0 0 0.01 0 0 0 0 0 0 0 0.01 -0.01 0 0 0 0 0 0 0.02 0 0 0 0.01 0 0 0 0.03 0 0 0 0.02 -0.01 0 0 0 0 0 0 0 -0.01 0 0 0 0 0 0 0 -0.01 0 0 0 0 0 0 -0.01 -0.02 0 0 0 -0.02 0 0 0 -0.01 0 0 0.01 0 0 0 0 0 0 0 0 -0.01 0 0 0 0 0 0 0 0 0 0 0 0 0 0 0 0 0 0 0 -0.01 0 0 0.01 0 0 0 0 0 0 0 0 0 0 0 0 0 0 0 0 -0.01 0 0 0.01 0 0 0 0 0 0 0 0 0 0 0 0 0 0 0 0.01 0 0 0 0 -0.01 0 0 0 0 0 0 0.01 0 0 0 0 0 0 0 0.01 0 0 0 0 0 0 0 0.02 -0.01 0 0 0 0 0 0 0.04 0 0 0 0 0.01 0 0 0.01 0 0 0 0.01 0 0 0 0 0 0 0 0.01 0 0 0 0 0 0 0 0 0.01 0 0 0.01 0 0 0 0 0 0 0 0 0 0 0 0 0 0 0 0 0 0 0 0.01 0.01 0 0 0 0 0 0 0 0 0 0 0 0 0 0 0 0.01 0 0 0 0 0 0 0.01 0 0 0 0 0.01 0 0 0 0 0 0 0 0.01 0 0 0 0 0 0 0 0 0 0 0 0.01 0 0 0 0 0 0 0.01 0 0 0 0 0.02 0 0 0 0.01 0 0 -0.01 0 0 0 0 0 0 0 0 0 0 0 0 0.01 0 0 0 0 0 0 0 0 0 0 -0.01 0 0 0 0 0 0 0 0 0 0 0 0 0.01 0 0 0 0 0 0 -0.01 0 0 0 0 0 0 0 0 0 0 0 0 0 0 0 -0.01 0.01 0 0 0 0 0 0 -0.01 0 0 0 0 0 0 0 0 0 0 0 0 0.01 0 0 0.01 0 0 0 0 0 0 0 0 0 0 0 0 0.01 0 0 0 0 0 0 0 0 0 0 0.01 0 0 0 0 0 0 0 0 0.01 0 0 0 0 0 0 0 0 0 0 0 0 0 0 0 0.01 0 0 0 0 0 0 0.01 0 0 0 0 0.01 0 0 0 0 0 0 0 0 0 0 0 0.02 0 0 0 0.01 0 0 0 0 0 0 0 0 0 0 0 0 0 0 -0.01 0 0 0 0 0 0 0 0 0.01 0 0 0 0 0 0 0 0 0 0 -0.01 0 0 0 0 0 0 0 0 0 0 0 0 0.01 0 0 -0.01 0 0 0 0 0 0 0 0 0 0 0 -0.01 0 0 0 0 0 0 0 -0.01 0.01 0 0 0 0 0 0 0 0 0 0 0 0 0 0 0.01 0 0 0 0 0 0 0 0 0.01 0 0 0 0 0 0 0.01 0 0 0 0 0 0 0 0 0 0 0 0 0.01 0 0 0 0 0 0 0 0 0 0 0 0.01 0 0 0.01 0 0 0 0 0 0 0 0 0.01 0 0 0 0 0 0 0 0 0 0 0 0.01 0 0 0 0 0 0 0 0.01 0 0 0.01 0.01 0 0 -0.01 0.01 0 0 0 0 0 0 0 0 0 0 0 0 0 0 0 0.01 0 0 0 0 0 0 0 0 0 0 -0.01 0 0 0 0 0 0 0 0 0.01 0 0 0 0 0 0 0 0 0 0 -0.01 0 0 0 0 0 0 0 0 0 0 0 -0.01 0.01 0 0 0 0 0 0 0 0 0 0 0 0 0 0 0.02 0 0 0 0.01 0 0 0 0.02 0.01 0 0 0 0 0 0 0.01 0 0 0 0 0 0 0 0.01 0 0 0 0 0.01 0 0 0 0 0 0 0 0 0 0 0.01 0 0 0 0 0 0 0 0 0 0 0 0 0.01 0 0 0 0 0 0 0 0 0 0 0 0 0 0 0.01 0.01 0 0 0 0.01 0 0 0 0.01 0 0 0 0 0 0 0 0.01 0 0 0 0 0 0 0 0 0 0 0 0.01 0 0 0.01 0.01 0 0 -0.01 0 0 0 0 0.01 0 0 0 0 0 0 0 0 0 0 0 0 0 0 0 0.01 0 0 -0.01 0 0 0 0 0 0 0 0 0 0 0 -0.02 0 0 0 -0.03 0 0 0 -0.01 0 0 0 -0.01 0 0 0 -0.01 0 0 0 -0.01 -0.01 0 0 0 0 0 0 -0.01 0 0 0 0 0 0 0 -0.01 0 0 0 0 0 0 0 0 -0.01 0 0 -0.01 0 0 0 0 0 0 0 0 0 0 0 -0.01 0 0 0 0 0 0 0 0 -0.01 0 0 -0.01 0 0 0 0 0 0 0 0 0 0 0 0 0 0 0 0 0 0 0 0 -0.01 0 0 -0.01 0.01 0 0 0 0.01 0 0 0 0 0 0 0.01 0.02 0 0 0 0.02 0 0 0.01 0 0 0 0.02 0 0 0 0 0.01 0 0 0.01 0 0 0 0 0 0 0 0 0 0 0 0 0 0 0 0.01 0 0 0 0 0.01 0 0 0 0 0 0 0 0 0 0 0 0 0 0 0 0.01 0 0 0.01 0 0 0 0 0 0 0 0 0 0 0 0 0.01 0 0 0 0 0 0 0 0 0 0 0 0.01 0 0 0 0 0 0 0.01 0.01 0 0 0 0.02 0 0 -0.01 0.01 0 0 0 0 0 0 0 0 0 0 0 0 0 0 0 0 0 0 0 0.01 0 0 0 0 0 0 -0.01 0 0 0 0 0 0 0 0 0 0 0 0 0.01 0 0 0 0 0 0 -0.01 0 0 0 0 0 0 0 0 0 0 0 0 0 0 0 -0.01 0.01 0 0 0 0 0 0 -0.01 0 0 0 0 0 0 0 0 0 0 0 -0.01 0 0 0 0 0.01 0 0 0 0 0 0 0 0 0 0 0 0 0 0 0 0 0 0 0.01 0 0 0 0 0.01 0 0 0 0 0 0 0 0 0 0 0 0 0 0 0.01 0 0 0 0 0 0 0 0 0.01 0 0 0 0 0 0 0 0 0 0 0 0 0 0 0.01 0.01 0 0 0 0 0 0 0 0 0 0 0 0 0 0 0 0.01 0 0 0 0 0 0 0 0 0 0 0 0 0 0 0.01 0.01 0 0 0 0 0 0 0 0 0 0 0 0.01 0 0 0 0 0 0 0 0 0 0 0 0.01 0 0 0 0 0 0 0.01 0.01 0 0 0 0.02 0 0 0 0.01 0 0 -0.01 0 0 0 0 0.01 0 0 0 0 0 0 0 0 0 0 0 0 0 0 0 0.01 0 0 0 0 0 0 0 0 0 0 -0.01 0 0 0 0 0 0 0 0 0.01 0 0 0 0 0 0 0 0 0 0 0 0 0 0 0 0 0 0 -0.01 0.01 0 0 0 0 0 0 0 0 0 0 0 0 0 0 -0.01 0.01 0 0 0 0 0 0 0 0 0 0 0 0 0 0 0 0 0 0 0 0 0 0 -0.01 0.01 0 0 0 0 0 0 0 0 0 0 0 0 0 0 -0.01 0 0 0 0 0 0 0 0 0.01 0 0 -0.01 0 0 0 0.01 0 0 0 0.01 0 0 0 0 0 0 0 0.01 0 0 0 0 0.01 0 0 0 0 0 0 0 0 0 0 0 0 0 0 0.01 0 0 0 0 0.01 0 0 0 0 0 0 0 0 0 0 0 0 0 0 0 0 0 0 0.01 0.01 0 0 0 0 0 0 0 0 0 0 0 0 0 0 0 0.01 0 0 0 0 0 0 0 0.01 0 0 0 0.01 0 0 0 0 0 0 0 0.01 0 0 0 0 0 0 0 0 0 0 0 0 0 0 0 0 0 0 0 0.01 0 0 -0.01 0 0 0 0 0 0 0 0 0 0 0 0 0 0 0 0 0 0 0 0 0.01 0 0 -0.01 0 0 0 0 0 0 0 0 0 0 0 0 0 0 0 -0.01 0 0 0 0 0.01 0 0 0 0 0 0 -0.01 0 0 0 0 0 0 0 0 0 0 0 -0.01 0 0 0 0 0.01 0 0 0 0 0 0 -0.01 0 0 0 0 0 0 0 0.03 0 0 0 0 0.01 0 0 0 0 0 0 0.01 0 0 0 0 0 0 0 0 0 0 0 0 0.01 0 0 0 0 0 0 0 0 0 0 0 0 0 0 0.01 0.01 0 0 0 0 0 0 0 0 0 0 0 0.01 0 0 0 0 0 0 0 0 0 0 0 0.01 0 0 0 0 0 0 0.01 0.02 0 0 -0.01 0.01 0 0 0 0 0 0 0 0 0 0 0 0 0 0 0 0.01 0 0 0 0 0 0 -0.01 0 0 0 0 0 0 0 0 0 0 0 0 0 0 0 0 0.01 0 0 -0.01 0 0 0 0 0 0 0 0 0 0 0 0 0 0 0 -0.01 0 0 0 0 0.01 0 0 0 0 0 0 -0.01 0 0 0 0 0 0 0 0 0 0 0 0 0 0 0 -0.01 0.01 0 0 0 0 0 0 0 0 0 0 0 0 0 0 0 0 0 0 0.01 0 0 0 0 0.01 0 0 0 0 0 0 0 0 0 0 0 0 0 0 0 0 0 0 0.01 0.01 0 0 0 0 0 0 0 0 0 0 0 0 0 0 0 0 0 0 0 0 0 0 0 0.01 0 0 0.01 0 0 0 0 0 0 0 0 0 0 0 0 0 0 0 0 0.01 0 0 0 0 0 0 0 0 0 0 0.01 0 0 0 0 0.01 0 0 0 0 0 0 0 0 0 0 0 0 0 0 0 0.01 0 0 0 0 0 0 0 0 0 0 0.01 0.01 0 0 0 0 0 0 0 0.04 0 0 0 0 0 0 0 0.01 0 0 -0.01 0 0 0 0 0 0 0 0 0.01 0 0 0 0 0 0 0 0 0 0 0 0 0 0 0 0.01 0 0 0 0 0 0 -0.01 0 0 0 0 0 0 0 0 0 0 0 0 0 0 0 0 0.01 0 0 0 0 0 0 -0.01 0 0 0 0 0 0 0 0 0 0 0 0 0.01 0 0 0 0 0 0 0 0 0 0 -0.01 0 0 0 0 0 0 0 0 0 0 0 0 0.01 0 0 0 0 0 0 -0.01 0 0 0 0 0 0 0 0 0 0 0 0 0.01 0 0 0 0 0 0 -0.01 0 0 0 0.01 0 0 0 0 0 0 0 0.01 0 0 0 0 0.01 0 0 0 0 0 0 0 0 0 0 0.01 0 0 0 0 0 0 0 0 0 0 0 0 0.01 0 0 0 0 0 0 0 0 0 0 0 0 0 0 0 0 0 0 0.01 0.01 0 0 0 0 0 0 0 0 0 0 0 0 0 0 0 0 0 0 0 0.01 0 0 0 0 0 0 0.01 0.01 0 0 0 0 0 0 0 0 0 0 0 0.02 0 0 0 0.01 0 0 0 0 0 0 0 0 0 0 -0.01 0 0 0 0 0.01 0 0 0 0 0 0 0 0 0 0 0 0 0 0 0 0 0 0 -0.01 0.01 0 0 0 0 0 0 0 0 0 0 0 0 0 0 0 0 0 0 0 0.01 0 0 -0.01 0 0 0 0 0 0 0 0 0 0 0 0 0 0 0 -0.01 0 0 0 0 0.01 0 0 0 0 0 0 0 0 0 0 -0.01 0 0 0 0 0 0 0 0 0 0 0 0 0.01 0 0 0.01 0 0 0 0 0 0 0 0 0 0 0 0 0 0 0 0.01 0 0 0 0 0.01 0 0 0 0 0 0 0 0 0 0 0 0 0 0 0.01 0 0 0 0 0 0 0 0 0.01 0 0 0 0 0 0 0 0 0 0 0 0 0 0 0 0.01 0 0 0.01 0 0 0 0 0 0 0 0 0.01 0 0 0 0 0 0 0 0.01 0 0 0 0 0 0 0 0 0 0 0.01 0.01 0 0 0 0.01 0 0 0 0.01 0 0 0 0.01 0 0 0 0.01 0 0 -0.01 0 0 0 0 0 0 0 0 0.01 0 0 0 0 0 0 0 0 0 0 0 0 0 0 0 0 0 0 -0.01 0.01 0 0 0 0 0 0 0 0 0 0 0 0 0 0 0 0 0 0 0 0.01 0 0 0 0 0 0 -0.01 0 0 0 0 0 0 0 0 0 0 0 0 0 0 0 0 0.01 0 0 -0.01 0 0 0 0 0 0 0 0 0.01 0 0 0 0.01 0 0 0 0.01 0 0 0 0 0 0 -0.01 0.01 0 0 0 0 0 0 0 0 0 0 0 0 0 0 0 0.01 0 0 0 0 0 0 0 0 0 0 0 0 0 0 -0.01 0.01 0 0 0 0 0 0 0 0 0 0 0.01 0 0 0 0.02 0 0 0 0 0 0 0 0.01 0 0 0 0 0.01 0 0 0 0 0 0 0 0 0 0 0 0 0 0 0 0 0 0 0 0.01 0 0 0 0 0 0 0.01 0 0 0 0 0 0 0 0 0.01 0 0 0 0 0 0 0 0 0 0 0 0.01 0 0 0 0 0 0 0 0 0 0 0 0.01 0 0 -0.01 0 0 0 -0.01 0 0 0 0 0 0 0 -0.01 0 0 0 0 0.01 0 0 0 0 0 0 -0.01 0 0 0 0 0 0 0 -0.01 0 0 0 0 0.01 0 0 0 0 0 0 -0.01 0 0 0 0 0 0 0 0 0 0 0 0 0 0 0 -0.01 0.01 0 0 0 0 0 0 0 0 0 0 0 0 0 0 -0.01 0 0 0 0 0 0 0 0 0.01 0 0 0 0 0 0 0 0 0 0 -0.01 0 0 0 0 0 0 0 0 0 0 0 0 0.01 0 0 0 0 0 0 0 0 0 0 -0.01 0 0 0 0 0 0 0 0 0.01 0 0 0 0 0 0 0 0 0 0 -0.01 0 0 0 0 0 0 0 0 0.01 0 0 0 0 0 0 0 0 0 0 -0.01 0 0 0 0 0 0 0 0 0 0 0 0 0.01 0 0 0 0 0 0 0 0 0 0 0 0 0 0 -0.01 0 0 0 0 0.01 0 0 0 -0.01 0 0 0.01 0 0 0 0 0 0 0 0 0 0 0 0.01 0 0 0 0 0 0 0 0.01 -0.01 0 0 0 0 0 0 0 0 0 0 0.01 0 0 0 0 0 0 0 0.01 0 0 0 0 -0.01 0 0 0.01 0 0 0 0.01 0 0 0 0 0 0 0 0.01 0 0 0 0.03 0 0 0 0 0 0 0 0 0 0 0 0 0.01 0 0 0.01 0 0 0 0 0 0 0 0 0 0 0 0 0.01 0 0 0 0 0 0 0 0 0 0 0 0.01 0 0 0 0 0 0 0.01 0 0 0 0 0 0 0 0 0 0 0 0 0.01 0 0 0 0 0 0 0 0 0 0 0 0.01 0 0 0.01 0.01 0 0 -0.01 0 0 0 0 0.01 0 0 0 0 0 0 0 0 0 0 0 0.01 0 0 0 0 0 0 -0.01 0 0 0 0 0 0 0 0 0 0 0 0 0.01 0 0 0 0 0 0 0 0 0 0 0 0 0 0 -0.01 0 0 0 0 0 0 0 0 0.01 0 0 0 0 0 0 0 0 0 0 0 0 0 0 -0.01 0 0 0 0 0.01 0 0 0 0 0 0 0 0 0 0 0 0 0 0 -0.01 0 0 0 0 0 0 0 0 0.01 0 0 0 0 0 0 -0.01 0 0 0 0 0 0 0 0 0 0 0 0 0 0 0 0 0.01 0 0 0.01 0 0 0 0 0 0 0 0 0 0 0 0.01 0 0 0 0 0 0 0 0 0.01 0 0 0 0 0 0 0.01 0 0 0 0 0 0 0 0 0 0 0 0 0.01 0 0 0 0 0 0 0 0 0 0 0.01 0 0 0 0 0 0 0 0 0 0 0 0 0.01 0 0 0 0 0 0 0 0.01 0 0 0 0 0 0 0.01 0 0 0 0 0 0 0 0 0.01 0 0 0 0 0 0 0 0 0 0 0 0.01 0 0 0 0 0 0 0.01 0.01 0 0 0 0.02 0 0 0 0.01 0 0 -0.01 0 0 0 0 0.01 0 0 0 0 0 0 0 0.01 0 0 0 0 0 0 0 0 0 0 0 0 0 0 -0.01 0.01 0 0 0 0 0 0 0 0 0 0 0 0 0 0 0 0.01 0 0 0 0 0 0 0 0 0 0 0 0 0 0 -0.01 0 0 0 0 0.01 0 0 0 0 0 0 0 0 0 0 0 0 0 0 0 0 0 0 -0.01 0.01 0 0 0 0 0 0 0 0 0 0 0 0 0 0 0 0 0 0 0 0 0 0 -0.01 0.01 0 0 0 0 0 0 0 0 0 0 0 0 0 0 0 0 0 0 -0.01 0 0 0 0 0.01 0 0 0 0 0 0 0 0 0 0 -0.01 0 0 0 0 0 0 0 0 0 0 0 0 0.01 0 0 0 0 0 0 -0.01 0 0 0 0 0 0 0 0 0 0 0 0 0.01 0 0 -0.01 0 0 0 0 0 0 0 0 0 0 0 -0.01 0 0 0 0 0 0 0 0 0.01 0 0 -0.01 0 0 0 0 0 0 0 0 0 0 0 0 0 0 0 -0.01 0 0 0 0 0.01 0 0 0.01 0 0 0 0 0 0 0 0 0 0 0 0.01 0 0 0 0 0 0 0 0 0.01 0 0 0.01 0 0 0 0 0 0 0 0 0 0 0 0.01 0 0 0 0 0 0 0 0 0 0 0 0.01 0 0 0 0 -0.01 0 0 0 0 0 0 0 0 0 0 0 0 0 0 0 -0.01 0 0 0 0 0 0 0 0 0 0 0.01 0 0 0 0 -0.01 0 0 0 0 0 0 0 0 0 0 0 0 0 0 0 -0.01 0 0 0.01 0 0 0 0 0 0 0 0 0 0 0 0 -0.01 0 0 0.01 0 0 0 0.01 0 0 0 0 0.01 0 0 0.01 0 0 0 0 0 0 0 0 0 0 0 0 0 0 0 0 0.01 0 0 0 0 0 0 0.01 0 0 0 0 0 0 0 0 0 0 0 0 0.01 0 0 0 0 0 0 0 0 0 0 0.01 0 0 0 0 0.01 0 0 0 0 0 0 0 0 0 0 0 0.01 0 0 0 0.02 0 0 0 0.01 0 0 0 0 0 0 0 0 0 0 0 0.01 0 0 0 0 0 0 -0.01 0 0 0 0 0 0 0 0 0.01 0 0 0 0 0 0 0 0 0 0 0 0 0 0 -0.01 0 0 0 0 0 0 0 0 0.01 0 0 0 0 0 0 0 0 0 0 -0.01 0 0 0 0 0 0 0 -0.01 0 0 0 -0.02 0 0 0 0 0 0 0 -0.01 0 0 0 0 0.01 0 0 -0.01 0.03 0 0 0.01 0.01 0 0 0 0 0 0 0 0.01 0 0 0 0 0 0 0 0.01 0 0 0 0 0 0 0 0.01 0 0 0 0 0 0 -0.02 0 0 0 0 0 0 0 0 -0.01 0 0 0 0 0 0 0 -0.01 0 0 0 -0.03 0 0 0 -0.01 0 0 0 -0.01 0 0 0 -0.01 0 0 0 -0.01 0 0 0 0 0 0 0 0 0 0 -0.01 0 0 0 0 0 0 0 -0.01 0 0 0 0 -0.01 0 0 0 0 0 0 -0.01 0 0 0 0 0 0 0 -0.01 0 0 0 -0.02 0 0 0 0 0 0 0 -0.01 0 0 0 0 0 0 0 0 0 0 0 0 0.01 0 0 0 0 0 0 0 0 0 0 -0.01 0 0 0 0 0 0 0 0 0 0 0 0 0.01 0 0 0 -0.01 0 0 0 0 0 0 0 0 0 0 0 0 0 0 -0.01 0 0 0 0 0 0 0 0 -0.01 0 0 0 0 0 0 0 0 0 0 0 0 0 0 0 -0.01 0 0 -0.01 0 0 0 0 -0.01 0 0 0 0 0 0 0 -0.02 0 0 0 0 0 0 0 0 0 0 0 0 0 0 0.01 -0.01 0 0 0 0 0 0 0 0 0 0 0 0 0 0 0 0 0 0 0 0 0 0 0.01 -0.01 0 0 0 0 0 0 0 0 0 0 0.01 0 0 0 0.01 0 0 0 0.01 0 0 0 0 -0.01 0 0 0.01 0 0 0 0 0 0 0 0 0 0 0 0 0 0 0 0.01 0 0 0 0 -0.01 0 0 0.01 0 0 0 0 0 0 0 0 0 0 0 0 0 0 0 0.01 -0.01 0 0 0 0 0 0 0 0 0 0 0 0 0 0 0.01 0 0 0 0 0 0 0 0 -0.01 0 0 0.01 0 0 0 0 0 0 0 0 0 0 0 0 0 0 0 0 0 0 0 0 -0.01 0 0 0.01 0 0 0 0 0 0 0 0 0 0 0 0 0 0 0 0.01 0 0 0 0 -0.01 0 0 0 0 0 0 0 0 0 0 0 0 0 0 0 0 0 0 0.01 0 0 0 0 -0.01 0 0 0 0 0 0 0 0 0 0 0 0 0 0 0 0 0 0 0 -0.01 0 0 0 0 0 0 0.01 0 0 0 0 0 0 0 0 0 0 0 0 -0.01 0 0 0 0 0 0 0 0 0 0 0 0 0 0 0 -0.01 0 0 0.01 0 0 0 0 0 0 0 0 -0.01 0 0 0 0 0 0 0 0 0 0 0 -0.01 0 0 0 -0.02 0 0 0 0 0 0 0 -0.01 0 0 0 0 0 0 0 0 0 0 0 -0.01 0 0 -0.01 0 0 0 0 0 0 0 0 0 0 0 0 0 0 0 -0.01 0 0 0 0 -0.01 0 0 -0.02 0.03 0 0 0 0 0 0 0 0 0 0 0 0.01 0 0 0 0.01 0 0 0 0 0 0 -0.01 0 0 0 0 0 0 0 0 0.01 0 0 0 0 0 0 0 0 0 0 0 0 0 0 0 0.01 0 0 0 0 0 0 -0.01 0 0 0 0 0 0 0 0 0 0 0 0 0 0 0 0 0.01 0 0 0 0 0 0 0 0 0 0 0 0 0 0 -0.01 0 0 0 0 0.01 0 0 0 0 0 0 0 0 0 0 0 0 0 0 0 0 0 0 -0.01 0.01 0 0 0 0 0 0 0 0 0 0 0 0 0 0 0 0 0 0 -0.01 0.01 0 0 0 0 0 0 0 0 0 0 0 0 0 0 -0.01 0 0 0 0 0.01 0 0 -0.02 -0.01 0 0 0 0 0 0 -0.01 0 0 0 0 0 0 0 0 0 0 0 0 0 0 0 0 -0.01 0 0 0 0 0 0 0 0 0 0 -0.01 0 0 0 0 -0.01 0 0 0 0 0 0 0 0 0 0 0 0 0 0 0 -0.01 0 0 -0.01 0 0 0 0 0 0 0 0 0 0 0 0 0 0 0 0 -0.01 0 0 0 0 0 0 0 0 0 0 -0.01 -0.01 0 0 0 0 0 0 0 -0.03 0 0 0 0 0 0 0 -0.01 0 0 0 0 0 0 0.01 0 0 0 0 -0.01 0 0 0 0 0 0 0 0 0 0 0 0 0 0 0 -0.01 0 0 0 0 0 0 0.01 0 0 0 0 0 0 0 0 0 0 0 0 0 0 0 0 -0.01 0 0 0 0 0 0 0.01 0 0 0 0 0 0 0 0 0 0 0 0 -0.01 0 0 0 0 0 0 0 0 0 0 0.01 0 0 0 0 0 0 0 0 0 0 0 0 -0.01 0 0 0.01 0 0 0 0 0 0 0 0 0 0 0 0 0 0 0 0.01 0 0 0 0 -0.01 0 0 0.01 0 0 0 0 0 0 0 0.01 0 0 0 0 0 0 0 0.01 0 0 0 0 -0.01 0 0 0 0 0 0 0.01 0 0 0 0 0 0 0 0 0 0 0 0.01 0 0 0 0 -0.01 0 0 0 0 0 0 0 0 0 0 0.01 0 0 0 0 0 0 0 0 -0.01 0 0 0 0 0 0 0 0 0 0 0.01 0 0 0 0 0 0 0 0 -0.01 0 0 0 0 0 0 0.01 0 0 0 0 0 0 0 0 0 0 0 0 -0.01 0 0 0 0 0 0 0 0 0 0 0 0 0 0 0.01 0 0 0 0 0 0 0 0 -0.01 0 0 0 0 0 0 0 0 0 0 0 0 0 0 0 0 0 0 0 -0.01 0 0 0.01 0 0 0 0 0 0 0 0 -0.01 0 0 0 0 0 0 -0.01 0 0 0 -0.01 0 0 0 -0.01 0 0 0 0 0 0 0 -0.01 0 0 0 -0.01 0.01 0 0 0 0 0 0 -0.01 0 0 0 0 0 0 0 -0.01 0 0 0 0 0 0 0 -0.01 0.01 0 0 0 0 0 0 0 0 0 0 -0.01 0 0 0 0 0 0 0 -0.01 0 0 0 0 0.01 0 0 0 0 0 0 0 0 0 0 -0.01 0 0 0 0 0 0 0 0 0 0 0 0 0.01 0 0 -0.01 0 0 0 0 0 0 0 0 0 0 0 0 0 0 0 -0.01 0 0 0 0 0.01 0 0 0 0 0 0 0 0 0 0 -0.01 -0.01 0 0 0 0 0 0 0 0 0 0 0 0 0 0 0 0 0 0 0 -0.01 0 0 0 0 0 0 -0.01 0 0 0 0 -0.01 0 0 0 0 0 0 0 0 0 0 0 -0.03 0 0 0 0 0 0 0 0 0 0 0 0 0 0 0 -0.01 0 0 0 0 0 0 0.01 0 0 0 0 0 0 0 0 0 0 0 0 -0.01 0 0 0 0 0 0 0 0 0 0 0 0 0 0 0 0 0 0 0.01 0 0 0 0 -0.01 0 0 0 0 0 0 0 0 0 0 0 0 0 0 0 0 0 0 0.01 -0.01 0 0 0 0 0 0 0 0 0 0 0 0 0 0 0 0 0 0 0.01 0 0 0 0 -0.01 0 0 0 0 0 0 0 0 0 0 0 0 0 0 0.01 0 0 0 0 -0.01 0 0 0 0 0 0 0 0 0 0 0 0 0 0 0.01 0 0 0 0 0 0 0 0 -0.01 0 0 0 0 0 0 0.01 0 0 0 0 0 0 0 0 0 0 0 0 0 0 0 0.01 -0.01 0 0 0 0 0 0 0 0 0 0 0 0 0 0 0 0 0 0 0.01 0 0 0 0 -0.01 0 0 0 0 0 0 0 0 0 0 0.01 0 0 0 0 0 0 0 0 0 0 0 -0.01 0 0 0 0 0 0 0 -0.01 0 0 0 0 0 0 0 0 0 0 0 -0.01 0.01 0 0 0 0 0 0 -0.01 0 0 0 0 0 0 0 -0.01 0 0 0 0 0 0 0 0 0.01 0 0 -0.01 0 0 0 0 0 0 0 -0.01 0 0 0 0 0 0 0 0 0 0 0 -0.01 0.01 0 0 -0.01 -0.01 0 0 0 0 0 0 0 0 0 0 0 0 0 0 0 -0.01 0 0 0 0 0 0 0 -0.01 0 0 0 0 0 0 -0.01 -0.02 0 0 0.01 0 0 0 0 -0.01 0 0 0 0 0 0 0 0 0 0 0.01 0 0 0 0 0 0 0 0.01 0 0 0 0 -0.01 0 0 0.01 0 0 0 0 0 0 0 0 0 0 0 0.01 0 0 0 0 0 0 0 0.01 -0.01 0 0 0.01 0 0 0 0 0 0 0 0.01 0 0 0 0 0 0 0 0 0 0 0 0.01 -0.01 0 0 0 0 0 0 0 0 0 0 0 0 0 0 0.01 0 0 0 0 0 0 0 0 -0.01 0 0 0 0 0 0 0 0 0 0 0.01 0 0 0 0 0 0 0 0 -0.01 0 0 0 0 0 0 0 0 0 0 0 0 0 0 0 0 0 0 0.01 -0.01 0 0 0 0 0 0 0 0 0 0 0 -0.01 0 0 0 -0.01 0 0 0 0 0 0 0 0.01 0 0 -0.01 0 0 0 0 0 0 0 0 0 0 0 -0.01 0 0 0 0 0 0 0 -0.01 0.01 0 0 0 0 0 0 0 0 0 0 -0.01 0 0 0 -0.01 0 0 0 0 0 0 0 -0.03 0 0 0 -0.01 0 0 0 0 0 0 0 -0.01 0 0 0 0 0 0 0 0 -0.01 0 0 0 0 0 0 0 0 0 0 -0.01 0 0 0 0 0 0 0 0 0 0 0 0 -0.01 0 0 0 0 0 0 0 0 0 0 0 -0.01 0 0 0 0 0 0 -0.01 -0.01 0 0 0 0 0 0 0 0 0 0 0 -0.01 0 0 0 0 0 0 0 0 0 0 0 -0.01 0 0 -0.01 0 0 0 0 -0.01 0 0 0 -0.02 0 0 0 0 0 0 0 -0.01 0 0 0.01 0 0 0 0 0 0 0 0 0 0 0 0 -0.01 0 0 0 0 0 0 0 0 0 0 0.01 0 0 0 0 0 0 0 0 -0.01 0 0 0 0 0 0 0.01 0 0 0 0 -0.01 0 0 0 0 0 0 0 0 0 0 0 0 0 0 0 -0.01 0 0 0.01 0 0 0 0 0 0 0 0 -0.01 0 0 0 0 0 0 0 0 0 0 0 0 0 0 0.01 0 0 0 0 0 0 0 0 -0.01 0 0 0 0 0 0 0 0 0 0 0 0 0 0 0.01 0 0 0 0 0 0 0 0 -0.01 0 0 0.01 0 0 0 0 0 0 0 0.01 0 0 0 0 0 0 0 0.01 0 0 0 0 -0.01 0 0 0.01 0 0 0 0 0 0 0 0 0 0 0 0.01 0 0 0 0 0 0 0 0 -0.01 0 0 0 0 0 0 0.01 0 0 0 0 0 0 0 0 0 0 0 0 0 0 0 0.01 -0.01 0 0 0 0 0 0 0 0 0 0 0.01 0 0 0 0 0 0 0 0 -0.01 0 0 0 0 0 0 0 0 0 0 0.01 0 0 0 0 0 0 0 0 0 0 0 0 -0.01 0 0 0 0 0 0 0 0 0 0 0 0 0 0 0.01 0 0 0 0 0 0 0 0 -0.01 0 0 0 0 0 0 0 0 0 0 0 0 0 0 0 -0.01 0 0 0 0 0 0 0 -0.01 0 0 0 0 0 0 -0.03 0 0 0 -0.02 0.01 0 0 0 0 0 0 -0.01 0 0 0 0 0 0 0 -0.01 0 0 0 -0.01 0 0 0 0 0.01 0 0 -0.01 0 0 0 0 0 0 0 -0.01 0 0 0 0 0 0 0 -0.01 0 0 0 0 0.01 0 0 -0.01 0 0 0 0 0 0 0 0 0 0 0 -0.01 0 0 0 0 0 0 0 0 0 0 0 0 0 0 0 -0.01 0 0 0 0 0 0 0 0 -0.01 0 0 0 0 0 0 0 -0.01 0 0 0 -0.01 0 0 0 0 0 0 -0.01 -0.02 0 0 0.01 0 0 0 0 0 0 0 0 -0.01 0 0 0.01 0 0 0 0 0 0 0 0.01 0 0 0 0 0 0 0 0.01 0 0 0 0 -0.01 0 0 0.01 0 0 0 0 0 0 0 0.01 0 0 0 0 0 0 0 0.01 0 0 0 0.01 -0.01 0 0 0.01 0 0 0 0 0 0 0 0 0 0 0 0.01 0 0 0 0 0 0 0 0 -0.01 0 0 0.01 0 0 0 0 0 0 0 0 0 0 0 0 0 0 0 0 -0.01 0 0 0.01 0 0 0 0 0 0 0 0 0 0 0 0 0 0 0 0.01 0 0 0 0 -0.01 0 0 0 0 0 0 0 0 0 0 0 0 0 0 0.01 0 0 0 0 0 0 0 0 -0.01 0 0 0 0 0 0 0 0 0 0 0 0 0 0 0 0 0 0 0.01 0 0 0 0 -0.01 0 0 0 0 0 0 0 0 0 0 0 0 0 0 0 0 0 0 0 -0.01 0 0 0 0 0 0 0.01 0 0 0 0 -0.01 0 0 0 0 0 0 0 0 0 0 0 0 0 0 0 -0.01 0 0 0 0 0 0 0 -0.01 0 0 0.01 -0.02 0 0 -0.01 0 0 0 0 0 0 0 0 -0.01 0 0 0 0 0 0 0 0 0 0 0 0 0 0 0 -0.01 0 0 -0.01 0 0 0 0 0 0 0 0 0 0 0 -0.01 0 0 0 -0.03 0 0 0 -0.02 0 0 0 0 0 0 0 -0.01 0 0 0 0 0.01 0 0 0 0 0 0 -0.01 0 0 0 0 0 0 0 0 0 0 0 0 0.01 0 0 -0.01 0 0 0 0 0 0 0 0 0 0 0 -0.01 0 0 0 0 0 0 0 0 0.01 0 0 0 0 0 0 0 0 0 0 0 0 0 0 -0.01 0 0 0 0 0 0 0 0 0.01 0 0 0 0 0 0 0 0 0 0 0 0 0 0 0 0 0 0 -0.01 0.01 0 0 0 0 0 0 0 0.01 0 0 0 0 0 0 0 0 0 0 0.01 0.01 0 0 0.01 -0.01 0 0 0.01 0 0 0 0 0 0 0 0 0 0 0 0.01 0 0 0 0 0 0 0 0 -0.01 0 0 0.01 0 0 0 0 0 0 0 0.01 0 0 0 0 0 0 0 0 0 0 0 0.01 0.01 0 0 0 0 0 0 -0.01 0.01 0 0 0 0 0 0 0 0 0 0 0 0 0 0 0 0 0 0 0 0.01 0 0 0 0 0 0 0 0 0 0 -0.01 0 0 0 0 0 0 0 0 0 0 0 0 0.01 0 0 0 0 0 0 0 0 0 0 -0.01 0 0 0 0 0 0 0 0 0 0 0 0 0.01 0 0 0 0 0 0 -0.01 0 0 0 0 0 0 0 0 0 0 0 0 0 0 0 -0.01 0.01 0 0 -0.01 -0.01 0 0 0 0 0 0 -0.01 0 0 0 0 0 0 0 0 0 0 0 0 0 0 0 0 -0.01 0 0 0 0 0 0 0 0 0 0 -0.01 0 0 0 0 -0.01 0 0 0 0 0 0 0 0 0 0 0 -0.01 0 0 0 0 0 0 0 0 0 0 0 0 0 0 -0.01 -0.01 0 0 0 0 0 0 0 0 0 0 0 0 0 0 0 -0.01 0 0 0 0 0 0 0 -0.01 0 0 0 -0.02 0 0 0 0 0 0 0 -0.01 0 0 0 0 0 0 0 -0.01 0 0 0 0 0 0 0 0 0 0 0 0 0 0 0.01 -0.01 0 0 0 0 0 0 0 0 0 0 0 0 0 0 0 0 0 0 0 0 0 0 0 -0.01 0 0 0 0 0 0 0.01 0 0 0 0 0 0 0 0 0 0 0 0 -0.01 0 0 0 0 0 0 0.01 0 0 0 0 0 0 0 0 0 0 0 0 0 0 0 0.01 -0.01 0 0 0 0 0 0 0 0 0 0 0 0 0 0 0.01 0 0 0 0 -0.01 0 0 0.01 0 0 0 0 0 0 0 0 0 0 0 0.01 0 0 0 0.01 0 0 0 0.01 -0.01 0 0 0 0 0 0 0.01 0 0 0 0 0 0 0 0 0 0 0 0.01 0 0 0 0 -0.01 0 0 0 0 0 0 0.01 0 0 0 0 0 0 0 0 0 0 0 0.01 0 0 0 0 -0.01 0 0 0 0 0 0 0 0 0 0 0.01 0 0 0 0 0 0 0 0 0 0 0 0 -0.01 0 0 0.01 0 0 0 0 0 0 0 0 0 0 0 0 0 0 0 0 0 0 0 0.01 -0.01 0 0 0 0 0 0 0 0 0 0 0 -0.01 0 0 0 0 0 0 0 0 0 0 0 -0.01 0 0 -0.01 0 0 0 0 0 0 0 -0.03 0 0 0 -0.01 0 0 0 -0.01 0.01 0 0 -0.01 0 0 0 0 0 0 0 -0.01 0 0 0 0 0 0 0 -0.01 0 0 0 0 0.01 0 0 -0.01 0 0 0 0 0 0 0 0 0 0 0 -0.01 0 0 0 0 0.01 0 0 -0.01 0 0 0 0 0 0 0 -0.01 0 0 0 0 0 0 0 0 -0.01 0 0 0 0 0 0 0 0 0 0 0 -0.01 0 0 0 -0.01 0 0 0 -0.02 0 0 0 0 0 0 0 -0.01 0 0 -0.01 0 0 0 0 0 0 0 0 -0.01 0 0 0 0 0 0 0 0 0 0 0 -0.01 0 0 0 0 0 0 0 0 0 0 -0.01 -0.01 0 0 0 0 0 0 0 0 0 0 0 -0.01 0 0 0 -0.03 0 0 0 -0.01 0 0 0 0 0 0 0 0 0 0 0 0 0 0 0.01 -0.01 0 0 0 0 0 0 0 0 0 0 0 0 0 0 0 0 0 0 0 -0.01 0 0 0 0 0 0 0.01 0 0 0 0 0 0 0 0 0 0 0 0 0 0 0 0 -0.01 0 0 0.01 0 0 0 0 0 0 0 0 0 0 0 0 0 0 0 0 0 0 0 0.01 -0.01 0 0 0 0 0 0 0 0 0 0 0.01 0 0 0 0 0 0 0 0 -0.01 0 0 0.01 0 0 0 0.01 0 0 0 0 0 0 0 0.01 0 0 0 0.01 0 0 0 0 -0.01 0 0 0.01 0 0 0 0 0 0 0 0.01 0 0 0 0 0 0 0 0 0 0 0 0.01 -0.01 0 0 0 0 0 0 0 0 0 0 0 0 0 0 0.01 0 0 0 0 0 0 0 0 -0.01 0 0 0 0 0 0 0.01 0 0 0 0 0 0 0 0 0 0 0 0 0 0 0 0 -0.01 0 0 0 0 0 0 0.01 0 0 0 0 0 0 0 0 0 0 0 0 -0.01 0 0 0 0 0 0 0 0 0 0 0.01 0 0 0 0 0 0 0 0 0 0 0 0 -0.01 0 0 0 0 0 0 0 0 0 0 0 0 0 0 0.01 -0.01 0 0 0 0 0 0 0 0 0 0 0 0 0 0 0 -0.01 0 0 0 0 0 0 0 -0.01 0 0 0 -0.02 0 0 0 0 0 0 0 -0.01 0 0 0 0 0 0 0 0 0 0 0 0 0 0 0 0 0 0 0 -0.01 0 0 -0.01 0 0 0 0 0 0 0 0 0 0 0 -0.01 0 0 0 -0.01 -0.01 0 0 -0.03 0.01 0 0 -0.01 0 0 0 -0.01 0 0 0 0 0 0 0 -0.01 0 0 0 0 0 0 0 0 0.01 0 0 0 0 0 0 -0.01 0 0 0 0 0 0 0 0 0 0 0 -0.01 0 0 0 0 0.01 0 0 0 0 0 0 0 0 0 0 0 0 0 0 -0.01 0 0 0 0 0 0 0 0 0.01 0 0 0 0 0 0 0 0 0 0 -0.01 0.01 0 0 0 0 0 0 0 0 0 0 0 0.01 0 0 0 0.01 0 0 0 0 0 0 0.02 0 0 0 0.01 -0.01 0 0 0 0 0 0 0.01 0 0 0 0 0 0 0 0.01 0 0 0 0 0 0 0 0 -0.01 0 0 0.01 0 0 0 0.01 0.01 0 0 -0.01 0.01 0 0 0 0 0 0 0 0 0 0 0 0 0 0 0 0.01 0 0 0 0 0 0 0 0 0 0 -0.01 0 0 0 0 0 0 0 0 0 0 0 0 0.01 0 0 0 0 0 0 0 0 0 0 -0.01 0 0 0 0 0 0 0 0 0 0 0 0 0.01 0 0 0 0 0 0 -0.01 0 0 0 0 0 0 0 0 0 0 0 0 0.01 0 0 -0.01 0 0 0 0 0 0 0 -0.01 0 0 0 -0.01 0 0 0 0 -0.01 0 0 0 0 0 0 0 0 0 0 0 0 0 0 -0.01 -0.01 0 0 0 0 0 0 0 0 0 0 0 0 0 0 0 -0.01 0 0 0 0 0 0 0 0 0 0 0 -0.01 0 0 -0.01 0 0 0 0 0 0 0 0 0 0 0 0 -0.01 0 0 0 0 0 0 0 0 0 0 0 0 0 0 0 -0.01 0 0 -0.01 0 0 0 0 -0.03 0 0 0 0 0 0 0.01 -0.01 0 0 0 0 0 0 0 0 0 0 0 -0.01 0 0 0 0 0 0 0 0 0 0 0 0 0 0 0 0 0 0 0.01 -0.01 0 0 0 0 0 0 0 0 0 0 0 0 0 0 0 0 0 0 0 -0.01 0 0 0 0 0 0 0.01 0 0 0 0 0 0 0 0 0 0 0 0 0 0 0 0 -0.01 0 0 0.01 0 0 0 0 0 0 0 0 0 0 0 0.01 0 0 0 0 0 0 0 0 -0.01 0 0 0 0 0 0 0.01 0 0 0 0 0 0 0 0 0 0 0 0.01 0 0 0 0.01 -0.01 0 0 0.01 0 0 0 0.01 0 0 0 0 0 0 0 0.01 0 0 0 0 0 0 0 0 -0.01 0 0 0.01 0 0 0 0 0 0 0 0.01 0 0 0 0 0 0 0 0 0 0 0 0.01 -0.01 0 0 0 0 0 0 0 0 0 0 0 0 0 0 0.01 0 0 0 0 -0.01 0 0 0 0 0 0 0 0 0 0 0.01 0 0 0 0 0 0 0 0 0 0 0 0 -0.01 0 0 0 0 0 0 0 0 0 0 0.01 0 0 0 0 0 0 0 0 0 0 0 0 -0.01 0 0 0 0 0 0 0 0 0 0 0 -0.01 0 0 0 0 0 0 0 0 0 0 0 0 0 0 -0.01 0 0 0 0 -0.01 0 0 -0.04 0.01 0 0 -0.01 0 0 0 -0.01 0 0 0 -0.02 0 0 0 0 0 0 0 -0.01 0 0 0 -0.01 0.01 0 0 0 0 0 0 0 0 0 0 -0.01 0 0 0 -0.01 0 0 0 -0.01 0 0 0 0 0 0 0 0 0 0 0 0 -0.01 0 0 0 -0.01 0 0 0 -0.01 0 0 -0.01 -0.02 0 0 0.01 0 0 0 0 -0.01 0 0 0.01 0 0 0 0 0 0 0 0.01 0 0 0 0.01 0 0 0 0.01 0 0 0 0.01 -0.01 0 0 0.01 0 0 0 0.02 0 0 0 0 -0.06 0 0 0 -0.01 0 0 -0.01 0 0 0 -0.02 0 0 0 -0.01 0 0 0 -0.01 0 0 0 0 0 0 0 0 0.01 0 0 0 0 0 0 -0.01 0 0 0 0 0 0 0 0 0 0 0 -0.01 0.01 0 0 0 0 0 0 -0.01 0 0 0 0 0 0 0 -0.01 0 0 0 -0.01 0 0 0 -0.01 0.01 0 0 0 0 0 0 -0.04 -0.01 0 0 -0.01 0 0 0 0 0 0 0 0 0 0 0 0 0 0 0 -0.01 -0.01 0 0 0 0 0 0 0 -0.01 0 0 0 0 0 0 0 -0.03 0 0 0z"/>
   <polygon fill="black" points="0.06,0.67 0.06,0.69 0.06,0.69 0.06,0.71 0.06,0.71 0.06,0.73 0.06,0.73 0.06,0.74 0.07,0.74 0.07,0.76 0.07,0.76 0.07,0.78 0.07,0.78 0.07,0.79 0.07,0.79 0.07,0.8 0.07,0.8 0.07,0.81 0.07,0.81 0.07,0.83 0.09,0.83 0.09,0.83 0.11,0.83 0.11,0.83 0.13,0.83 0.13,0.83 0.16,0.83 0.16,0.82 0.16,0.82 0.16,0.82 0.19,0.82 0.19,0.82 0.21,0.82 0.21,0.82 0.22,0.82 0.22,0.82 0.26,0.82 0.26,0.82 0.27,0.82 0.27,0.82 0.28,0.82 0.28,0.82 0.3,0.82 0.3,0.81 0.33,0.81 0.33,0.81 0.35,0.81 0.35,0.81 0.36,0.81 0.36,0.81 0.37,0.81 0.37,0.81 0.41,0.81 0.41,0.81 0.42,0.81 0.42,0.81 0.44,0.81 0.44,0.81 0.46,0.81 0.46,0.8 0.48,0.8 0.48,0.8 0.5,0.8 0.5,0.8 0.51,0.8 0.51,0.8 0.53,0.8 0.53,0.8 0.54,0.8 0.54,0.8 0.54,0.8 0.54,0.8 0.54,0.8 0.54,0.8 0.54,0.8 0.54,0.8 0.55,0.8 0.55,0.81 0.55,0.81 0.55,0.81 0.55,0.81 0.55,0.81 0.55,0.81 0.55,0.81 0.55,0.81 0.55,0.81 0.56,0.81 0.56,0.81 0.56,0.81 0.56,0.81 0.56,0.81 0.56,0.82 0.56,0.82 0.56,0.82 0.56,0.82 0.56,0.82 0.56,0.82 0.56,0.82 0.57,0.82 0.57,0.82 0.57,0.82 0.57,0.82 0.57,0.82 0.57,0.83 0.57,0.83 0.57,0.83 0.57,0.83 0.57,0.83 0.57,0.83 0.57,0.83 0.58,0.83 0.58,0.83 0.58,0.83 0.58,0.83 0.58,0.83 0.58,0.83 0.58,0.83 0.58,0.84 0.58,0.84 0.58,0.84 0.58,0.84 0.58,0.84 0.59,0.84 0.59,0.84 0.59,0.84 0.59,0.84 0.59,0.84 0.59,0.84 0.59,0.84 0.59,0.84 0.59,0.84 0.59,0.84 0.6,0.84 0.6,0.85 0.6,0.85 0.6,0.85 0.6,0.85 0.6,0.85 0.6,0.85 0.6,0.85 0.6,0.85 0.6,0.85 0.6,0.85 0.6,0.85 0.61,0.85 0.61,0.86 0.61,0.86 0.61,0.86 0.61,0.86 0.61,0.86 0.61,0.86 0.61,0.86 0.61,0.86 0.61,0.86 0.62,0.86 0.62,0.86 0.62,0.86 0.62,0.87 0.62,0.87 0.62,0.87 0.62,0.87 0.62,0.87 0.63,0.87 0.63,0.87 0.63,0.87 0.63,0.87 0.63,0.87 0.63,0.87 0.63,0.87 0.63,0.88 0.63,0.88 0.63,0.88 0.64,0.88 0.64,0.88 0.64,0.88 0.64,0.88 0.64,0.88 0.64,0.88 0.64,0.88 0.64,0.88 0.64,0.88 0.64,0.88 0.64,0.88 0.64,0.89 0.65,0.89 0.65,0.89 0.65,0.89 0.65,0.89 0.65,0.89 0.65,0.89 0.65,0.89 0.65,0.89 0.65,0.89 0.65,0.89 0.66,0.89 0.66,0.89 0.66,0.89 0.66,0.9 0.66,0.9 0.66,0.87 0.66,0.87 0.66,0.86 0.66,0.86 0.66,0.84 0.65,0.84 0.65,0.82 0.65,0.82 0.65,0.79 0.65,0.79 0.65,0.79 0.67,0.79 0.67,0.79 0.68,0.79 0.68,0.79 0.71,0.79 0.71,0.79 0.73,0.79 0.73,0.75 0.73,0.75 0.73,0.74 0.73,0.74 0.73,0.73 0.73,0.73 0.73,0.72 0.72,0.72 0.72,0.69 0.72,0.69 0.72,0.68 0.72,0.68 0.72,0.67 0.72,0.67 0.72,0.65 0.72,0.65 0.72,0.62 0.72,0.62 0.72,0.61 0.71,0.61 0.71,0.6 0.71,0.6 0.71,0.58 0.71,0.58 0.71,0.57 0.71,0.57 0.71,0.55 0.71,0.55 0.71,0.54 0.71,0.54 0.71,0.52 0.71,0.52 0.71,0.5 0.7,0.5 0.7,0.46 0.7,0.46 0.7,0.45 0.7,0.45 0.7,0.43 0.7,0.43 0.7,0.41 0.7,0.41 0.7,0.4 0.7,0.4 0.7,0.41 0.69,0.41 0.69,0.41 0.69,0.41 0.69,0.42 0.69,0.42 0.69,0.42 0.69,0.42 0.69,0.43 0.69,0.43 0.69,0.43 0.69,0.43 0.69,0.44 0.68,0.44 0.68,0.44 0.68,0.44 0.68,0.45 0.68,0.45 0.68,0.46 0.68,0.46 0.68,0.46 0.68,0.46 0.68,0.46 0.68,0.46 0.68,0.47 0.68,0.47 0.68,0.47 0.67,0.47 0.67,0.48 0.67,0.48 0.67,0.49 0.67,0.49 0.67,0.49 0.67,0.49 0.67,0.5 0.67,0.5 0.67,0.5 0.67,0.5 0.67,0.5 0.67,0.5 0.67,0.51 0.66,0.51 0.66,0.52 0.66,0.52 0.66,0.52 0.66,0.52 0.66,0.53 0.66,0.53 0.66,0.53 0.66,0.53 0.66,0.54 0.66,0.54 0.66,0.55 0.66,0.55 0.66,0.55 0.65,0.55 0.65,0.55 0.65,0.55 0.65,0.56 0.65,0.56 0.65,0.56 0.65,0.56 0.65,0.57 0.65,0.57 0.65,0.58 0.65,0.58 0.65,0.58 0.64,0.58 0.64,0.58 0.64,0.58 0.64,0.59 0.64,0.59 0.64,0.59 0.64,0.59 0.64,0.6 0.64,0.6 0.64,0.61 0.64,0.61 0.64,0.61 0.64,0.61 0.64,0.62 0.63,0.62 0.63,0.62 0.63,0.62 0.63,0.63 0.63,0.63 0.63,0.63 0.63,0.63 0.63,0.64 0.63,0.64 0.63,0.64 0.63,0.64 0.63,0.65 0.63,0.65 0.63,0.65 0.62,0.65 0.62,0.66 0.62,0.66 0.62,0.67 0.62,0.67 0.62,0.67 0.62,0.67 0.62,0.67 0.62,0.67 0.62,0.68 0.62,0.68 0.62,0.69 0.61,0.69 0.61,0.69 0.61,0.69 0.61,0.7 0.61,0.7 0.61,0.7 0.61,0.7 0.61,0.71 0.61,0.71 0.61,0.71 0.61,0.71 0.61,0.72 0.61,0.72 0.61,0.72 0.6,0.72 0.6,0.72 0.6,0.72 0.6,0.73 0.6,0.73 0.6,0.74 0.6,0.74 0.6,0.74 0.6,0.74 0.6,0.75 0.6,0.75 0.6,0.75 0.6,0.75 0.6,0.76 0.59,0.76 0.59,0.76 0.59,0.76 0.59,0.77 0.59,0.77 0.59,0.78 0.59,0.78 0.59,0.78 0.59,0.78 0.59,0.78 0.58,0.78 0.58,0.78 0.57,0.78 0.57,0.78 0.57,0.78 0.57,0.78 0.56,0.78 0.56,0.78 0.56,0.78 0.56,0.78 0.55,0.78 0.55,0.77 0.55,0.77 0.55,0.77 0.54,0.77 0.54,0.77 0.53,0.77 0.53,0.77 0.53,0.77 0.53,0.77 0.52,0.77 0.52,0.77 0.51,0.77 0.51,0.77 0.51,0.77 0.51,0.77 0.5,0.77 0.5,0.76 0.5,0.76 0.5,0.76 0.49,0.76 0.49,0.76 0.48,0.76 0.48,0.76 0.48,0.76 0.48,0.76 0.47,0.76 0.47,0.76 0.47,0.76 0.47,0.76 0.46,0.76 0.46,0.76 0.45,0.76 0.45,0.75 0.45,0.75 0.45,0.75 0.44,0.75 0.44,0.75 0.44,0.75 0.44,0.75 0.43,0.75 0.43,0.75 0.42,0.75 0.42,0.75 0.42,0.75 0.42,0.75 0.41,0.75 0.41,0.75 0.41,0.75 0.41,0.74 0.4,0.74 0.4,0.74 0.39,0.74 0.39,0.74 0.39,0.74 0.39,0.74 0.38,0.74 0.38,0.74 0.37,0.74 0.37,0.74 0.37,0.74 0.37,0.74 0.36,0.74 0.36,0.73 0.35,0.73 0.35,0.73 0.35,0.73 0.35,0.73 0.34,0.73 0.34,0.73 0.33,0.73 0.33,0.73 0.33,0.73 0.33,0.73 0.32,0.73 0.32,0.73 0.32,0.73 0.32,0.73 0.31,0.73 0.31,0.72 0.31,0.72 0.31,0.72 0.3,0.72 0.3,0.72 0.29,0.72 0.29,0.72 0.29,0.72 0.29,0.72 0.28,0.72 0.28,0.72 0.27,0.72 0.27,0.72 0.27,0.72 0.27,0.72 0.26,0.72 0.26,0.71 0.26,0.71 0.26,0.71 0.25,0.71 0.25,0.71 0.24,0.71 0.24,0.71 0.24,0.71 0.24,0.71 0.23,0.71 0.23,0.71 0.22,0.71 0.22,0.71 0.22,0.71 0.22,0.71 0.21,0.71 0.21,0.7 0.21,0.7 0.21,0.7 0.2,0.7 0.2,0.7 0.2,0.7 0.2,0.7 0.19,0.7 0.19,0.7 0.18,0.7 0.18,0.7 0.18,0.7 0.18,0.7 0.17,0.7 0.17,0.7 0.16,0.7 0.16,0.69 0.16,0.69 0.16,0.69 0.15,0.69 0.15,0.69 0.14,0.69 0.14,0.69 0.14,0.69 0.14,0.69 0.13,0.69 0.13,0.69 0.13,0.69 0.13,0.69 0.12,0.69 0.12,0.69 0.11,0.69 0.11,0.68 0.11,0.68 0.11,0.68 0.1,0.68 0.1,0.68 0.1,0.68 0.1,0.68 0.09,0.68 0.09,0.68 0.08,0.68 0.08,0.68 0.08,0.68 0.08,0.68 0.07,0.68 0.07,0.67 0.07,0.67 0.07,0.67 "/>
   <polygon fill="black" points="2.64,0.58 2.55,0.58 2.55,0.58 2.5,0.58 2.5,0.58 2.47,0.58 2.47,0.58 2.43,0.58 2.43,0.58 2.38,0.58 2.38,0.58 2.35,0.58 2.35,0.59 2.33,0.59 2.33,0.59 2.31,0.59 2.31,0.59 2.28,0.59 2.28,0.59 2.25,0.59 2.25,0.59 2.22,0.59 2.22,0.59 2.21,0.59 2.21,0.59 2.18,0.59 2.18,0.59 2.16,0.59 2.16,0.6 2.14,0.6 2.14,0.6 2.12,0.6 2.12,0.6 2.11,0.6 2.11,0.6 2.09,0.6 2.09,0.6 2.07,0.6 2.07,0.6 2.05,0.6 2.05,0.6 2.03,0.6 2.03,0.6 2.02,0.6 2.02,0.61 2,0.61 2,0.61 1.99,0.61 1.99,0.61 1.98,0.61 1.98,0.61 1.96,0.61 1.96,0.61 1.94,0.61 1.94,0.61 1.93,0.61 1.93,0.61 1.91,0.61 1.91,0.61 1.91,0.61 1.91,0.62 1.89,0.62 1.89,0.62 1.87,0.62 1.87,0.62 1.86,0.62 1.86,0.62 1.84,0.62 1.84,0.62 1.83,0.62 1.83,0.62 1.82,0.62 1.82,0.62 1.81,0.62 1.81,0.63 1.8,0.63 1.8,0.63 1.78,0.63 1.78,0.63 1.77,0.63 1.77,0.63 1.76,0.63 1.76,0.63 1.74,0.63 1.74,0.63 1.74,0.63 1.74,0.63 1.72,0.63 1.72,0.63 1.72,0.63 1.72,0.64 1.7,0.64 1.7,0.64 1.69,0.64 1.69,0.64 1.68,0.64 1.68,0.64 1.67,0.64 1.67,0.64 1.66,0.64 1.66,0.64 1.65,0.64 1.65,0.64 1.64,0.64 1.64,0.64 1.62,0.64 1.62,0.65 1.62,0.65 1.62,0.65 1.61,0.65 1.61,0.65 1.59,0.65 1.59,0.65 1.59,0.65 1.59,0.65 1.58,0.65 1.58,0.65 1.56,0.65 1.56,0.65 1.56,0.65 1.56,0.65 1.55,0.65 1.55,0.66 1.54,0.66 1.54,0.66 1.52,0.66 1.52,0.66 1.52,0.66 1.52,0.66 1.51,0.66 1.51,0.66 1.5,0.66 1.5,0.66 1.49,0.66 1.49,0.66 1.48,0.66 1.48,0.66 1.47,0.66 1.47,0.67 1.47,0.67 1.47,0.67 1.45,0.67 1.45,0.67 1.45,0.67 1.45,0.67 1.43,0.67 1.43,0.67 1.43,0.67 1.43,0.67 1.42,0.67 1.42,0.67 1.41,0.67 1.41,0.67 1.4,0.67 1.4,0.68 1.4,0.68 1.4,0.68 1.39,0.68 1.39,0.68 1.37,0.68 1.37,0.68 1.37,0.68 1.37,0.68 1.36,0.68 1.36,0.68 1.35,0.68 1.35,0.68 1.34,0.68 1.34,0.69 1.34,0.69 1.34,0.69 1.33,0.69 1.33,0.69 1.32,0.69 1.32,0.69 1.31,0.69 1.31,0.69 1.3,0.69 1.3,0.69 1.29,0.69 1.29,0.69 1.29,0.69 1.29,0.69 1.28,0.69 1.28,0.7 1.27,0.7 1.27,0.7 1.26,0.7 1.26,0.7 1.26,0.7 1.26,0.7 1.25,0.7 1.25,0.7 1.24,0.7 1.24,0.7 1.23,0.7 1.23,0.7 1.22,0.7 1.22,0.7 1.22,0.7 1.22,0.71 1.21,0.71 1.21,0.71 1.21,0.71 1.21,0.71 1.2,0.71 1.2,0.71 1.19,0.71 1.19,0.71 1.19,0.71 1.19,0.71 1.18,0.71 1.18,0.71 1.17,0.71 1.17,0.71 1.17,0.71 1.17,0.72 1.16,0.72 1.16,0.72 1.15,0.72 1.15,0.72 1.15,0.72 1.15,0.72 1.14,0.72 1.14,0.72 1.14,0.72 1.14,0.72 1.14,0.72 1.14,0.72 1.13,0.72 1.13,0.72 1.13,0.72 1.13,0.73 1.13,0.73 1.13,0.74 1.13,0.74 1.13,0.74 1.13,0.74 1.13,0.74 1.14,0.74 1.14,0.74 1.14,0.74 1.14,0.74 1.15,0.74 1.15,0.74 1.16,0.74 1.16,0.74 1.17,0.74 1.17,0.74 1.17,0.74 1.17,0.74 1.18,0.74 1.18,0.74 1.19,0.74 1.19,0.73 1.19,0.73 1.19,0.73 1.2,0.73 1.2,0.73 1.21,0.73 1.21,0.73 1.21,0.73 1.21,0.73 1.22,0.73 1.22,0.73 1.23,0.73 1.23,0.73 1.23,0.73 1.23,0.73 1.25,0.73 1.25,0.72 1.25,0.72 1.25,0.72 1.26,0.72 1.26,0.72 1.27,0.72 1.27,0.72 1.27,0.72 1.27,0.72 1.28,0.72 1.28,0.72 1.29,0.72 1.29,0.72 1.29,0.72 1.29,0.72 1.3,0.72 1.3,0.71 1.31,0.71 1.31,0.71 1.32,0.71 1.32,0.71 1.33,0.71 1.33,0.71 1.33,0.71 1.33,0.71 1.34,0.71 1.34,0.71 1.35,0.71 1.35,0.71 1.36,0.71 1.36,0.71 1.37,0.71 1.37,0.7 1.37,0.7 1.37,0.7 1.39,0.7 1.39,0.7 1.39,0.7 1.39,0.7 1.4,0.7 1.4,0.7 1.41,0.7 1.41,0.7 1.42,0.7 1.42,0.7 1.43,0.7 1.43,0.7 1.43,0.7 1.43,0.69 1.44,0.69 1.44,0.69 1.45,0.69 1.45,0.69 1.46,0.69 1.46,0.69 1.47,0.69 1.47,0.69 1.48,0.69 1.48,0.69 1.49,0.69 1.49,0.69 1.5,0.69 1.5,0.69 1.51,0.69 1.51,0.68 1.52,0.68 1.52,0.68 1.53,0.68 1.53,0.68 1.53,0.68 1.53,0.68 1.55,0.68 1.55,0.68 1.55,0.68 1.55,0.68 1.56,0.68 1.56,0.68 1.58,0.68 1.58,0.67 1.58,0.67 1.58,0.67 1.59,0.67 1.59,0.67 1.6,0.67 1.6,0.67 1.61,0.67 1.61,0.67 1.63,0.67 1.63,0.67 1.63,0.67 1.63,0.67 1.64,0.67 1.64,0.67 1.66,0.67 1.66,0.66 1.67,0.66 1.67,0.66 1.67,0.66 1.67,0.66 1.69,0.66 1.69,0.66 1.7,0.66 1.7,0.66 1.71,0.66 1.71,0.66 1.72,0.66 1.72,0.66 1.73,0.66 1.73,0.66 1.74,0.66 1.74,0.65 1.76,0.65 1.76,0.65 1.77,0.65 1.77,0.65 1.78,0.65 1.78,0.65 1.8,0.65 1.8,0.65 1.81,0.65 1.81,0.65 1.82,0.65 1.82,0.65 1.83,0.65 1.83,0.65 1.85,0.65 1.85,0.64 1.86,0.64 1.86,0.64 1.87,0.64 1.87,0.64 1.89,0.64 1.89,0.64 1.89,0.64 1.89,0.64 1.92,0.64 1.92,0.64 1.92,0.64 1.92,0.64 1.94,0.64 1.94,0.64 1.95,0.64 1.95,0.63 1.97,0.63 1.97,0.63 1.99,0.63 1.99,0.63 2,0.63 2,0.63 2.02,0.63 2.02,0.63 2.03,0.63 2.03,0.63 2.05,0.63 2.05,0.63 2.06,0.63 2.06,0.63 2.08,0.63 2.08,0.62 2.1,0.62 2.1,0.62 2.11,0.62 2.11,0.62 2.14,0.62 2.14,0.62 2.16,0.62 2.16,0.62 2.18,0.62 2.18,0.62 2.2,0.62 2.2,0.62 2.22,0.62 2.22,0.61 2.24,0.61 2.24,0.61 2.28,0.61 2.28,0.61 2.3,0.61 2.3,0.61 2.31,0.61 2.31,0.61 2.35,0.61 2.35,0.61 2.39,0.61 2.39,0.61 2.42,0.61 2.42,0.61 2.45,0.61 2.45,0.6 2.51,0.6 2.51,0.6 2.53,0.6 2.53,0.6 2.62,0.6 2.62,0.6 2.87,0.6 2.87,0.6 2.93,0.6 2.93,0.6 2.97,0.6 2.97,0.6 3.01,0.6 3.01,0.61 3.05,0.61 3.05,0.61 3.08,0.61 3.08,0.61 3.1,0.61 3.1,0.61 3.13,0.61 3.13,0.61 3.16,0.61 3.16,0.61 3.19,0.61 3.19,0.61 3.2,0.61 3.2,0.61 3.21,0.61 3.21,0.62 3.24,0.62 3.24,0.62 3.26,0.62 3.26,0.62 3.28,0.62 3.28,0.62 3.3,0.62 3.3,0.62 3.32,0.62 3.32,0.62 3.34,0.62 3.34,0.62 3.35,0.62 3.35,0.62 3.36,0.62 3.36,0.62 3.36,0.62 3.36,0.62 3.36,0.62 3.36,0.62 3.36,0.62 3.36,0.61 3.36,0.61 3.36,0.6 3.36,0.6 3.36,0.6 3.36,0.6 3.36,0.6 3.35,0.6 3.35,0.6 3.34,0.6 3.34,0.6 3.33,0.6 3.33,0.6 3.31,0.6 3.31,0.6 3.29,0.6 3.29,0.6 3.27,0.6 3.27,0.59 3.25,0.59 3.25,0.59 3.23,0.59 3.23,0.59 3.21,0.59 3.21,0.59 3.2,0.59 3.2,0.59 3.18,0.59 3.18,0.59 3.14,0.59 3.14,0.59 3.12,0.59 3.12,0.59 3.09,0.59 3.09,0.58 3.05,0.58 3.05,0.58 3.02,0.58 3.02,0.58 2.99,0.58 2.99,0.58 2.94,0.58 2.94,0.58 2.88,0.58 2.88,0.58 2.83,0.58 2.83,0.58 2.64,0.58 "/>
   <polygon fill="black" points="0.18,0.1 0.18,0.1 0.18,0.1 0.18,0.1 0.19,0.1 0.19,0.1 0.19,0.1 0.19,0.11 0.2,0.11 0.2,0.11 0.21,0.11 0.21,0.11 0.21,0.11 0.21,0.11 0.22,0.11 0.22,0.11 0.23,0.11 0.23,0.11 0.23,0.11 0.23,0.11 0.24,0.11 0.24,0.12 0.24,0.12 0.24,0.12 0.25,0.12 0.25,0.12 0.26,0.12 0.26,0.12 0.26,0.12 0.26,0.12 0.27,0.12 0.27,0.12 0.27,0.12 0.27,0.12 0.28,0.12 0.28,0.12 0.29,0.12 0.29,0.13 0.3,0.13 0.3,0.13 0.3,0.13 0.3,0.13 0.31,0.13 0.31,0.13 0.31,0.13 0.31,0.13 0.32,0.13 0.32,0.13 0.33,0.13 0.33,0.13 0.33,0.13 0.33,0.13 0.34,0.13 0.34,0.14 0.34,0.14 0.34,0.14 0.35,0.14 0.35,0.14 0.35,0.14 0.35,0.14 0.36,0.14 0.36,0.14 0.37,0.14 0.37,0.14 0.37,0.14 0.37,0.14 0.38,0.14 0.38,0.14 0.39,0.14 0.39,0.15 0.39,0.15 0.39,0.15 0.4,0.15 0.4,0.15 0.41,0.15 0.41,0.15 0.41,0.15 0.41,0.15 0.42,0.15 0.42,0.15 0.42,0.15 0.42,0.15 0.43,0.15 0.43,0.15 0.44,0.15 0.44,0.16 0.44,0.16 0.44,0.16 0.45,0.16 0.45,0.16 0.45,0.16 0.45,0.16 0.46,0.16 0.46,0.16 0.47,0.16 0.47,0.16 0.47,0.16 0.47,0.16 0.48,0.16 0.48,0.16 0.48,0.16 0.48,0.17 0.49,0.17 0.49,0.17 0.5,0.17 0.5,0.17 0.5,0.17 0.5,0.17 0.51,0.17 0.51,0.17 0.52,0.17 0.52,0.17 0.52,0.17 0.52,0.17 0.53,0.17 0.53,0.18 0.53,0.18 0.53,0.18 0.54,0.18 0.54,0.18 0.54,0.18 0.54,0.18 0.55,0.18 0.55,0.18 0.56,0.18 0.56,0.18 0.56,0.18 0.56,0.18 0.57,0.18 0.57,0.18 0.57,0.18 0.57,0.19 0.58,0.19 0.58,0.19 0.59,0.19 0.59,0.19 0.59,0.19 0.59,0.19 0.6,0.19 0.6,0.19 0.61,0.19 0.61,0.19 0.61,0.19 0.61,0.19 0.62,0.19 0.62,0.19 0.63,0.19 0.63,0.2 0.63,0.2 0.63,0.2 0.64,0.2 0.64,0.2 0.64,0.2 0.64,0.2 0.65,0.2 0.65,0.2 0.66,0.2 0.66,0.2 0.66,0.2 0.66,0.2 0.67,0.2 0.67,0.2 0.68,0.2 0.68,0.19 0.68,0.19 0.68,0.17 0.67,0.17 0.67,0.16 0.67,0.16 0.67,0.14 0.67,0.14 0.67,0.12 0.67,0.12 0.67,0.09 0.67,0.09 0.67,0.09 0.67,0.09 0.67,0.08 0.67,0.08 0.67,0.07 0.64,0.07 0.64,0.07 0.63,0.07 0.63,0.07 0.6,0.07 0.6,0.07 0.58,0.07 0.58,0.08 0.56,0.08 0.56,0.08 0.54,0.08 0.54,0.08 0.53,0.08 0.53,0.08 0.5,0.08 0.5,0.08 0.49,0.08 0.49,0.08 0.47,0.08 0.47,0.08 0.45,0.08 0.45,0.08 0.42,0.08 0.42,0.09 0.39,0.09 0.39,0.09 0.38,0.09 0.38,0.09 0.35,0.09 0.35,0.09 0.33,0.09 0.33,0.09 0.32,0.09 0.32,0.09 0.3,0.09 0.3,0.09 0.28,0.09 0.28,0.1 0.26,0.1 0.26,0.1 0.23,0.1 0.23,0.1 0.22,0.1 0.22,0.1 0.2,0.1 0.2,0.1 "/>
   <polygon fill="black" points="0.04,0.51 0.05,0.51 0.05,0.51 0.05,0.51 0.05,0.5 0.05,0.5 0.05,0.5 0.05,0.5 0.05,0.49 0.05,0.49 0.05,0.49 0.05,0.49 0.05,0.48 0.06,0.48 0.06,0.48 0.06,0.48 0.06,0.47 0.06,0.47 0.06,0.46 0.06,0.46 0.06,0.46 0.06,0.46 0.06,0.45 0.06,0.45 0.06,0.45 0.06,0.45 0.06,0.44 0.07,0.44 0.07,0.44 0.07,0.44 0.07,0.43 0.07,0.43 0.07,0.43 0.07,0.43 0.07,0.42 0.07,0.42 0.07,0.42 0.07,0.42 0.07,0.41 0.07,0.41 0.07,0.4 0.08,0.4 0.08,0.4 0.08,0.4 0.08,0.4 0.08,0.4 0.08,0.39 0.08,0.39 0.08,0.38 0.08,0.38 0.08,0.38 0.08,0.38 0.08,0.37 0.09,0.37 0.09,0.37 0.09,0.37 0.09,0.37 0.09,0.37 0.09,0.36 0.09,0.36 0.09,0.36 0.09,0.36 0.09,0.35 0.09,0.35 0.09,0.34 0.09,0.34 0.09,0.34 0.1,0.34 0.1,0.33 0.1,0.33 0.1,0.33 0.1,0.33 0.1,0.32 0.1,0.32 0.1,0.32 0.1,0.32 0.1,0.31 0.1,0.31 0.1,0.31 0.1,0.31 0.1,0.3 0.11,0.3 0.11,0.29 0.11,0.29 0.11,0.29 0.11,0.29 0.11,0.29 0.11,0.29 0.11,0.28 0.11,0.28 0.11,0.27 0.11,0.27 0.11,0.27 0.11,0.27 0.11,0.27 0.12,0.27 0.12,0.26 0.12,0.26 0.12,0.25 0.12,0.25 0.12,0.25 0.12,0.25 0.12,0.24 0.12,0.24 0.12,0.24 0.12,0.24 0.12,0.23 0.13,0.23 0.13,0.23 0.13,0.23 0.13,0.22 0.13,0.22 0.13,0.21 0.13,0.21 0.13,0.21 0.13,0.21 0.13,0.2 0.13,0.2 0.13,0.2 0.13,0.2 0.13,0.19 0.14,0.19 0.14,0.19 0.14,0.19 0.14,0.18 0.14,0.18 0.14,0.18 0.14,0.18 0.14,0.17 0.14,0.17 0.14,0.17 0.14,0.17 0.14,0.16 0.14,0.16 0.14,0.16 0.15,0.16 0.15,0.15 0.15,0.15 0.15,0.15 0.15,0.15 0.15,0.14 0.15,0.14 0.15,0.14 0.15,0.14 0.15,0.13 0.15,0.13 0.15,0.13 0.16,0.13 0.16,0.12 0.16,0.12 0.16,0.11 0.16,0.11 0.16,0.11 0.16,0.11 0.16,0.1 0.15,0.1 0.15,0.1 0.12,0.1 0.12,0.11 0.11,0.11 0.11,0.11 0.08,0.11 0.08,0.11 0.06,0.11 0.06,0.11 0.04,0.11 0.04,0.11 0.01,0.11 0.01,0.11 0.01,0.11 0.01,0.13 0.01,0.13 0.01,0.15 0.01,0.15 0.01,0.16 0.01,0.16 0.01,0.18 0.01,0.18 0.01,0.2 0.02,0.2 0.02,0.21 0.02,0.21 0.02,0.24 0.02,0.24 0.02,0.25 0.02,0.25 0.02,0.26 0.02,0.26 0.02,0.29 0.02,0.29 0.02,0.29 0.02,0.29 0.02,0.3 0.03,0.3 0.03,0.32 0.03,0.32 0.03,0.33 0.03,0.33 0.03,0.35 0.03,0.35 0.03,0.36 0.03,0.36 0.03,0.37 0.03,0.37 0.03,0.39 0.03,0.39 0.03,0.42 0.04,0.42 0.04,0.43 0.04,0.43 0.04,0.44 0.04,0.44 0.04,0.45 0.04,0.45 0.04,0.48 0.04,0.48 0.04,0.49 0.04,0.49 0.04,0.5 0.04,0.5 "/>
   <polygon fill="black" points="1.28,0.31 1.27,0.31 1.27,0.31 1.27,0.31 1.27,0.31 1.26,0.31 1.26,0.32 1.25,0.32 1.25,0.32 1.25,0.32 1.25,0.32 1.23,0.32 1.23,0.32 1.23,0.32 1.23,0.32 1.22,0.32 1.22,0.32 1.22,0.32 1.22,0.32 1.21,0.32 1.21,0.32 1.2,0.32 1.2,0.33 1.19,0.33 1.19,0.33 1.19,0.33 1.19,0.33 1.18,0.33 1.18,0.33 1.17,0.33 1.17,0.33 1.17,0.33 1.17,0.33 1.16,0.33 1.16,0.33 1.15,0.33 1.15,0.33 1.14,0.33 1.14,0.34 1.14,0.34 1.14,0.34 1.13,0.34 1.13,0.34 1.12,0.34 1.12,0.34 1.12,0.34 1.12,0.34 1.11,0.34 1.11,0.34 1.11,0.34 1.11,0.34 1.1,0.34 1.1,0.35 1.09,0.35 1.09,0.35 1.08,0.35 1.08,0.35 1.08,0.35 1.08,0.35 1.08,0.35 1.08,0.36 1.08,0.36 1.08,0.36 1.08,0.36 1.08,0.36 1.08,0.36 1.08,0.36 1.09,0.36 1.09,0.37 1.09,0.37 1.09,0.37 1.09,0.37 1.09,0.37 1.09,0.37 1.09,0.37 1.09,0.37 1.09,0.37 1.1,0.37 1.1,0.37 1.11,0.37 1.11,0.37 1.11,0.37 1.11,0.47 1.11,0.47 1.11,0.47 1.1,0.47 1.1,0.47 1.1,0.47 1.1,0.47 1.09,0.47 1.09,0.48 1.09,0.48 1.09,0.48 1.09,0.48 1.09,0.48 1.09,0.48 1.09,0.49 1.1,0.49 1.1,0.49 1.1,0.49 1.1,0.49 1.1,0.49 1.1,0.49 1.1,0.49 1.1,0.49 1.1,0.49 1.1,0.49 1.11,0.49 1.11,0.49 1.11,0.49 1.11,0.56 1.12,0.56 1.12,0.58 1.11,0.58 1.11,0.58 1.11,0.58 1.11,0.58 1.1,0.58 1.1,0.58 1.09,0.58 1.09,0.58 1.09,0.58 1.09,0.59 1.09,0.59 1.09,0.59 1.09,0.59 1.09,0.6 1.09,0.6 1.09,0.6 1.1,0.6 1.1,0.6 1.1,0.6 1.1,0.6 1.1,0.6 1.1,0.6 1.1,0.6 1.1,0.6 1.1,0.6 1.1,0.61 1.11,0.61 1.11,0.61 1.12,0.61 1.12,0.61 1.12,0.61 1.12,0.6 1.13,0.6 1.13,0.6 1.14,0.6 1.14,0.6 1.14,0.6 1.14,0.6 1.15,0.6 1.15,0.6 1.16,0.6 1.16,0.6 1.17,0.6 1.17,0.6 1.18,0.6 1.18,0.6 1.18,0.6 1.18,0.59 1.19,0.59 1.19,0.59 1.2,0.59 1.2,0.59 1.21,0.59 1.21,0.59 1.22,0.59 1.22,0.59 1.22,0.59 1.22,0.59 1.23,0.59 1.23,0.59 1.24,0.59 1.24,0.59 1.25,0.59 1.25,0.58 1.26,0.58 1.26,0.58 1.26,0.58 1.26,0.58 1.28,0.58 1.28,0.58 1.28,0.58 1.28,0.58 1.29,0.58 1.29,0.58 1.3,0.58 1.3,0.58 1.31,0.58 1.31,0.57 1.31,0.57 1.31,0.56 1.31,0.56 1.31,0.56 1.31,0.56 1.31,0.55 1.31,0.55 1.31,0.55 1.3,0.55 1.3,0.55 1.3,0.55 1.3,0.55 1.3,0.55 1.3,0.55 1.3,0.55 1.3,0.55 1.29,0.55 1.29,0.55 1.28,0.55 1.28,0.55 1.28,0.55 1.28,0.55 1.27,0.55 1.27,0.55 1.26,0.55 1.26,0.55 1.25,0.55 1.25,0.55 1.25,0.55 1.25,0.55 1.24,0.55 1.24,0.56 1.23,0.56 1.23,0.56 1.23,0.56 1.23,0.56 1.22,0.56 1.22,0.56 1.22,0.56 1.22,0.56 1.21,0.56 1.21,0.56 1.2,0.56 1.2,0.56 1.19,0.56 1.19,0.56 1.18,0.56 1.18,0.57 1.18,0.57 1.18,0.57 1.17,0.57 1.17,0.56 1.17,0.56 1.17,0.55 1.17,0.55 1.17,0.54 1.17,0.54 1.17,0.53 1.16,0.53 1.16,0.52 1.16,0.52 1.16,0.49 1.16,0.49 1.16,0.48 1.17,0.48 1.17,0.48 1.17,0.48 1.17,0.48 1.17,0.48 1.17,0.48 1.17,0.48 1.17,0.48 1.18,0.48 1.18,0.48 1.19,0.48 1.19,0.48 1.19,0.48 1.19,0.48 1.21,0.48 1.21,0.47 1.22,0.47 1.22,0.47 1.23,0.47 1.23,0.47 1.24,0.47 1.24,0.47 1.25,0.47 1.25,0.47 1.27,0.47 1.27,0.47 1.27,0.47 1.27,0.47 1.27,0.47 1.27,0.46 1.27,0.46 1.27,0.45 1.27,0.45 1.27,0.45 1.27,0.45 1.27,0.45 1.26,0.45 1.26,0.44 1.26,0.44 1.26,0.44 1.26,0.44 1.26,0.44 1.25,0.44 1.25,0.44 1.24,0.44 1.24,0.44 1.23,0.44 1.23,0.45 1.22,0.45 1.22,0.45 1.22,0.45 1.22,0.45 1.21,0.45 1.21,0.45 1.21,0.45 1.21,0.45 1.2,0.45 1.2,0.45 1.19,0.45 1.19,0.45 1.18,0.45 1.18,0.46 1.17,0.46 1.17,0.46 1.17,0.46 1.17,0.36 1.17,0.36 1.17,0.36 1.17,0.36 1.17,0.36 1.18,0.36 1.18,0.36 1.19,0.36 1.19,0.36 1.2,0.36 1.2,0.36 1.2,0.36 1.2,0.35 1.21,0.35 1.21,0.35 1.22,0.35 1.22,0.35 1.23,0.35 1.23,0.35 1.23,0.35 1.23,0.35 1.24,0.35 1.24,0.35 1.25,0.35 1.25,0.35 1.26,0.35 1.26,0.35 1.27,0.35 1.27,0.34 1.28,0.34 1.28,0.34 1.28,0.34 1.28,0.34 1.29,0.34 1.29,0.34 1.3,0.34 1.3,0.34 1.31,0.34 1.31,0.34 1.31,0.34 1.31,0.34 1.32,0.34 1.32,0.33 1.31,0.33 1.31,0.32 1.31,0.32 1.31,0.32 1.31,0.32 1.31,0.32 1.31,0.32 1.31,0.32 1.31,0.32 1.31,0.32 1.31,0.32 1.31,0.32 1.3,0.32 1.3,0.32 1.3,0.32 1.3,0.32 1.3,0.32 1.3,0.31 1.29,0.31 1.29,0.31 1.29,0.31 1.29,0.31 1.29,0.31 1.29,0.31 1.28,0.31 "/>
   <polygon fill="black" points="0.93,0.97 0.94,0.97 0.94,0.97 0.94,0.97 0.94,0.97 0.94,0.97 0.94,0.97 0.94,0.97 0.94,0.97 0.94,0.97 0.94,0.01 0.94,0.01 0.94,0 0.94,0 0.94,0 0.94,0 0.94,0 0.92,0 0.92,0 0.92,0 0.92,0 0.92,0 0.92,0 0.92,0 0.92,0.01 0.92,0.01 0.92,0.97 0.92,0.97 0.92,0.97 0.92,0.97 0.92,0.97 0.92,0.97 0.92,0.97 0.93,0.97 "/>
   <path fill="black" d="M0.53 0.42l0 0 0 0 0 0 0 0 0 0 0 0 0 0 0 0 0 0 0 0 0 0 0 0.01 -0.01 0 0 0 -0.01 0 0 0 -0.01 0 0 -0.01 0 0 0 0 0 0 0 0 0 0 0 0 0 0 0 0 0 0 0 0 -0.01 0 0 -0.15 0.01 0 0 0 0 0 0 0 0 0 0 -0.01 0 0 0 0 0 0 0 0 0 0 0 0 0.01 0 0 0 0.01 0 0 0 0 0 0 0 0.01 0 0 0 0 0 0 0 0 0 0 0.01 0 0 0 0 0 0 0 0 0 0 0 0 0.01 0 0 0.14 -0.01 0 0 0.01zm-0.03 -0.19l-0.01 0 0 0 0 0 0 0 -0.01 0 0 0 0 0 0 0 0 0 0 0.01 -0.01 0 0 0 0 0 0 0 0 0 0 0 0 0 0 0 0 0 0 0 0 0 0 0 -0.01 0 0 0 0 0 0 0.01 0 0 0 0 0 0 0 0 0 0 0 0 0 0 0 0 0 0 0 0.01 -0.01 0 0 0 0 0 0 0.01 0 0 0 0.15 0 0 0 0 0 0 0 0.01 0.01 0 0 0 0 0 0 0 0 0 0 0.01 0 0 0 0 0 0 0 0 0 0 0 0 0 0 0 0 0.01 0 0 0 0 0 0 0.01 0 0 0 0 0 0 0 0 0 0 0 0 0 0 0 0 0.01 0 0 0 0 0 0 0 0 0 0 0.01 0.01 0 0 0 0 0 0 0 0.01 0 0 0 0.03 0 0 0 0 0 0 0 0.01 0 0 0 0 0 0 -0.01 0.01 0 0 0 0 0 0 0 0 0 0 0 0.01 0 0 0 0 0 0 0 0 0 0 0 0 0 0 -0.01 0 0 0 0 0 0 0 0 0 0 0 0 0.01 0 0 0 0 0 0 0 0 0 0 0 0 0 0 -0.01 0 0 0 0 0 0 0 0 0 0 0 -0.01 0.01 0 0 0 0 0 0 -0.15 0 0 0 -0.01 -0.01 0 0 0 0 0 0 0 0 0 0 -0.01 0 0 0 0 0 0 0 0 0 0 0 0 0 0 0 0 -0.01 0 0 -0.01 0 0 0 0 0 0 0 0 0 0 0 0 0 0 0 0 0 0 0 0 -0.01 0 0 0 0 0 0 -0.01 0 0 0 0 -0.01 0 0 0 0 0 0 0 0 0 0 0 -0.01 0 0 0 -0.03 0 0 0z"/>
   <polygon fill="black" points="0.35,0.23 0.34,0.23 0.34,0.23 0.34,0.23 0.34,0.23 0.33,0.23 0.33,0.23 0.33,0.23 0.33,0.23 0.33,0.23 0.33,0.23 0.33,0.23 0.33,0.24 0.33,0.24 0.33,0.24 0.32,0.24 0.32,0.24 0.32,0.24 0.32,0.24 0.32,0.24 0.32,0.24 0.32,0.24 0.32,0.24 0.32,0.24 0.32,0.24 0.32,0.24 0.32,0.24 0.31,0.24 0.31,0.25 0.31,0.25 0.31,0.25 0.31,0.25 0.31,0.25 0.31,0.25 0.31,0.25 0.31,0.25 0.31,0.26 0.31,0.26 0.31,0.26 0.31,0.26 0.31,0.27 0.3,0.27 0.3,0.33 0.31,0.33 0.31,0.42 0.31,0.42 0.31,0.43 0.31,0.43 0.31,0.43 0.31,0.43 0.31,0.43 0.31,0.43 0.31,0.43 0.31,0.43 0.31,0.44 0.31,0.44 0.31,0.44 0.32,0.44 0.32,0.44 0.32,0.44 0.32,0.44 0.32,0.44 0.32,0.44 0.32,0.44 0.32,0.44 0.32,0.44 0.32,0.44 0.32,0.44 0.32,0.45 0.33,0.45 0.33,0.45 0.33,0.45 0.33,0.45 0.33,0.45 0.33,0.45 0.33,0.45 0.33,0.45 0.33,0.45 0.33,0.45 0.34,0.45 0.34,0.45 0.34,0.45 0.34,0.46 0.35,0.46 0.35,0.46 0.35,0.46 0.35,0.46 0.36,0.46 0.36,0.46 0.39,0.46 0.39,0.46 0.39,0.46 0.39,0.46 0.39,0.46 0.39,0.46 0.4,0.46 0.4,0.45 0.4,0.45 0.4,0.45 0.4,0.45 0.4,0.45 0.41,0.45 0.41,0.45 0.41,0.45 0.41,0.45 0.41,0.45 0.41,0.45 0.41,0.45 0.41,0.45 0.41,0.45 0.41,0.44 0.41,0.44 0.41,0.44 0.42,0.44 0.42,0.44 0.42,0.44 0.42,0.44 0.42,0.44 0.42,0.44 0.42,0.44 0.42,0.44 0.42,0.44 0.42,0.43 0.42,0.43 0.42,0.43 0.43,0.43 0.43,0.43 0.43,0.43 0.43,0.42 0.43,0.42 0.43,0.37 0.39,0.37 0.39,0.42 0.39,0.42 0.39,0.42 0.39,0.42 0.39,0.42 0.38,0.42 0.38,0.42 0.38,0.42 0.38,0.42 0.38,0.42 0.38,0.43 0.37,0.43 0.37,0.43 0.36,0.43 0.36,0.43 0.36,0.43 0.36,0.42 0.36,0.42 0.36,0.42 0.35,0.42 0.35,0.42 0.35,0.42 0.35,0.42 0.35,0.42 0.35,0.42 0.35,0.42 0.35,0.42 0.35,0.42 0.35,0.27 0.35,0.27 0.35,0.27 0.35,0.27 0.35,0.27 0.35,0.27 0.35,0.26 0.36,0.26 0.36,0.26 0.36,0.26 0.36,0.26 0.36,0.26 0.36,0.26 0.38,0.26 0.38,0.26 0.38,0.26 0.38,0.26 0.38,0.26 0.38,0.26 0.38,0.26 0.38,0.27 0.39,0.27 0.39,0.27 0.39,0.27 0.39,0.27 0.39,0.27 0.39,0.27 0.39,0.27 0.39,0.27 0.39,0.27 0.39,0.31 0.43,0.31 0.43,0.29 0.43,0.29 0.43,0.27 0.43,0.27 0.43,0.26 0.42,0.26 0.42,0.26 0.42,0.26 0.42,0.26 0.42,0.26 0.42,0.25 0.42,0.25 0.42,0.25 0.42,0.25 0.42,0.25 0.42,0.25 0.42,0.25 0.41,0.25 0.41,0.25 0.41,0.25 0.41,0.24 0.41,0.24 0.41,0.24 0.41,0.24 0.41,0.24 0.41,0.24 0.41,0.24 0.41,0.24 0.41,0.24 0.4,0.24 0.4,0.24 0.4,0.24 0.4,0.24 0.4,0.24 0.4,0.23 0.4,0.23 0.4,0.23 0.4,0.23 0.4,0.23 0.39,0.23 0.39,0.23 0.39,0.23 0.39,0.23 0.39,0.23 0.39,0.23 0.38,0.23 0.38,0.23 0.35,0.23 "/>
   <polygon fill="black" points="0.03,0.05 0.03,0.05 0,0.05 0,0.09 0.01,0.09 0.01,0.09 0.03,0.09 0.03,0.09 0.03,0.09 0.03,0.08 0.08,0.08 0.08,0.08 0.09,0.08 0.09,0.08 0.11,0.08 0.11,0.08 0.13,0.08 0.13,0.08 0.14,0.08 0.14,0.08 0.17,0.08 0.17,0.08 0.18,0.08 0.18,0.08 0.21,0.08 0.21,0.07 0.22,0.07 0.22,0.07 0.24,0.07 0.24,0.07 0.26,0.07 0.26,0.07 0.28,0.07 0.28,0.07 0.3,0.07 0.3,0.07 0.33,0.07 0.33,0.07 0.33,0.07 0.33,0.07 0.35,0.07 0.35,0.06 0.38,0.06 0.38,0.06 0.4,0.06 0.4,0.06 0.42,0.06 0.42,0.06 0.42,0.06 0.42,0.06 0.45,0.06 0.45,0.06 0.47,0.06 0.47,0.06 0.49,0.06 0.49,0.05 0.5,0.05 0.5,0.05 0.53,0.05 0.53,0.05 0.54,0.05 0.54,0.05 0.55,0.05 0.55,0.05 0.59,0.05 0.59,0.05 0.6,0.05 0.6,0.05 0.63,0.05 0.63,0.05 0.65,0.05 0.65,0.04 0.66,0.04 0.66,0.04 0.69,0.04 0.69,0.05 0.7,0.05 0.7,0.08 0.7,0.08 0.7,0.09 0.7,0.09 0.7,0.11 0.7,0.11 0.7,0.12 0.7,0.12 0.7,0.14 0.7,0.14 0.7,0.16 0.7,0.16 0.7,0.17 0.71,0.17 0.71,0.19 0.71,0.19 0.71,0.21 0.71,0.21 0.71,0.21 0.71,0.21 0.71,0.21 0.72,0.21 0.72,0.21 0.73,0.21 0.73,0.16 0.73,0.16 0.73,0.14 0.72,0.14 0.72,0.05 0.72,0.05 0.72,0.04 0.69,0.04 0.69,0.04 0.61,0.04 0.61,0.04 0.54,0.04 0.54,0.04 0.5,0.04 0.5,0.04 0.45,0.04 0.45,0.05 0.38,0.05 0.38,0.05 0.32,0.05 0.32,0.05 0.26,0.05 0.26,0.05 0.2,0.05 0.2,0.05 0.11,0.05 0.11,0.05 0.07,0.05 0.07,0.05 "/>
   <polygon fill="black" points="0.17,0.46 0.28,0.46 0.28,0.43 0.21,0.43 0.21,0.36 0.27,0.36 0.27,0.32 0.21,0.32 0.21,0.26 0.28,0.26 0.28,0.26 0.28,0.26 0.28,0.23 0.17,0.23 "/>
   <path fill="black" d="M0.35 0.58l0.01 0 0 -0.01 0 0 0 -0.01 0 0 0 -0.01 0 0 0 -0.01 0 0 0 0 0 0 0 -0.01 0.01 0 0 0.01 0 0 0 0.01 0 0 0 0 0 0 0 0.01 0 0 0 0.01 0 0 0 0.01 0 0 0 0 0.01 0 0 0.01 -0.03 0 0 -0.01zm0 -0.08l0 0 0 0.01 -0.01 0 0 0.01 0 0 0 0.01 0 0 0 0.01 0 0 0 0 0 0 0 0.01 0 0 0 0 0 0 0 0.01 -0.01 0 0 0.01 0 0 0 0.01 0 0 0 0.01 0 0 0 0.01 0 0 0 0 0 0 0 0.01 0 0 0 0.01 -0.01 0 0 0 0 0 0 0.01 0 0 0 0.01 0.02 0 0 -0.01 0.01 0 0 -0.01 0 0 0 -0.01 0 0 0 0 0.03 0 0 0 0 0 0 0.01 0 0 0 0 0 0 0 0.01 0.01 0 0 0.01 0.02 0 0 -0.01 0 0 0 -0.01 -0.01 0 0 0 0 0 0 -0.02 0 0 0 0 0 0 0 -0.01 0 0 0 0 0 0 0 -0.02 0 0 0 0 -0.01 0 0 -0.01 0 0 0 0 0 0 0 -0.02 0 0 0 0 0 0 0 -0.01 0 0 0 0 0 0 0 -0.01 -0.01 0 0 -0.01 0 0 0 -0.01 -0.03 0 0 0z"/>
   <path fill="black" d="M0.53 0.59l0 0 0 -0.01 0 0 0 -0.01 0 0 0 -0.01 0.01 0 0 -0.01 0 0 0 -0.01 0 0 0 -0.01 0 0 0 0 0 0 0 0.01 0 0 0 0.01 0.01 0 0 0.01 0 0 0 0 0 0 0 0.01 0 0 0 0.01 0 0 0 0.01 0 0 0 0 -0.02 0 0 0zm0 -0.09l-0.01 0 0 0.01 0 0 0 0 0 0 0 0.02 0 0 0 0 0 0 0 0.01 0 0 0 0.01 -0.01 0 0 0 0 0 0 0.01 0 0 0 0.01 0 0 0 0.01 0 0 0 0.01 0 0 0 0 0 0 0 0.01 -0.01 0 0 0.01 0 0 0 0 0 0 0 0.01 0 0 0 0.01 0 0 0 0.01 0.02 0 0 -0.01 0 0 0 -0.01 0.01 0 0 -0.01 0 0 0 0 0.03 0 0 0 0 0 0 0.01 0 0 0 0.01 0 0 0 0.01 0.02 0 0 -0.01 0 0 0 0 0 0 0 -0.02 0 0 0 0 0 0 0 -0.01 0 0 0 -0.01 0 0 0 -0.01 -0.01 0 0 0 0 0 0 -0.01 0 0 0 0 0 0 0 -0.02 0 0 0 0 0 0 0 -0.01 0 0 0 -0.01 -0.01 0 0 -0.01 0 0 0 0 0 0 0 -0.01 0 0 0 -0.01 0 0 0 0 -0.03 0 0 0z"/>
   <path fill="black" d="M0.21 0.56l0 0 0 0 0 0 0 0 -0.01 0 0 0 -0.01 0 0 -0.04 0.02 0 0 0 0 0 0 0 0 0 0 0 0 0 0 0 0 0 0 0.04 0 0 0 0zm-0.05 -0.06l0 0 0 0.13 0.03 0 0 -0.05 0.02 0 0 0 0 0 0 0 0.01 0 0 0 0 0 0 0 0 0 0 0 0.01 0 0 0 0 0 0 -0.01 0 0 0 0 0 0 0 0 0 0 0 0 0 0 0 0 0 0 0 -0.01 0.01 0 0 -0.04 -0.01 0 0 -0.01 0 0 0 0 0 0 0 0 0 0 0 0 0 0 0 0 0 0 0 -0.01 0 0 0 0 -0.01 0 0 0 0 0 0 0 0 0 0 0 0 0 0 0 -0.01 0 0 0 -0.05 0 0 0z"/>
   <polygon fill="black" points="0.42,0.52 0.42,0.52 0.42,0.52 0.47,0.52 0.47,0.52 0.46,0.52 0.46,0.52 0.46,0.52 0.46,0.53 0.46,0.53 0.46,0.53 0.46,0.53 0.46,0.53 0.46,0.53 0.46,0.53 0.46,0.53 0.46,0.54 0.46,0.54 0.46,0.54 0.45,0.54 0.45,0.54 0.45,0.54 0.45,0.55 0.45,0.55 0.45,0.55 0.45,0.55 0.45,0.55 0.45,0.55 0.45,0.55 0.45,0.55 0.45,0.56 0.44,0.56 0.44,0.56 0.44,0.56 0.44,0.56 0.44,0.56 0.44,0.57 0.44,0.57 0.44,0.57 0.44,0.57 0.44,0.57 0.44,0.57 0.44,0.58 0.44,0.58 0.44,0.58 0.43,0.58 0.43,0.58 0.43,0.58 0.43,0.59 0.43,0.59 0.43,0.59 0.43,0.59 0.43,0.59 0.43,0.59 0.43,0.59 0.43,0.59 0.43,0.6 0.43,0.6 0.43,0.6 0.42,0.6 0.42,0.6 0.42,0.6 0.42,0.61 0.42,0.61 0.42,0.61 0.42,0.61 0.42,0.61 0.42,0.61 0.42,0.64 0.49,0.64 0.49,0.61 0.45,0.61 0.45,0.61 0.45,0.61 0.45,0.6 0.45,0.6 0.45,0.6 0.45,0.6 0.45,0.6 0.45,0.6 0.45,0.6 0.45,0.6 0.45,0.59 0.46,0.59 0.46,0.59 0.46,0.59 0.46,0.59 0.46,0.59 0.46,0.59 0.46,0.59 0.46,0.58 0.46,0.58 0.46,0.58 0.46,0.58 0.46,0.58 0.46,0.58 0.46,0.57 0.47,0.57 0.47,0.57 0.47,0.57 0.47,0.57 0.47,0.57 0.47,0.56 0.47,0.56 0.47,0.56 0.47,0.56 0.47,0.56 0.47,0.56 0.47,0.56 0.47,0.56 0.47,0.55 0.48,0.55 0.48,0.55 0.48,0.55 0.48,0.55 0.48,0.55 0.48,0.54 0.48,0.54 0.48,0.54 0.48,0.54 0.48,0.54 0.48,0.54 0.48,0.54 0.48,0.54 0.48,0.53 0.49,0.53 0.49,0.53 0.49,0.53 0.49,0.53 0.49,0.53 0.49,0.52 0.49,0.52 0.49,0.52 0.49,0.52 0.49,0.52 0.49,0.52 0.49,0.5 0.42,0.5 "/>
   <polygon fill="black" points="0.25,0.64 0.25,0.64 0.25,0.64 0.31,0.64 0.31,0.61 0.27,0.61 0.27,0.5 0.27,0.5 0.27,0.5 0.25,0.5 "/>
   <polygon fill="black" points="0.66,0.97 0.66,0.97 0.66,0.93 0.66,0.93 0.66,0.93 0.66,0.93 0.66,0.93 0.65,0.93 0.65,0.93 0.65,0.93 0.65,0.93 0.65,0.93 0.65,0.92 0.65,0.92 0.65,0.92 0.65,0.92 0.65,0.92 0.64,0.92 0.64,0.92 0.64,0.92 0.64,0.92 0.64,0.92 0.64,0.92 0.64,0.92 0.64,0.92 0.64,0.92 0.64,0.92 0.64,0.92 0.64,0.91 0.64,0.91 0.64,0.91 0.63,0.91 0.63,0.91 0.63,0.91 0.63,0.91 0.63,0.91 0.63,0.91 0.63,0.91 0.63,0.91 0.63,0.91 0.63,0.9 0.62,0.9 0.62,0.9 0.62,0.9 0.62,0.9 0.62,0.9 0.62,0.9 0.62,0.9 0.62,0.9 0.62,0.9 0.62,0.9 0.61,0.9 0.61,0.9 0.61,0.9 0.61,0.89 0.61,0.89 0.61,0.89 0.61,0.89 0.61,0.89 0.61,0.89 0.61,0.89 0.6,0.89 0.6,0.89 0.6,0.89 0.6,0.89 0.6,0.89 0.6,0.88 0.6,0.88 0.6,0.88 0.6,0.88 0.6,0.88 0.6,0.88 0.6,0.88 0.59,0.88 0.59,0.88 0.59,0.88 0.59,0.88 0.59,0.88 0.59,0.88 0.59,0.88 0.59,0.87 0.59,0.87 0.59,0.87 0.58,0.87 0.58,0.87 0.58,0.87 0.58,0.87 0.58,0.87 0.58,0.87 0.58,0.87 0.58,0.87 0.58,0.87 0.58,0.87 0.57,0.87 0.57,0.86 0.57,0.86 0.57,0.86 0.57,0.86 0.57,0.86 0.57,0.86 0.57,0.86 0.57,0.86 0.57,0.86 0.57,0.86 0.57,0.86 0.56,0.86 0.56,0.86 0.56,0.86 0.56,0.85 0.56,0.85 0.56,0.85 0.56,0.85 0.56,0.85 0.56,0.85 0.56,0.85 0.56,0.85 0.56,0.85 0.55,0.85 0.55,0.85 0.55,0.85 0.55,0.84 0.55,0.84 0.55,0.84 0.55,0.84 0.55,0.84 0.55,0.84 0.55,0.84 0.55,0.84 0.55,0.84 0.54,0.84 0.54,0.84 0.54,0.84 0.54,0.84 0.54,0.84 0.54,0.84 0.54,0.84 0.54,0.83 0.54,0.83 0.54,0.83 0.54,0.83 0.54,0.83 0.54,0.83 0.54,0.83 0.53,0.83 0.53,0.83 0.53,0.83 0.53,0.83 0.53,0.83 0.53,0.83 0.53,0.83 0.53,0.83 0.5,0.83 0.5,0.83 0.49,0.83 0.49,0.83 0.45,0.83 0.45,0.83 0.43,0.83 0.43,0.83 0.43,0.83 0.43,0.83 0.41,0.83 0.41,0.83 0.39,0.83 0.39,0.84 0.36,0.84 0.36,0.84 0.34,0.84 0.34,0.84 0.45,0.84 0.45,0.84 0.52,0.84 0.52,0.84 0.52,0.84 0.52,0.84 0.52,0.84 0.52,0.84 0.52,0.84 0.52,0.84 0.53,0.84 0.53,0.84 0.53,0.84 0.53,0.84 0.53,0.84 0.53,0.85 0.53,0.85 0.53,0.85 0.53,0.85 0.53,0.85 0.53,0.85 0.53,0.85 0.53,0.85 0.53,0.85 0.54,0.85 0.54,0.85 0.54,0.85 0.54,0.86 0.54,0.86 0.54,0.86 0.54,0.86 0.54,0.86 0.54,0.86 0.54,0.86 0.54,0.86 0.54,0.86 0.54,0.86 0.54,0.86 0.55,0.86 0.55,0.86 0.55,0.86 0.55,0.86 0.55,0.86 0.55,0.87 0.55,0.87 0.55,0.87 0.55,0.87 0.55,0.87 0.55,0.87 0.55,0.87 0.56,0.87 0.56,0.87 0.56,0.87 0.56,0.87 0.56,0.87 0.56,0.87 0.56,0.87 0.56,0.88 0.56,0.88 0.56,0.88 0.56,0.88 0.56,0.88 0.56,0.88 0.56,0.88 0.57,0.88 0.57,0.88 0.57,0.88 0.57,0.88 0.57,0.88 0.57,0.88 0.57,0.88 0.57,0.89 0.57,0.89 0.57,0.89 0.57,0.89 0.57,0.89 0.57,0.89 0.57,0.89 0.58,0.89 0.58,0.89 0.58,0.89 0.58,0.89 0.58,0.89 0.58,0.89 0.58,0.89 0.58,0.89 0.58,0.89 0.58,0.9 0.58,0.9 0.58,0.9 0.58,0.9 0.58,0.9 0.59,0.9 0.59,0.9 0.59,0.9 0.59,0.9 0.59,0.9 0.59,0.9 0.59,0.9 0.59,0.9 0.59,0.9 0.59,0.91 0.59,0.91 0.59,0.91 0.6,0.91 0.6,0.91 0.6,0.91 0.6,0.91 0.6,0.91 0.6,0.91 0.6,0.91 0.6,0.91 0.6,0.91 0.6,0.91 0.6,0.91 0.6,0.92 0.6,0.92 0.6,0.92 0.61,0.92 0.61,0.92 0.61,0.92 0.61,0.92 0.61,0.92 0.61,0.92 0.61,0.92 0.61,0.92 0.61,0.92 0.61,0.92 0.61,0.92 0.61,0.93 0.61,0.93 0.61,0.93 0.62,0.93 0.62,0.93 0.62,0.93 0.62,0.93 0.62,0.93 0.62,0.93 0.62,0.93 0.62,0.93 0.62,0.93 0.62,0.93 0.62,0.93 0.62,0.94 0.63,0.94 0.63,0.94 0.63,0.94 0.63,0.94 0.63,0.94 0.63,0.94 0.63,0.94 0.63,0.94 0.63,0.94 0.63,0.94 0.63,0.94 0.63,0.94 0.63,0.94 0.63,0.94 0.64,0.94 0.64,0.95 0.64,0.95 0.64,0.95 0.64,0.95 0.64,0.95 0.64,0.95 0.64,0.95 0.64,0.95 0.64,0.95 0.64,0.95 0.64,0.95 0.64,0.95 0.64,0.95 0.65,0.95 0.65,0.96 0.65,0.96 0.65,0.96 0.65,0.96 0.65,0.96 0.65,0.96 0.65,0.96 0.65,0.96 0.65,0.96 0.65,0.96 0.65,0.96 0.66,0.96 0.66,0.96 0.66,0.96 "/>
   <polygon fill="black" points="2.61,0.19 2.6,0.19 2.6,0.2 2.59,0.2 2.59,0.2 2.59,0.2 2.59,0.2 2.59,0.2 2.59,0.2 2.59,0.2 2.59,0.2 2.59,0.2 2.59,0.2 2.58,0.2 2.58,0.2 2.58,0.2 2.58,0.21 2.58,0.21 2.58,0.21 2.58,0.21 2.58,0.21 2.58,0.21 2.58,0.21 2.58,0.21 2.58,0.21 2.57,0.21 2.57,0.22 2.57,0.22 2.57,0.22 2.57,0.22 2.57,0.24 2.57,0.24 2.57,0.24 2.57,0.24 2.57,0.24 2.58,0.24 2.58,0.24 2.58,0.24 2.58,0.25 2.58,0.25 2.58,0.25 2.58,0.25 2.58,0.25 2.59,0.25 2.59,0.25 2.6,0.25 2.6,0.25 2.61,0.25 2.61,0.25 2.61,0.25 2.61,0.25 2.62,0.25 2.62,0.24 2.62,0.24 2.62,0.24 2.62,0.24 2.62,0.24 2.62,0.24 2.62,0.24 2.62,0.24 2.62,0.24 2.63,0.24 2.63,0.24 2.63,0.24 2.63,0.24 2.63,0.24 2.63,0.24 2.63,0.24 2.63,0.23 2.63,0.23 2.63,0.23 2.63,0.23 2.63,0.23 2.64,0.23 2.64,0.23 2.64,0.23 2.64,0.22 2.64,0.22 2.64,0.22 2.64,0.22 2.64,0.21 2.64,0.21 2.64,0.2 2.64,0.2 2.64,0.2 2.64,0.2 2.64,0.2 2.63,0.2 2.63,0.2 2.63,0.2 2.63,0.2 2.63,0.2 2.63,0.2 2.63,0.2 2.63,0.2 2.62,0.2 2.62,0.19 2.62,0.19 2.62,0.19 2.61,0.19 "/>
   <polygon fill="black" points="1.61,0.27 1.6,0.27 1.6,0.27 1.6,0.27 1.6,0.27 1.6,0.27 1.6,0.27 1.6,0.27 1.6,0.27 1.59,0.27 1.59,0.28 1.59,0.28 1.59,0.28 1.59,0.28 1.59,0.28 1.59,0.28 1.59,0.28 1.59,0.28 1.59,0.28 1.59,0.28 1.59,0.29 1.58,0.29 1.58,0.29 1.58,0.29 1.58,0.29 1.58,0.29 1.58,0.3 1.58,0.3 1.58,0.31 1.58,0.31 1.58,0.31 1.58,0.31 1.58,0.32 1.58,0.32 1.58,0.32 1.59,0.32 1.59,0.32 1.59,0.32 1.59,0.32 1.59,0.32 1.59,0.32 1.59,0.32 1.59,0.33 1.61,0.33 1.61,0.32 1.62,0.32 1.62,0.32 1.62,0.32 1.62,0.32 1.62,0.32 1.62,0.32 1.62,0.32 1.62,0.32 1.63,0.32 1.63,0.32 1.63,0.32 1.63,0.32 1.63,0.32 1.63,0.31 1.63,0.31 1.63,0.31 1.64,0.31 1.64,0.31 1.64,0.31 1.64,0.31 1.64,0.31 1.64,0.31 1.64,0.31 1.64,0.31 1.64,0.31 1.64,0.3 1.64,0.3 1.64,0.3 1.65,0.3 1.65,0.3 1.65,0.3 1.65,0.29 1.65,0.29 1.65,0.28 1.64,0.28 1.64,0.28 1.64,0.28 1.64,0.28 1.64,0.28 1.64,0.27 1.64,0.27 1.64,0.27 1.63,0.27 1.63,0.27 1.63,0.27 1.63,0.27 1.62,0.27 1.62,0.27 1.61,0.27 "/>
   <polygon fill="black" points="1.86,0.24 1.86,0.24 1.86,0.24 1.85,0.24 1.85,0.25 1.85,0.25 1.85,0.25 1.85,0.25 1.85,0.25 1.85,0.25 1.85,0.25 1.84,0.25 1.84,0.25 1.84,0.25 1.84,0.25 1.84,0.25 1.84,0.25 1.84,0.25 1.84,0.26 1.84,0.26 1.84,0.26 1.84,0.26 1.84,0.26 1.83,0.26 1.83,0.27 1.83,0.27 1.83,0.27 1.83,0.27 1.83,0.28 1.83,0.28 1.83,0.29 1.83,0.29 1.83,0.29 1.84,0.29 1.84,0.29 1.84,0.29 1.84,0.29 1.84,0.29 1.84,0.3 1.84,0.3 1.84,0.3 1.84,0.3 1.84,0.3 1.87,0.3 1.87,0.3 1.87,0.3 1.87,0.3 1.87,0.3 1.87,0.29 1.88,0.29 1.88,0.29 1.88,0.29 1.88,0.29 1.88,0.29 1.88,0.29 1.88,0.29 1.88,0.29 1.88,0.29 1.88,0.29 1.89,0.29 1.89,0.29 1.89,0.29 1.89,0.29 1.89,0.29 1.89,0.28 1.89,0.28 1.89,0.28 1.89,0.28 1.89,0.28 1.89,0.28 1.89,0.28 1.9,0.28 1.9,0.27 1.9,0.27 1.9,0.27 1.9,0.27 1.9,0.26 1.9,0.26 1.9,0.25 1.89,0.25 1.89,0.25 1.89,0.25 1.89,0.25 1.89,0.25 1.89,0.25 1.89,0.25 1.89,0.25 1.89,0.25 1.89,0.24 1.89,0.24 1.89,0.24 1.88,0.24 1.88,0.24 1.86,0.24 "/>
   <polygon fill="black" points="0.74,0.83 0.74,0.81 0.73,0.81 0.73,0.81 0.71,0.81 0.71,0.81 0.69,0.81 0.69,0.82 0.68,0.82 0.68,0.83 0.68,0.83 0.68,0.83 "/>
   <polygon fill="black" points="0.73,0.29 0.73,0.29 0.73,0.29 0.73,0.29 0.73,0.3 0.72,0.3 0.72,0.31 0.72,0.31 0.72,0.31 0.72,0.31 0.72,0.31 0.72,0.31 0.72,0.33 0.72,0.33 0.72,0.34 0.72,0.34 0.72,0.36 0.72,0.36 0.72,0.38 0.73,0.38 0.73,0.4 0.73,0.4 0.73,0.42 0.73,0.42 0.73,0.44 0.73,0.44 0.73,0.45 0.73,0.45 0.73,0.47 0.73,0.47 0.73,0.42 0.73,0.42 0.73,0.36 0.73,0.36 0.73,0.29 0.73,0.29 "/>
   <polygon fill="black" points="0.01,0.62 0.01,0.62 0.01,0.62 0.02,0.62 0.02,0.61 0.02,0.61 0.02,0.61 0.02,0.61 0.02,0.6 0.02,0.6 0.02,0.58 0.02,0.58 0.02,0.56 0.02,0.56 0.02,0.55 0.02,0.55 0.02,0.52 0.01,0.52 0.01,0.51 0.01,0.51 0.01,0.48 0.01,0.48 0.01,0.47 0.01,0.47 0.01,0.46 0.01,0.46 0.01,0.48 0.01,0.48 0.01,0.56 0.01,0.56 0.01,0.6 0.01,0.6 "/>
  </g>
 </g>
</svg>
