<?xml version="1.0" encoding="UTF-8"?>
<!DOCTYPE svg PUBLIC "-//W3C//DTD SVG 1.1//EN" "http://www.w3.org/Graphics/SVG/1.1/DTD/svg11.dtd">
<!-- Creator: CorelDRAW (Versión de evaluación) -->
<svg xmlns="http://www.w3.org/2000/svg" xml:space="preserve" width="101px" height="32px" version="1.1" shape-rendering="geometricPrecision" text-rendering="geometricPrecision" image-rendering="optimizeQuality" fill-rule="evenodd" clip-rule="evenodd"
viewBox="0 0 3.58 1.14"
 xmlns:xlink="http://www.w3.org/1999/xlink"
 xmlns:xodm="http://www.corel.com/coreldraw/odm/2003">
 <g id="Capa_x0020_1">
  <metadata id="CorelCorpID_0Corel-Layer"/>
  <g id="_2238002793152">
   <path fill="white" d="M0.84 0.77c0.01,-0.02 0.04,-0.04 0.06,-0.04 0.01,0.04 0.03,0.09 0.03,0.13 -0.02,0 -0.09,-0.07 -0.09,-0.09zm0 -0.07c0.01,-0.02 0.01,-0.06 0.03,-0.07l0.01 0.05c-0.01,0.01 -0.01,0.02 -0.04,0.02zm0.1 0c0.02,-0.01 0.11,-0.07 0.13,-0.07l-0.08 0.2c0,0 0,0 0,0.01l-0.01 0.01c-0.01,0 0,0 -0.01,-0.01l-0.02 -0.06c0,-0.02 -0.01,-0.05 -0.01,-0.08zm-0.03 -0.11c0.02,-0.01 0.1,0 0.12,0 0,0.01 -0.09,0.06 -0.1,0.06 -0.01,-0.01 -0.02,-0.04 -0.02,-0.06zm-0.35 -0.29c0.03,-0.01 0.07,0.01 0.1,0.03 0.03,0.01 0.06,0.02 0.09,0.03 0.02,0.02 0.02,0.02 0.03,0.04 0.01,0.02 0.01,0.04 0.02,0.05 0.06,0.14 0.05,0.1 0.01,0.2 -0.04,0.11 -0.04,0.11 -0.13,0.15 -0.12,0.04 -0.08,0.05 -0.2,0 -0.12,-0.05 -0.09,-0.01 -0.14,-0.13 -0.05,-0.11 -0.05,-0.09 -0.01,-0.19 0.06,-0.13 0.02,-0.1 0.13,-0.14 0.03,-0.02 0.07,-0.03 0.1,-0.04zm0.35 0.23c0,-0.02 0,-0.04 0.01,-0.05 0.01,0 0.11,0.04 0.11,0.06 -0.03,0 -0.1,0 -0.12,-0.01zm-0.03 -0.06c-0.01,0.02 -0.01,0.02 -0.01,0.02 -0.02,-0.01 -0.03,-0.04 -0.03,-0.07 0.02,0.01 0.03,0.01 0.04,0.03 0,0.01 0,0.01 0,0.02zm0.06 -0.04c-0.01,-0.03 0.02,-0.14 0.03,-0.15 0.02,0.01 0.02,0.02 0.03,0.05 0.01,0.02 0.02,0.04 0.03,0.06 0.01,0.03 0.03,0.08 0.04,0.11 -0.03,-0.01 -0.1,-0.06 -0.13,-0.07zm-0.11 -0.07c0.01,-0.02 0.08,-0.09 0.1,-0.1 0,0.02 -0.02,0.12 -0.04,0.13 -0.01,0 -0.05,-0.02 -0.06,-0.03zm-0.75 0.43c0.02,0.03 0.03,0.06 0.05,0.1 0.01,0.03 0.02,0.08 0.04,0.09 0.03,0.02 0.08,0.03 0.1,0.04 0.04,0.02 0.07,0.03 0.1,0.05 0.04,0.01 0.07,0.02 0.11,0.04 0.03,0.01 0.07,0.03 0.11,0.03 0.02,0 0.16,-0.07 0.2,-0.08 0.22,-0.09 0.18,-0.05 0.24,-0.2l0.08 -0.2c0.06,-0.14 0.02,-0.11 -0.03,-0.26 -0.02,-0.06 -0.04,-0.09 -0.06,-0.15 -0.02,-0.03 -0.03,-0.08 -0.05,-0.09l-0.2 -0.09c-0.29,-0.11 -0.17,-0.08 -0.42,0.01 -0.03,0.02 -0.18,0.07 -0.19,0.09 -0.01,0.01 -0.04,0.09 -0.04,0.1 -0.02,0.06 -0.13,0.28 -0.12,0.31l0.08 0.21z"/>
   <path fill="white" d="M1.44 0.17l0.08 0 0 0.32 -0.08 0 0 -0.32zm-0.07 0.35c0.01,0.04 0.1,0.02 0.14,0.02 0.1,0 0.08,0.01 0.08,-0.24 0,-0.21 0.03,-0.18 -0.14,-0.18 -0.08,0 -0.08,0 -0.08,0.08l0 0.32z"/>
   <path fill="white" d="M1.75 0.32l0 0.22 0.06 0 0 -0.19c0,-0.01 0,-0.01 0.01,-0.02 0,-0.01 0.03,-0.01 0.05,-0.01l0 0.22 0.06 0c0.01,-0.04 0.01,-0.23 0,-0.26 -0.02,-0.03 -0.08,0 -0.12,0 -0.02,-0.01 -0.02,-0.02 -0.05,-0.01 -0.02,0 -0.04,0.01 -0.06,0.01 -0.02,0 0.03,-0.01 -0.07,-0.01l0 0.27 0.06 0 0.01 -0.22 0.05 0z"/>
   <path fill="white" d="M2.32 0.32l0 0.17c-0.08,0.01 -0.06,-0.03 -0.06,-0.08 0,-0.07 -0.02,-0.1 0.06,-0.09zm-0.12 0.01c0,0.22 -0.02,0.21 0.12,0.21l0 0.06 -0.05 0 -0.01 -0.03 -0.06 0c0,0.01 0,0.04 0.01,0.06 0.01,0.02 0.1,0.01 0.13,0.01 0.05,0 0.04,-0.04 0.04,-0.14l0 -0.23 -0.04 0c-0.04,0 -0.01,0.01 -0.05,0 -0.04,0 -0.09,-0.02 -0.09,0.06z"/>
   <path fill="white" d="M1.44 0.69l0.11 0 0 -0.06 -0.18 0c0,0.05 0,0.4 0,0.43l0.18 0 0 -0.06 -0.11 0 0 -0.14 0.09 0 0 -0.05 -0.09 0 0 -0.12z"/>
   <path fill="white" d="M2.49 0.42l0.05 0 0 0.07 -0.06 0 0.01 -0.07zm-0.01 -0.11l0.06 0.01 0 0.05c-0.04,0.01 -0.11,-0.01 -0.12,0.04 0,0.02 0,0.05 0,0.07 0,0.08 0.02,0.06 0.1,0.05 0.04,0 0.01,0.01 0.04,0.01 0.01,0 0.03,0 0.04,0 0.01,-0.31 0.03,-0.27 -0.12,-0.27 -0.06,0 -0.05,0.02 -0.05,0.08l0.06 0 -0.01 -0.04z"/>
   <path fill="white" d="M3.25 0.94c0.02,-0.01 0.05,-0.01 0.06,0l0 0.07 -0.06 0 0 -0.07zm-0.05 -0.08c0.06,0.01 0.05,0 0.05,-0.03l0.06 0 0 0.06c-0.04,0 -0.1,-0.01 -0.11,0.02 -0.01,0.02 -0.01,0.11 0,0.13 0.02,0.04 0.08,0 0.11,0.01l0.06 0.01c-0.01,-0.08 0.01,-0.19 0,-0.26 -0.02,-0.03 -0.12,-0.02 -0.16,-0.02 0,0.01 -0.03,0.02 -0.01,0.08z"/>
   <path fill="white" d="M2.04 0.31l0.06 0.01 0 0.06 -0.06 0 0 -0.07zm0.11 0.1c0.01,-0.11 0.02,-0.14 -0.05,-0.14 -0.14,0 -0.12,-0.02 -0.12,0.14 0,0.13 -0.01,0.13 0.06,0.13 0.12,0 0.12,0.01 0.12,-0.09l-0.06 0 -0.01 0.05 -0.05 -0.01 0 -0.07 0.1 0 0.01 -0.01z"/>
   <path fill="white" d="M2.76 0.78c0,0.08 0,0.16 0,0.24 0,0.07 0.08,0.03 0.11,0.03 0.03,0 -0.03,0.01 0.07,0.01l0 -0.28 -0.06 0 0 0.22 -0.06 0 0 -0.21c-0.02,-0.01 -0.04,-0.01 -0.06,-0.01z"/>
   <path fill="white" d="M2.16 0.78c0,0.32 -0.02,0.29 0.12,0.27l0.01 0.01 0.06 0 -0.01 -0.28 -0.06 0c-0.01,0.05 0.01,0.18 0,0.22l-0.06 0 0 -0.22 -0.06 0z"/>
   <path fill="white" d="M3.47 0.83l0.05 0 0 0.04 0.06 0c0,-0.03 0.01,-0.06 -0.01,-0.08 -0.03,-0.01 -0.12,-0.01 -0.14,0 -0.03,0.01 -0.02,0.02 -0.02,0.06 0,0.06 0.01,0.06 0.11,0.12l0 0.04 -0.05 0 0 -0.04 -0.06 0c0,0.1 -0.01,0.09 0.11,0.09 0.07,0 0.06,-0.01 0.06,-0.08 0,-0.04 0.01,-0.04 -0.02,-0.06 -0.02,-0.01 -0.07,-0.04 -0.09,-0.05l0 -0.04z"/>
   <path fill="white" d="M1.65 0.83l0.05 0 0 0.04 0.06 0c0,-0.05 0.01,-0.09 -0.04,-0.09 -0.14,0 -0.13,0 -0.13,0.07 0,0.06 0,0.05 0.04,0.08 0.02,0.01 0.05,0.02 0.07,0.04l0 0.04 -0.05 0 0 -0.04 -0.06 0c0,0.05 -0.01,0.09 0.04,0.09 0.14,0 0.13,0.01 0.13,-0.08 0,-0.05 -0.01,-0.05 -0.04,-0.07 -0.02,-0.01 -0.05,-0.03 -0.07,-0.04l0 -0.04z"/>
   <path fill="white" d="M2.45 0.83l0.05 0 0 0.05 0.06 0c0.01,-0.08 0,-0.1 -0.04,-0.1 -0.03,0 -0.12,-0.01 -0.13,0.02 0,0 -0.02,0.24 0.01,0.25 0.04,0.01 0.13,0.01 0.16,0 0.01,-0.02 0.01,-0.06 0,-0.1l-0.06 0.01 0 0.05 -0.05 -0.01 0 -0.17z"/>
   <path fill="white" d="M1.82 0.83c0,0.04 0,0.08 0,0.12 0,0.1 -0.01,0.12 0.1,0.11l0 -0.05 -0.04 -0.01 0 -0.17 0.04 0 0 -0.05 -0.04 0 0 -0.07 -0.06 0 0 0.07 -0.03 0 0 0.05 0.03 0z"/>
   <path fill="white" d="M2.59 0.83l0.03 0c0,0.03 0,0.09 0,0.12 0,0.12 -0.01,0.11 0.11,0.11l-0.01 -0.05 -0.04 -0.01 0.01 -0.17 0.03 0 0.01 -0.05 -0.05 0 0 -0.07 -0.06 0 0 0.07 -0.03 0 0 0.05z"/>
   <path fill="white" d="M2.02 0.88c0,-0.05 -0.01,-0.05 0.05,-0.04l0 0.06 0.06 0c0,-0.15 -0.01,-0.12 -0.11,-0.11l-0.01 -0.01c-0.07,0 -0.06,0 -0.06,0.04l0 0.18c0,0.06 -0.01,0.06 0.07,0.06 0,-0.05 0,-0.14 0,-0.18z"/>
   <path fill="white" d="M3.1 0.84l0 0.06 0.06 -0.01c0,-0.13 0.01,-0.12 -0.11,-0.1l0 -0.01 -0.06 0 0 0.28 0.06 0 0 -0.22 0.05 0z"/>
  </g>
 </g>
</svg>
