<?xml version="1.0" encoding="UTF-8"?>
<!DOCTYPE svg PUBLIC "-//W3C//DTD SVG 1.1//EN" "http://www.w3.org/Graphics/SVG/1.1/DTD/svg11.dtd">
<!-- Creator: CorelDRAW (Versión de evaluación) -->
<svg xmlns="http://www.w3.org/2000/svg" xml:space="preserve" width="137px" height="32px" version="1.1" shape-rendering="geometricPrecision" text-rendering="geometricPrecision" image-rendering="optimizeQuality" fill-rule="evenodd" clip-rule="evenodd"
viewBox="0 0 6.52 1.53"
 xmlns:xlink="http://www.w3.org/1999/xlink"
 xmlns:xodm="http://www.corel.com/coreldraw/odm/2003">
 <g id="Capa_x0020_1">
  <metadata id="CorelCorpID_0Corel-Layer"/>
  <g id="_2238676639328">
   <g>
    <path fill="white" d="M0.34 1.22l0 -0.51 0.18 0 0 0.64 0.07 0.02 0 -0.79 0.18 -0.01 0 0.84 0.06 0 0 -0.98 0.18 -0.01 0 0.96 0.06 -0.03 0 -1.1 0.18 0 0 0.98c0.06,-0.02 0.09,-0.06 0.13,-0.12 0.13,-0.19 0.14,-0.42 0.06,-0.63 -0.21,-0.55 -1.03,-0.55 -1.26,-0.03 -0.06,0.13 -0.08,0.29 -0.04,0.44 0.02,0.1 0.11,0.28 0.2,0.33z"/>
    <path fill="white" d="M1.65 0.82c-0.03,-0.02 -0.12,-0.14 -0.12,-0.19 -0.03,0.21 0.02,0.29 -0.1,0.46 -0.4,0.62 -1.22,0.36 -1.33,-0.22 -0.06,-0.31 0.1,-0.62 0.36,-0.76 0.23,-0.12 0.25,-0.06 0.49,-0.09 -0.13,0.01 -0.24,-0.07 -0.51,0.04 -0.4,0.18 -0.63,0.76 -0.24,1.2 0.31,0.35 0.92,0.37 1.24,-0.03 0.21,-0.26 0.11,-0.34 0.21,-0.41z"/>
   </g>
   <polygon fill="white" fill-rule="nonzero" points="1.75,0.69 1.75,0.25 1.64,0.25 1.64,0.12 2.08,0.12 2.08,0.25 1.97,0.25 1.97,0.69 "/>
   <path id="_1" fill="white" fill-rule="nonzero" d="M2.11 0.69l0 -0.57 0.17 0 0 0.15c0.01,-0.01 0.03,-0.02 0.04,-0.03 0.02,0 0.04,0 0.06,0 0.03,0 0.06,0.01 0.08,0.03 0.02,0.02 0.03,0.06 0.03,0.1l0 0.32 -0.17 0 0 -0.31c0,-0.02 0,-0.03 0,-0.03 0,-0.01 -0.01,-0.01 -0.02,-0.01 -0.01,0 -0.01,0 -0.02,0.01 0,0 0,0.01 0,0.03l0 0.31 -0.17 0z"/>
   <path id="_2" fill="white" fill-rule="nonzero" d="M2.91 0.58c0,0.04 -0.01,0.07 -0.02,0.08 -0.02,0.02 -0.05,0.03 -0.09,0.03l-0.16 0c-0.04,0 -0.07,-0.01 -0.08,-0.03 -0.02,-0.01 -0.03,-0.04 -0.03,-0.08l0 -0.24c0,-0.04 0.01,-0.06 0.03,-0.08 0.01,-0.01 0.04,-0.02 0.08,-0.02l0.16 0c0.04,0 0.07,0.01 0.09,0.02 0.01,0.02 0.02,0.04 0.02,0.08l0 0.14 -0.21 0 0 0.09c0,0.01 0,0.02 0,0.02 0.01,0.01 0.01,0.01 0.02,0.01 0.01,0 0.02,0 0.02,-0.01 0,0 0.01,-0.01 0.01,-0.02l0 -0.06 0.16 0 0 0.07zm-0.21 -0.22l0 0.04 0.05 0 0 -0.04c0,-0.01 0,-0.02 -0.01,-0.03 0,0 -0.01,-0.01 -0.02,-0.01 -0.01,0 -0.01,0.01 -0.02,0.01 0,0.01 0,0.02 0,0.03z"/>
   <polygon id="_3" fill="white" fill-rule="nonzero" points="3.24,0.69 3.15,0.37 3.15,0.69 2.96,0.69 2.96,0.12 3.24,0.12 3.3,0.35 3.36,0.12 3.64,0.12 3.64,0.69 3.44,0.69 3.44,0.37 3.36,0.69 "/>
   <path id="_4" fill="white" fill-rule="nonzero" d="M3.69 0.21l0 -0.09 0.17 0 0 0.09 -0.17 0zm0 0.48l0 -0.45 0.17 0 0 0.45 -0.17 0z"/>
   <path id="_5" fill="white" fill-rule="nonzero" d="M3.91 0.69l0 -0.45 0.16 0 0 0.03c0.01,-0.01 0.03,-0.02 0.05,-0.02 0.01,-0.01 0.03,-0.01 0.05,-0.01 0.03,0 0.06,0.01 0.08,0.03 0.02,0.02 0.03,0.06 0.03,0.1l0 0.32 -0.16 0 0 -0.31c0,-0.02 0,-0.03 -0.01,-0.03 0,-0.01 -0.01,-0.01 -0.02,-0.01 0,0 -0.01,0 -0.01,0.01 -0.01,0 -0.01,0.01 -0.01,0.03l0 0.31 -0.16 0z"/>
   <path id="_6" fill="white" fill-rule="nonzero" d="M4.7 0.58c0,0.04 0,0.07 -0.02,0.08 -0.02,0.02 -0.04,0.03 -0.09,0.03l-0.16 0c-0.04,0 -0.07,-0.01 -0.08,-0.03 -0.02,-0.01 -0.03,-0.04 -0.03,-0.08l0 -0.24c0,-0.04 0.01,-0.06 0.03,-0.08 0.01,-0.01 0.04,-0.02 0.08,-0.02l0.16 0c0.05,0 0.07,0.01 0.09,0.02 0.02,0.02 0.02,0.04 0.02,0.08l0 0.14 -0.21 0 0 0.09c0,0.01 0,0.02 0.01,0.02 0,0.01 0.01,0.01 0.01,0.01 0.01,0 0.02,0 0.02,-0.01 0.01,0 0.01,-0.01 0.01,-0.02l0 -0.06 0.16 0 0 0.07zm-0.21 -0.22l0 0.04 0.05 0 0 -0.04c0,-0.01 0,-0.02 -0.01,-0.03 0,0 -0.01,-0.01 -0.02,-0.01 0,0 -0.01,0.01 -0.01,0.01 -0.01,0.01 -0.01,0.02 -0.01,0.03z"/>
   <path id="_7" fill="white" fill-rule="nonzero" d="M5.12 0.58c0,0.04 0,0.07 -0.02,0.08 -0.02,0.02 -0.05,0.03 -0.09,0.03l-0.16 0c-0.04,0 -0.07,-0.01 -0.08,-0.03 -0.02,-0.01 -0.03,-0.04 -0.03,-0.08l0 -0.24c0,-0.04 0.01,-0.06 0.03,-0.08 0.01,-0.01 0.04,-0.02 0.08,-0.02l0.16 0c0.04,0 0.07,0.01 0.09,0.02 0.02,0.02 0.02,0.04 0.02,0.08l0 0.07 -0.16 0 0 -0.05c0,-0.01 -0.01,-0.02 -0.01,-0.03 0,0 -0.01,0 -0.02,0 -0.01,0 -0.01,0 -0.01,0 -0.01,0.01 -0.01,0.02 -0.01,0.03l0 0.21c0,0.01 0,0.02 0.01,0.02 0,0.01 0.01,0.01 0.01,0.01 0.01,0 0.02,0 0.02,-0.01 0,0 0.01,-0.01 0.01,-0.02l0 -0.07 0.16 0 0 0.08z"/>
   <path id="_8" fill="white" fill-rule="nonzero" d="M5.17 0.69l0 -0.45 0.16 0 0 0.03c0.01,-0.01 0.03,-0.02 0.04,-0.02 0.02,-0.01 0.04,-0.01 0.05,-0.01 0.04,0 0.07,0.01 0.09,0.03 0.02,0.02 0.02,0.06 0.02,0.1l0 0.05 -0.15 0 0 -0.04c0,-0.02 0,-0.03 -0.01,-0.03 0,-0.01 -0.01,-0.01 -0.01,-0.01 -0.01,0 -0.02,0 -0.02,0.01 -0.01,0 -0.01,0.01 -0.01,0.03l0 0.31 -0.16 0z"/>
   <path id="_9" fill="white" fill-rule="nonzero" d="M5.78 0.56l0 -0.07 -0.03 0.01c-0.01,0 -0.01,0.01 -0.02,0.02 0,0 0,0.01 0,0.03l0 0.01c0,0.01 0,0.02 0,0.02 0.01,0.01 0.01,0.01 0.02,0.01 0.01,0 0.02,0 0.02,-0.01 0,0 0.01,-0.01 0.01,-0.02zm0 -0.18l0 -0.02c0,-0.01 -0.01,-0.02 -0.01,-0.03 0,0 -0.01,-0.01 -0.02,-0.01 -0.01,0 -0.01,0.01 -0.02,0.01 0,0.01 0,0.02 0,0.03l0 0.01 -0.16 0 0 -0.03c0,-0.04 0,-0.06 0.02,-0.08 0.02,-0.01 0.05,-0.02 0.09,-0.02l0.15 0c0.04,0 0.07,0.01 0.08,0.02 0.02,0.02 0.03,0.04 0.03,0.08l0 0.35 -0.16 0 0 -0.03c-0.02,0.01 -0.03,0.02 -0.05,0.02 -0.02,0.01 -0.03,0.01 -0.05,0.01 -0.04,0 -0.07,-0.01 -0.09,-0.03 -0.02,-0.03 -0.03,-0.06 -0.03,-0.1l0 -0.02c0,-0.03 0.01,-0.05 0.02,-0.06 0.01,-0.02 0.03,-0.03 0.05,-0.04l0.15 -0.06z"/>
   <path id="_10" fill="white" fill-rule="nonzero" d="M6.01 0.22c0,-0.04 0,-0.06 0.02,-0.08 0.02,-0.01 0.04,-0.02 0.08,-0.02l0.12 0 0 0.08 -0.02 0c-0.02,0 -0.03,0.01 -0.03,0.01 -0.01,0 -0.01,0.01 -0.01,0.02l0 0.01 0.06 0 0 0.09 -0.06 0 0 0.36 -0.16 0 0 -0.36 -0.05 0 0 -0.09 0.05 0 0 -0.02z"/>
   <path id="_11" fill="white" fill-rule="nonzero" d="M6.28 0.33l-0.04 0 0 -0.09 0.04 0 0 -0.12 0.17 0 0 0.12 0.07 0 0 0.09 -0.07 0 0 0.25c0,0.01 0,0.01 0.01,0.02 0,0 0.01,0 0.03,0l0.03 0 0 0.09 -0.13 0c-0.04,0 -0.07,-0.01 -0.08,-0.03 -0.02,-0.01 -0.03,-0.04 -0.03,-0.08l0 -0.25z"/>
   <polygon id="_12" fill="white" fill-rule="nonzero" points="1.65,1.29 1.65,0.73 1.88,0.73 1.88,0.92 1.93,0.92 1.93,0.73 2.15,0.73 2.15,1.29 1.93,1.29 1.93,1.05 1.88,1.05 1.88,1.29 "/>
   <path id="_13" fill="white" fill-rule="nonzero" d="M2.37 0.97l0 0.2c0,0.01 0,0.02 0,0.03 0,0 0.01,0.01 0.02,0.01 0.01,0 0.01,-0.01 0.02,-0.01 0,-0.01 0,-0.01 0,-0.03l0 -0.2c0,-0.02 0,-0.02 0,-0.03 -0.01,-0.01 -0.01,-0.01 -0.02,-0.01 -0.01,0 -0.02,0 -0.02,0.01 0,0.01 0,0.01 0,0.03zm-0.17 -0.02c0,-0.04 0.01,-0.07 0.02,-0.08 0.02,-0.02 0.05,-0.02 0.09,-0.02l0.16 0c0.04,0 0.07,0 0.08,0.02 0.02,0.01 0.03,0.04 0.03,0.08l0 0.24c0,0.04 -0.01,0.07 -0.03,0.08 -0.01,0.02 -0.04,0.02 -0.08,0.02l-0.16 0c-0.04,0 -0.07,0 -0.09,-0.02 -0.01,-0.01 -0.02,-0.04 -0.02,-0.08l0 -0.24z"/>
   <path id="_14" fill="white" fill-rule="nonzero" d="M3 1.19c0,0.04 -0.01,0.07 -0.03,0.08 -0.01,0.02 -0.04,0.02 -0.08,0.02l-0.16 0c-0.04,0 -0.07,0 -0.09,-0.02 -0.01,-0.01 -0.02,-0.04 -0.02,-0.08l0 -0.05 0.16 0 0 0.03c0,0.01 0.01,0.02 0.01,0.03 0,0 0.01,0.01 0.02,0.01 0.01,0 0.01,-0.01 0.01,-0.01 0.01,-0.01 0.01,-0.01 0.01,-0.03l0 -0.01c0,-0.01 0,-0.02 -0.01,-0.02 -0.01,-0.01 -0.02,-0.02 -0.03,-0.02l-0.09 -0.03c-0.03,-0.02 -0.05,-0.03 -0.06,-0.04 -0.01,-0.01 -0.02,-0.03 -0.02,-0.06l0 -0.04c0,-0.04 0.01,-0.07 0.02,-0.08 0.02,-0.02 0.05,-0.02 0.09,-0.02l0.16 0c0.04,0 0.07,0 0.08,0.02 0.02,0.01 0.03,0.04 0.03,0.08l0 0.03 -0.17 0 0 -0.01c0,-0.02 0,-0.02 0,-0.03 -0.01,-0.01 -0.01,-0.01 -0.02,-0.01 -0.01,0 -0.01,0 -0.02,0.01 0,0 0,0.01 0,0.02 0,0.01 0,0.01 0,0.02 0.01,0.01 0.02,0.01 0.04,0.02l0.07 0.02c0.04,0.02 0.07,0.03 0.08,0.05 0.01,0.01 0.02,0.04 0.02,0.07l0 0.05z"/>
   <path id="_15" fill="white" fill-rule="nonzero" d="M3.07 0.93l-0.05 0 0 -0.08 0.05 0 0 -0.12 0.16 0 0 0.12 0.07 0 0 0.08 -0.07 0 0 0.25c0,0.01 0,0.02 0.01,0.02 0,0 0.01,0.01 0.03,0.01l0.03 0 0 0.08 -0.12 0c-0.05,0 -0.07,-0.01 -0.09,-0.02 -0.02,-0.02 -0.02,-0.04 -0.02,-0.08l0 -0.26z"/>
   <path id="_16" fill="white" fill-rule="nonzero" d="M3.33 0.82l0 -0.09 0.16 0 0 0.09 -0.16 0zm0 0.47l0 -0.44 0.16 0 0 0.44 -0.16 0z"/>
   <path id="_17" fill="white" fill-rule="nonzero" d="M3.55 1.29l0 -0.44 0.16 0 0 0.02c0.01,-0.01 0.03,-0.01 0.04,-0.02 0.02,0 0.04,-0.01 0.06,-0.01 0.03,0 0.06,0.02 0.08,0.04 0.02,0.02 0.03,0.05 0.03,0.09l0 0.32 -0.16 0 0 -0.31c0,-0.01 -0.01,-0.02 -0.01,-0.02 0,-0.01 -0.01,-0.01 -0.02,-0.01 -0.01,0 -0.01,0 -0.01,0.01 -0.01,0 -0.01,0.01 -0.01,0.02l0 0.31 -0.16 0z"/>
   <path id="_18" fill="white" fill-rule="nonzero" d="M4.34 1.31c0,0.03 -0.01,0.06 -0.02,0.07 -0.02,0.02 -0.05,0.03 -0.09,0.03l-0.25 0 0 -0.09 0.16 0c0.01,0 0.02,0 0.03,0 0,-0.01 0.01,-0.01 0.01,-0.02l0 -0.03c-0.02,0.01 -0.04,0.01 -0.05,0.02 -0.02,0 -0.03,0.01 -0.05,0.01 -0.04,0 -0.07,-0.02 -0.09,-0.04 -0.02,-0.02 -0.03,-0.05 -0.03,-0.1l0 -0.19c0,-0.04 0.01,-0.07 0.03,-0.09 0.02,-0.02 0.05,-0.04 0.09,-0.04 0.02,0 0.03,0.01 0.05,0.01 0.02,0.01 0.03,0.02 0.05,0.03l0 -0.03 0.16 0 0 0.46zm-0.16 -0.33c0,-0.01 -0.01,-0.02 -0.01,-0.02 0,-0.01 -0.01,-0.01 -0.02,-0.01 -0.01,0 -0.01,0 -0.01,0.01 -0.01,0 -0.01,0.01 -0.01,0.02l0 0.18c0,0.01 0,0.02 0.01,0.02 0,0.01 0,0.01 0.01,0.01 0.01,0 0.02,0 0.02,-0.01 0,0 0.01,-0.01 0.01,-0.02l0 -0.18z"/>
  </g>
 </g>
</svg>
