<?xml version="1.0" encoding="UTF-8"?>
<!DOCTYPE svg PUBLIC "-//W3C//DTD SVG 1.1//EN" "http://www.w3.org/Graphics/SVG/1.1/DTD/svg11.dtd">
<!-- Creator: CorelDRAW (Versión de evaluación) -->
<svg xmlns="http://www.w3.org/2000/svg" xml:space="preserve" width="91px" height="32px" version="1.1" shape-rendering="geometricPrecision" text-rendering="geometricPrecision" image-rendering="optimizeQuality" fill-rule="evenodd" clip-rule="evenodd"
viewBox="0 0 2.93 1.03"
 xmlns:xlink="http://www.w3.org/1999/xlink"
 xmlns:xodm="http://www.corel.com/coreldraw/odm/2003">
 <g id="Capa_x0020_1">
  <metadata id="CorelCorpID_0Corel-Layer"/>
  <g id="_2238798040992">
   <g>
    <polygon fill="black" fill-rule="nonzero" points="2.17,1.03 2.17,0.98 2.21,0.98 2.21,0.89 2.13,0.77 2.09,0.77 2.09,0.72 2.24,0.72 2.24,0.77 2.21,0.77 2.26,0.85 2.3,0.77 2.27,0.77 2.27,0.72 2.41,0.72 2.41,0.77 2.37,0.77 2.29,0.89 2.29,0.98 2.33,0.98 2.33,1.03 "/>
    <path fill="black" fill-rule="nonzero" d="M2.11 0.98l0 0.05 -0.09 0 -0.07 -0.14 -0.03 0 0 0.09 0.03 0 0 0.05 -0.16 0 0 -0.05 0.04 0 0 -0.21 -0.04 0 0 -0.05 0.19 0c0.03,0 0.06,0.01 0.07,0.03 0.02,0.02 0.03,0.04 0.03,0.06 0,0.03 -0.02,0.06 -0.06,0.07l0.05 0.1 0.04 0zm-0.19 -0.13l0.02 0c0.04,0 0.05,-0.02 0.05,-0.04 0,-0.01 0,-0.02 -0.01,-0.03 -0.01,0 -0.02,-0.01 -0.03,-0.01l-0.03 0 0 0.08z"/>
    <polygon fill="black" fill-rule="nonzero" points="1.5,1.03 1.5,0.98 1.54,0.98 1.54,0.77 1.5,0.77 1.5,0.72 1.78,0.72 1.78,0.82 1.72,0.82 1.72,0.77 1.62,0.77 1.62,0.84 1.7,0.84 1.7,0.9 1.62,0.9 1.62,0.98 1.72,0.98 1.72,0.93 1.78,0.93 1.78,1.03 "/>
    <polygon fill="black" fill-rule="nonzero" points="1.32,1.03 1.32,0.98 1.36,0.98 1.27,0.88 1.27,0.98 1.31,0.98 1.31,1.03 1.15,1.03 1.15,0.98 1.19,0.98 1.19,0.77 1.15,0.77 1.15,0.72 1.31,0.72 1.31,0.77 1.27,0.77 1.27,0.86 1.36,0.77 1.33,0.77 1.33,0.72 1.48,0.72 1.48,0.77 1.44,0.77 1.35,0.86 1.45,0.98 1.49,0.98 1.49,1.03 "/>
    <path fill="black" fill-rule="nonzero" d="M1.13 0.98l0 0.05 -0.15 0 0 -0.05 0.04 0 -0.01 -0.05 -0.08 0 -0.02 0.05 0.04 0 0 0.05 -0.14 0 0 -0.05 0.04 0 0.06 -0.21 -0.04 0 0 -0.05 0.2 0 0 0.05 -0.04 0 0.07 0.21 0.03 0zm-0.14 -0.1l-0.02 -0.09 -0.03 0.09 0.05 0z"/>
    <path fill="black" fill-rule="nonzero" d="M0.52 1.03l0 -0.05 0.04 0 0 -0.21 -0.04 0 0 -0.05 0.14 0c0.04,0 0.06,0 0.07,0.01 0.02,0 0.03,0.01 0.04,0.02 0.01,0.02 0.02,0.03 0.02,0.05 0,0.03 -0.01,0.05 -0.04,0.07 0.03,0.01 0.05,0.03 0.05,0.07 0,0.02 0,0.04 -0.01,0.05 -0.02,0.02 -0.03,0.03 -0.05,0.03 -0.02,0.01 -0.04,0.01 -0.08,0.01l-0.14 0zm0.12 -0.19l0.02 0c0.02,0 0.03,0 0.04,0 0.01,-0.01 0.01,-0.02 0.01,-0.03 0,-0.01 0,-0.02 -0.01,-0.03 -0.01,0 -0.02,-0.01 -0.04,-0.01l-0.02 0 0 0.07zm0 0.14l0.02 0c0.03,0 0.04,0 0.05,-0.01 0.01,-0.01 0.01,-0.02 0.01,-0.03 0,-0.02 0,-0.03 -0.01,-0.03 -0.01,-0.01 -0.03,-0.01 -0.05,-0.01l-0.02 0 0 0.08z"/>
   </g>
   <path fill="black" fill-rule="nonzero" d="M0.44 0.22c-0.04,-0.02 -0.08,-0.04 -0.12,-0.04 -0.1,0 -0.14,0.1 -0.14,0.14 0,0.02 0,0.03 0.01,0.03 0.01,0 0.01,-0.01 0.02,-0.02 0.04,-0.04 0.09,-0.05 0.13,-0.05 0.01,0 0.02,0 0.03,0 -0.09,0.09 -0.17,0.15 -0.23,0.15 -0.04,0 -0.07,-0.03 -0.07,-0.05 0,-0.02 0,-0.02 -0.01,-0.02 -0.02,0 -0.06,0.04 -0.06,0.11 0,0.06 0.05,0.11 0.11,0.11 0.13,0 0.24,-0.14 0.37,-0.28 0.02,0.01 0.05,0.01 0.08,0.01 -0.09,0.11 -0.16,0.21 -0.16,0.27 0,0.06 0.05,0.1 0.11,0.1 0.08,0 0.12,-0.05 0.12,-0.08 0,-0.01 -0.01,-0.01 -0.02,-0.01 -0.04,0 -0.05,-0.02 -0.05,-0.05 0,-0.13 0.29,-0.47 0.32,-0.51 0.01,0 0.01,0 0.01,0 0,-0.01 -0.02,-0.03 -0.04,-0.03 -0.15,0 -0.3,0.12 -0.41,0.22zm1.89 0.18c-0.02,0.02 -0.05,0.06 -0.09,0.06 -0.01,0 -0.01,-0.01 -0.01,-0.01 0,-0.04 0.1,-0.17 0.12,-0.19 0,0 0,0 0,0 0,-0.02 -0.03,-0.04 -0.05,-0.04 -0.01,0 -0.02,0.01 -0.05,0.05 -0.01,-0.02 -0.04,-0.05 -0.07,-0.05 -0.07,0 -0.18,0.1 -0.23,0.2 -0.02,0.02 -0.05,0.04 -0.11,0.04 -0.03,0 -0.05,-0.01 -0.06,-0.03 0.05,0 0.18,-0.05 0.18,-0.15 0,-0.03 -0.02,-0.06 -0.07,-0.06 -0.06,0 -0.16,0.09 -0.2,0.18 -0.01,0.02 -0.05,0.06 -0.09,0.06 -0.01,0 -0.01,-0.01 -0.01,-0.01 0,-0.04 0.1,-0.17 0.12,-0.19 0,0 0,0 0,0 0,-0.02 -0.02,-0.04 -0.04,-0.04 -0.01,0 -0.01,0 -0.01,0 0,0 -0.08,0.06 -0.12,0.06 0,0 0.04,-0.02 0.04,-0.06 0,-0.02 -0.01,-0.05 -0.04,-0.05 -0.04,0 -0.07,0.06 -0.07,0.1 0,0.01 0,0.02 0.01,0.03 -0.02,0.04 -0.05,0.07 -0.08,0.1 0,0 -0.04,0.06 -0.08,0.06 -0.01,0 -0.01,0 -0.01,-0.01 0,-0.05 0.23,-0.35 0.25,-0.37 0,0 0,0 0,0 0,-0.02 -0.03,-0.04 -0.05,-0.04 0,0 -0.01,0 -0.01,0 -0.01,0.01 -0.1,0.12 -0.18,0.23 -0.01,-0.03 -0.04,-0.05 -0.07,-0.05 -0.07,0 -0.17,0.1 -0.23,0.2 -0.01,0.02 -0.04,0.04 -0.07,0.04 -0.01,0 -0.01,0 -0.01,-0.01 0,-0.02 0.1,-0.12 0.1,-0.17 0,-0.03 -0.03,-0.06 -0.07,-0.06 -0.04,0 -0.09,0.05 -0.15,0.1 0.03,-0.03 0.05,-0.06 0.05,-0.06 0,-0.02 -0.03,-0.04 -0.05,-0.04 0,0 -0.01,0 -0.01,0 -0.03,0.03 -0.22,0.29 -0.22,0.32 0,0.02 0.05,0.04 0.07,0.04 0,0 0.01,-0.01 0.01,-0.01 0,-0.02 0.24,-0.29 0.29,-0.29 0.01,0 0.01,0 0.01,0 0,0.03 -0.16,0.15 -0.16,0.24 0,0.03 0.03,0.06 0.06,0.06 0.04,0 0.08,-0.03 0.12,-0.07 0,0.01 0,0.01 0,0.02 0,0.03 0.02,0.05 0.05,0.05 0.04,0 0.1,-0.05 0.15,-0.1 0,0.02 -0.01,0.03 -0.01,0.04 0,0.03 0.03,0.06 0.05,0.06 0.09,0 0.16,-0.09 0.2,-0.16 0,0 0.05,-0.05 0.07,-0.1 0.01,0 0.02,0.01 0.03,0.01 0.02,0 0.03,-0.01 0.04,-0.01 -0.05,0.07 -0.1,0.15 -0.1,0.2 0,0.03 0.02,0.06 0.05,0.06 0.05,0 0.11,-0.05 0.15,-0.1 0,0 0,0 0,0.01 0,0.06 0.04,0.09 0.09,0.09 0.06,0 0.11,-0.04 0.16,-0.07 -0.01,0 -0.01,0.01 -0.01,0.02 0,0.03 0.03,0.05 0.05,0.05 0.05,0 0.1,-0.04 0.15,-0.09 0,0.01 0,0.02 0,0.03 0,0.03 0.02,0.06 0.05,0.06 0.09,0 0.19,-0.15 0.19,-0.16 0.02,-0.02 0.06,-0.08 0.07,-0.1 0.01,0 0.02,0.01 0.03,0.01 0.01,0 0.03,-0.01 0.04,-0.01 -0.05,0.07 -0.1,0.15 -0.1,0.2 0,0.03 0.02,0.06 0.05,0.06 0.04,0 0.08,-0.03 0.12,-0.07 0,0 0,0.01 0,0.01 0,0.03 0.02,0.06 0.05,0.06 0.09,0 0.2,-0.16 0.19,-0.16 0.01,0 0.01,0 0.01,0 0,-0.01 -0.02,-0.02 -0.03,-0.02 0,0 0,0 0,0 0,0 -0.05,0.06 -0.09,0.06 0,0 -0.01,0 -0.01,-0.01 0,-0.03 0.07,-0.12 0.13,-0.21 0.02,0 0.04,0 0.05,0 0.01,0 0.03,-0.03 0.03,-0.04 0,-0.01 -0.03,-0.01 -0.05,-0.01 0.06,-0.08 0.09,-0.11 0.09,-0.11 0,-0.02 -0.03,-0.04 -0.04,-0.04 -0.01,0 -0.01,0 -0.02,0 0,0.01 -0.06,0.07 -0.12,0.15l-0.03 0c-0.02,0 -0.05,0.04 -0.05,0.05 0,0.01 0,0.01 0,0.01 0.01,0 0.02,0 0.04,0 -0.04,0.05 -0.08,0.11 -0.11,0.16 -0.01,0.02 -0.05,0.05 -0.08,0.05 -0.01,0 -0.01,-0.01 -0.01,-0.01 0,-0.04 0.1,-0.17 0.12,-0.19 0,0 0,0 0,0 0,-0.02 -0.02,-0.04 -0.04,-0.04 -0.01,0 -0.01,0 -0.02,0 0,0 -0.07,0.06 -0.11,0.06 0,0 0.04,-0.02 0.04,-0.06 0,-0.02 -0.02,-0.05 -0.04,-0.05 -0.04,0 -0.07,0.06 -0.07,0.1 0,0.01 0,0.02 0.01,0.03 -0.02,0.04 -0.05,0.07 -0.07,0.1zm-1.21 0.04c0,-0.04 0.09,-0.17 0.13,-0.17 0.03,0 0.04,0.04 0.04,0.04 -0.02,0.02 -0.12,0.15 -0.16,0.15 -0.01,0 -0.01,-0.01 -0.01,-0.02zm0.67 -0.05c0.02,-0.06 0.09,-0.13 0.11,-0.13 0.01,0 0.01,0.01 0.01,0.01 0,0.02 -0.05,0.1 -0.12,0.12zm0.25 0.05c0,-0.04 0.1,-0.17 0.14,-0.17 0.02,0 0.04,0.04 0.04,0.04 -0.02,0.02 -0.13,0.15 -0.16,0.15 -0.01,0 -0.02,-0.01 -0.02,-0.02zm-1.52 -0.19c0.09,-0.09 0.17,-0.17 0.27,-0.2 -0.05,0.05 -0.12,0.13 -0.2,0.22 -0.02,0 -0.04,-0.01 -0.07,-0.02z"/>
  </g>
 </g>
</svg>
